<?xml version="1.0" encoding="UTF-8"?>
<svg version="1.1" xmlns="http://www.w3.org/2000/svg" width="28" height="28">
<path d="M0 0 C8.25 0 16.5 0 25 0 C25 9.24 25 18.48 25 28 C17.74 28 10.48 28 3 28 C3 26.02 3 24.04 3 22 C2.01 22 1.02 22 0 22 C0 14.74 0 7.48 0 0 Z M2 1 C0.80658248 1.97332261 0.80658248 1.97332261 0.88647461 3.76586914 C0.89171143 4.51473389 0.89694824 5.26359863 0.90234375 6.03515625 C0.90556641 6.84404297 0.90878906 7.65292969 0.91210938 8.48632812 C0.92048828 9.33646484 0.92886719 10.18660156 0.9375 11.0625 C0.94201172 11.91650391 0.94652344 12.77050781 0.95117188 13.65039062 C0.96299627 15.76695663 0.98093231 17.88348685 1 20 C1.66 20.33 2.32 20.66 3 21 C3 14.4 3 7.8 3 1 C2.67 1 2.34 1 2 1 Z M5 1 C5 4.63 5 8.26 5 12 C7.08326131 12.02709444 9.16662441 12.04643873 11.25 12.0625 C12.99023438 12.07990234 12.99023438 12.07990234 14.765625 12.09765625 C17.40977128 12.01782092 19.49826091 11.78643778 22 11 C22 11.66 22 12.32 22 13 C16.39 13 10.78 13 5 13 C5 13.66 5 14.32 5 15 C10.61 15 16.22 15 22 15 C22 15.66 22 16.32 22 17 C21.30519531 16.82597656 20.61039063 16.65195312 19.89453125 16.47265625 C16.67343131 15.94667367 13.93090738 16.11672345 10.6875 16.4375 C9.61886719 16.53933594 8.55023438 16.64117187 7.44921875 16.74609375 C6.23685547 16.87177734 6.23685547 16.87177734 5 17 C5 17.33 5 17.66 5 18 C7.0825867 18.19561869 9.16611856 18.38119313 11.25 18.5625 C12.41015625 18.66691406 13.5703125 18.77132813 14.765625 18.87890625 C17.51871477 18.98198087 19.419982 18.86213473 22 18 C22 18.66 22 19.32 22 20 C16.39 20 10.78 20 5 20 C5 20.66 5 21.32 5 22 C8.96 22 12.92 22 17 22 C17 22.66 17 23.32 17 24 C13.04 23.67 9.08 23.34 5 23 C5.33 24.32 5.66 25.64 6 27 C11.61 27 17.22 27 23 27 C23 18.42 23 9.84 23 1 C17.06 1 11.12 1 5 1 Z " fill="#FFFFFF" transform="translate(0,0)"/>
<path d="M0 0 C2.97 0 5.94 0 9 0 C9.66 1.65 10.32 3.3 11 5 C7.37 5 3.74 5 0 5 C0 3.35 0 1.7 0 0 Z " fill="#FFFFFF" transform="translate(6,3)"/>
<path d="M0 0 C1.32 0 2.64 0 4 0 C4 1.65 4 3.3 4 5 C2.68 5 1.36 5 0 5 C0 3.35 0 1.7 0 0 Z " fill="#FFFFFF" transform="translate(18,3)"/>
</svg>
