<?xml version="1.0" encoding="UTF-8"?>
<svg version="1.1" xmlns="http://www.w3.org/2000/svg" width="368" height="124">
<path d="M0 0 C121.44 0 242.88 0 368 0 C368 40.92 368 81.84 368 124 C246.56 124 125.12 124 0 124 C0 83.08 0 42.16 0 0 Z " fill="#3894FE" transform="translate(0,0)"/>
<path d="M0 0 C0 40.92 0 81.84 0 124 C-62.37 124 -124.74 124 -189 124 C-181.11104668 111.60307335 -181.11104668 111.60307335 -178.203125 107.23828125 C-177.56012451 106.27277344 -176.91712402 105.30726562 -176.25463867 104.3125 C-175.59310791 103.3225 -174.93157715 102.3325 -174.25 101.3125 C-173.55044189 100.26449219 -172.85088379 99.21648437 -172.13012695 98.13671875 C-166.91646905 90.33987863 -161.63991954 82.58980942 -156.29882812 74.87988281 C-154.9383319 72.91074353 -153.58545985 70.93654479 -152.234375 68.9609375 C-149.50153482 64.96564917 -146.75691886 60.97871205 -144 57 C-143.58395508 56.39945801 -143.16791016 55.79891602 -142.73925781 55.18017578 C-124.02993465 28.28830566 -124.02993465 28.28830566 -114 21 C-113.48099121 20.62037109 -112.96198242 20.24074219 -112.42724609 19.84960938 C-78.25925094 -4.8446619 -42.97784792 0 0 0 Z " fill="#FEDA30" transform="translate(368,0)"/>
<path d="M0 0 C0.33 0 0.66 0 1 0 C1 1.98 1 3.96 1 6 C-0.98 6 -2.96 6 -5 6 C-3.35830472 3.97945196 -1.69088222 1.97956942 0 0 Z " fill="#000000" transform="translate(367,118)"/>
<path d="M0 0 C2.02054804 1.64169528 4.02043058 3.30911778 6 5 C6 5.33 6 5.66 6 6 C4.02 6 2.04 6 0 6 C0 4.02 0 2.04 0 0 Z " fill="#000000" transform="translate(0,118)"/>
<path d="M0 0 C1.98 0 3.96 0 6 0 C4.35830472 2.02054804 2.69088222 4.02043058 1 6 C0.67 6 0.34 6 0 6 C0 4.02 0 2.04 0 0 Z " fill="#000000" transform="translate(0,0)"/>
</svg>
