<?xml version="1.0" encoding="UTF-8"?>
<svg version="1.1" xmlns="http://www.w3.org/2000/svg" width="32" height="32">
<path d="M0 0 C10.56 0 21.12 0 32 0 C32 7.26 32 14.52 32 22 C21.44 22 10.88 22 0 22 C0 14.74 0 7.48 0 0 Z M2 2 C2 2.99 2 3.98 2 5 C11.24 5 20.48 5 30 5 C30 4.01 30 3.02 30 2 C20.76 2 11.52 2 2 2 Z M2 10 C2 13.3 2 16.6 2 20 C11.24 20 20.48 20 30 20 C30 16.7 30 13.4 30 10 C20.76 10 11.52 10 2 10 Z " fill="#000000" transform="translate(0,5)"/>
<path d="M0 0 C4.29 0 8.58 0 13 0 C13 0.99 13 1.98 13 3 C11.35 3 9.7 3 8 3 C8 3.66 8 4.32 8 5 C5.36 5 2.72 5 0 5 C0 3.35 0 1.7 0 0 Z " fill="#000000" transform="translate(5,17)"/>
</svg>
