<?xml version="1.0" encoding="UTF-8"?>
<svg version="1.1" xmlns="http://www.w3.org/2000/svg" width="368" height="127">
<path d="M0 0 C1.24037073 -0.00507454 2.48074146 -0.01014909 3.75869918 -0.0153774 C5.14784984 -0.01597913 6.53700055 -0.01647819 7.92615128 -0.01688576 C9.39203135 -0.02089888 10.85791031 -0.02533685 12.32378793 -0.03016531 C16.36664503 -0.04215336 20.40949018 -0.04778442 24.45236158 -0.05234647 C28.80695476 -0.0582941 33.16153358 -0.069906 37.5161171 -0.08063698 C48.03968385 -0.10517979 58.56325536 -0.11979064 69.08684194 -0.13269705 C72.05777828 -0.13640753 75.02871414 -0.14038087 77.99965 -0.14444971 C96.43782143 -0.16968413 114.87599358 -0.19174328 133.31417847 -0.20417786 C137.58671191 -0.20710769 141.85924533 -0.21006933 146.13177872 -0.21308327 C147.19373271 -0.21382932 148.2556867 -0.21457537 149.34982112 -0.21534403 C166.5595845 -0.22800238 183.76924466 -0.26123081 200.97895977 -0.3028851 C218.63662653 -0.34527425 236.29424042 -0.36886938 253.95195794 -0.37409842 C263.8706697 -0.37751591 273.78922016 -0.38931083 283.70788193 -0.42220116 C292.1537532 -0.45016134 300.59943012 -0.46121876 309.04534408 -0.4500057 C313.35602383 -0.44480872 317.66629633 -0.44777277 321.97691727 -0.47247124 C325.922483 -0.49488974 329.86734724 -0.49428225 333.81292465 -0.47526737 C335.24096637 -0.47245689 336.66905491 -0.478124 338.09702107 -0.4930803 C350.09051088 -0.61102687 350.09051088 -0.61102687 354.0530529 2.371418 C356.30884133 5.26256693 356.96079279 6.39458312 356.95932388 9.99455833 C356.97335251 10.94500526 356.98738113 11.89545219 357.00183487 12.87470055 C356.98654739 13.9055024 356.97125992 14.93630424 356.95550919 15.99834251 C356.96281052 17.09319466 356.97011185 18.1880468 356.97763443 19.31607628 C356.9938428 22.9341041 356.9666313 26.55033945 356.93744278 30.16826439 C356.93640551 32.68262798 356.93744116 35.19699322 356.94046402 37.71135521 C356.94028459 42.98056083 356.92010741 48.24930309 356.88324356 53.51836205 C356.84090983 59.60396223 356.8338891 65.68880755 356.84636748 71.77452517 C356.8577706 77.63670381 356.84623501 83.49861308 356.82402039 89.36075401 C356.81631925 91.85184219 356.81401878 94.34295307 356.81719208 96.83405113 C356.81793343 100.31503658 356.79269458 103.79487331 356.76019669 107.27568626 C356.76515152 108.30648811 356.77010635 109.33728996 356.77521133 110.39932823 C356.70913997 114.83115771 356.65498267 117.41216887 354.301548 121.2533474 C350.91186877 124.30740845 348.90752459 124.26378807 344.41896725 124.27123547 C343.17797982 124.27569331 341.93699239 124.28015115 340.65839928 124.28474408 C339.26855957 124.28465478 337.87871985 124.28446491 336.48888016 124.28418541 C335.02228759 124.28748304 333.55569592 124.2912084 332.08910543 124.29532689 C328.04431555 124.30536634 323.99954051 124.3090668 319.95473993 124.3117162 C315.59812243 124.31561346 311.24151674 124.32519214 306.88490677 124.33392906 C296.3568927 124.35370915 285.82887765 124.36376133 275.30084965 124.37265685 C270.34690711 124.37703695 265.39296565 124.38240445 260.43902397 124.38764572 C243.97794154 124.40465902 227.51685979 124.41915439 211.05576992 124.42639446 C206.78219667 124.42830445 202.50862343 124.43022477 198.2350502 124.4321804 C197.1728339 124.43266414 196.11061759 124.43314789 195.01621292 124.43364628 C177.79932471 124.44195105 160.58250589 124.46729504 143.36564799 124.49976108 C125.70233529 124.53279837 108.03905789 124.55084018 90.37571412 124.5540387 C80.45314853 124.55620682 70.53068412 124.56499951 60.60814857 124.59049988 C52.1597037 124.61216137 43.71138459 124.62027978 35.2629151 124.6105331 C30.950391 124.60597522 26.63812662 124.60796049 22.32563782 124.62729454 C18.37958861 124.6448334 14.43399038 124.64400471 10.48793701 124.62839725 C9.05857134 124.62600698 7.6291752 124.63041778 6.1998563 124.6422259 C4.26006506 124.65726168 2.32012046 124.6453279 0.38031673 124.63199902 C-0.69814402 124.63297582 -1.77660477 124.63395263 -2.88774616 124.63495904 C-6.50111664 124.0148188 -8.17308222 122.65349324 -10.78911972 120.13701439 C-11.97411353 117.76702676 -11.9224685 116.32262483 -11.93629074 113.67819786 C-11.94344604 112.74028908 -11.95060135 111.80238029 -11.95797348 110.83605003 C-11.96066238 109.8038131 -11.96335129 108.77157616 -11.96612167 107.70805931 C-11.97269287 106.62339882 -11.97926407 105.53873833 -11.98603439 104.42120934 C-12.00579857 100.81996663 -12.01743642 97.21876567 -12.02740097 93.61748314 C-12.0314765 92.38991106 -12.03555202 91.16233898 -12.03975105 89.89756775 C-12.05847031 84.07179147 -12.07303364 78.24603169 -12.08136302 72.42023104 C-12.09113461 65.69680233 -12.11745157 58.97370292 -12.15786391 52.25039023 C-12.19166945 46.42622255 -12.20350859 40.60216532 -12.20756721 34.77790833 C-12.21244696 32.30074199 -12.22410012 29.82357953 -12.24260521 27.34647751 C-12.26687864 23.88210079 -12.26605287 20.41858828 -12.25909042 16.95415306 C-12.27190048 15.92798882 -12.28471054 14.90182457 -12.29790878 13.84456444 C-12.26541001 9.4153285 -12.23472916 6.86556734 -9.88474655 3.02344322 C-6.49253937 -0.03013356 -4.4904089 0.00971341 0 0 Z " fill="#3894FE" transform="translate(11.789119720458984,2.862985610961914)"/>
<path d="M0 0 C2.43336514 -0.01661445 4.86668042 -0.04397557 7.29980469 -0.08203125 C10.823416 -0.13676419 14.34589414 -0.15866138 17.86987305 -0.17333984 C18.95438248 -0.19600922 20.03889191 -0.21867859 21.15626526 -0.24203491 C22.68331337 -0.23775986 22.68331337 -0.23775986 24.24121094 -0.23339844 C25.13054825 -0.24148529 26.01988556 -0.24957214 26.93617249 -0.25790405 C30.76269029 0.62051409 33.38715861 2.1229776 35.5847168 5.35009766 C36.45988901 8.96975582 36.38435438 12.50230778 36.3293457 16.21142578 C36.33664703 17.30627792 36.34394836 18.40113007 36.35147095 19.52915955 C36.36767932 23.14718737 36.34046781 26.76342272 36.3112793 30.38134766 C36.31024203 32.89571125 36.31127768 35.41007649 36.31430054 37.92443848 C36.31412111 43.19364409 36.29394393 48.46238636 36.25708008 53.73144531 C36.21474634 59.8170455 36.20772561 65.90189082 36.220204 71.98760843 C36.23160712 77.84978707 36.22007153 83.71169634 36.1978569 89.57383728 C36.19015577 92.06492546 36.1878553 94.55603634 36.19102859 97.0471344 C36.19176995 100.52811985 36.1665311 104.00795658 36.1340332 107.48876953 C36.13898804 108.51957138 36.14394287 109.55037323 36.14904785 110.6124115 C36.08297649 115.04424098 36.02881919 117.62525214 33.67538452 121.46643066 C30.03773492 124.74391011 27.0781196 124.4896605 22.39682007 124.47035217 C21.64782114 124.4712066 20.89882221 124.47206102 20.12712634 124.47294134 C17.60433959 124.47459526 15.08161857 124.4690762 12.55883789 124.46362305 C10.75561016 124.46334113 8.95238232 124.463499 7.14915466 124.46406555 C2.2423948 124.46435335 -2.66434079 124.45845943 -7.57109499 124.45149159 C-12.69472411 124.44525516 -17.81835375 124.44465403 -22.94198608 124.44346619 C-32.6494415 124.44035373 -42.35688571 124.43214148 -52.06433618 124.4221167 C-63.1137476 124.41095292 -74.16315955 124.40544444 -85.2125752 124.40042126 C-107.94681743 124.38995881 -130.68104969 124.37236101 -153.4152832 124.35009766 C-152.29495946 122.5858299 -151.17414845 120.82187155 -150.0531311 119.05804443 C-149.42903162 118.07570705 -148.80493214 117.09336967 -148.16192055 116.0812645 C-146.25709702 113.10274645 -144.30469482 110.16232206 -142.3137207 107.24072266 C-141.58660889 106.17160645 -140.85949707 105.10249023 -140.11035156 104.00097656 C-139.33703478 102.86732342 -138.56367756 101.73369787 -137.7902832 100.60009766 C-136.54317399 98.76857887 -135.29660295 96.93669462 -134.0500946 95.10476685 C-133.18188018 93.82882402 -132.31348007 92.55300753 -131.44490051 91.27731323 C-128.2385241 86.56631984 -125.04507541 81.84671876 -121.85668945 77.12353516 C-120.92849352 75.74949367 -120.00027103 74.37547011 -119.07202148 73.00146484 C-117.73379313 71.02054683 -116.39605054 69.03931319 -115.0602417 67.0567627 C-96.5390395 39.57264875 -76.90735423 10.48788694 -42.0715332 3.42041016 C-37.86539027 2.63260437 -33.64926937 1.97052335 -29.4152832 1.35009766 C-28.42326904 1.17881348 -27.43125488 1.0075293 -26.40917969 0.83105469 C-17.72275033 -0.39860215 -8.75230403 0.04381777 0 0 Z " fill="#9B9C9C" transform="translate(332.415283203125,2.64990234375)"/>
<path d="M0 0 C2 1 2 1 2 1 Z " fill="#DADADA" transform="translate(111,0)"/>
</svg>
