<?xml version="1.0" encoding="UTF-8"?>
<svg version="1.1" xmlns="http://www.w3.org/2000/svg" width="25" height="25">
<path d="M0 0 C3.45658479 2.04573386 4.7785359 3.66780385 7 7 C7.68090463 12.11470225 7.84702203 16.56882485 5.1875 21.0625 C1.96529661 23.91645157 0.04481696 25.25595485 -4.23046875 25.1953125 C-5.03291016 25.18886719 -5.83535156 25.18242187 -6.66210938 25.17578125 C-7.49548828 25.15902344 -8.32886719 25.14226563 -9.1875 25.125 C-10.03248047 25.11597656 -10.87746094 25.10695313 -11.74804688 25.09765625 C-13.83215243 25.07410703 -15.91611217 25.03823647 -18 25 C-18.10829314 22.10315842 -18.18743954 19.21038981 -18.25 16.3125 C-18.28351562 15.49587891 -18.31703125 14.67925781 -18.3515625 13.83789062 C-18.41761572 9.75910455 -18.36308805 7.58730268 -16.171875 4.04296875 C-11.09037589 -0.73693059 -6.71597039 -0.81614281 0 0 Z M-15.4375 7.8125 C-16.27264767 11.06029649 -15.64032533 13.74016194 -15 17 C-14.938125 17.763125 -14.87625 18.52625 -14.8125 19.3125 C-14.06700124 21.30111696 -14.06700124 21.30111696 -11.375 22.3125 C-6.29241736 23.34784091 -2.69446919 22.92090717 1.875 20.4375 C4.37230524 17.57294399 4.95232461 15.76538908 5.203125 12.03125 C4.85591259 8.55912594 3.25607553 6.5609506 1 4 C-5.05845404 -0.29954803 -11.0738495 2.31050589 -15.4375 7.8125 Z " fill="#000000" transform="translate(18,0)"/>
</svg>
