<?xml version="1.0" encoding="UTF-8"?>
<svg version="1.1" xmlns="http://www.w3.org/2000/svg" width="64" height="64">
<path d="M0 0 C5.74878489 4.38952773 10.86633901 11.51318808 12.05078125 18.75 C12.80065902 29.88752877 12.46271824 39.28401149 5.42578125 48.5 C-0.16912254 54.52308521 -7.32027455 58.43833819 -15.48828125 58.98828125 C-26.20542141 59.27952927 -35.14630209 58.2120695 -43.34765625 50.59375 C-51.3869265 41.33878523 -52.67841391 32.52227501 -52.12841797 20.69873047 C-51.44383799 13.25415642 -47.5350846 6.60212923 -41.94921875 1.75 C-29.18967617 -7.17360414 -13.43737558 -8.61715468 0 0 Z M-41.54296875 11.7265625 C-46.18825471 18.41061285 -47.00464165 24.79373508 -45.94921875 32.75 C-43.22263541 41.636642 -37.50684899 47.0329512 -29.69921875 51.6875 C-22.45783842 53.73922443 -15.57893787 53.88246472 -8.63671875 50.75 C-1.55533722 46.71976035 3.8126822 40.64917313 6.05078125 32.75 C7.11110742 24.3507871 6.02173423 17.69012276 1.05078125 10.75 C-3.868401 5.29567659 -9.25915041 1.34207955 -16.703125 0.40234375 C-27.28674644 -0.12480981 -34.98014648 3.39920782 -41.54296875 11.7265625 Z " fill="#000000" transform="translate(51.94921875,5.25)"/>
<path d="M0 0 C1.02867188 0.19142578 1.02867188 0.19142578 2.078125 0.38671875 C2.390625 2.5546875 2.390625 2.5546875 2.078125 5.38671875 C-0.109375 8.0625 -0.109375 8.0625 -2.921875 10.69921875 C-3.85 11.58222656 -4.778125 12.46523438 -5.734375 13.375 C-6.45625 14.03886719 -7.178125 14.70273437 -7.921875 15.38671875 C-6.08540021 19.72659866 -3.05744188 22.19598896 0.3984375 25.2890625 C2.44613512 27.84630349 2.42258344 29.1921445 2.078125 32.38671875 C0.0390625 32.8046875 0.0390625 32.8046875 -2.921875 32.38671875 C-5.66841013 30.44350278 -7.95063263 28.1006386 -10.296875 25.69921875 C-11.27720703 24.76045898 -11.27720703 24.76045898 -12.27734375 23.80273438 C-16.81957487 19.23659678 -16.81957487 19.23659678 -17.2265625 15.85546875 C-15.27790773 12.16819386 -12.63275315 9.48002587 -9.671875 6.57421875 C-9.09824219 5.97673828 -8.52460938 5.37925781 -7.93359375 4.76367188 C-3.6365472 0.48130772 -3.6365472 0.48130772 0 0 Z " fill="#000000" transform="translate(37.921875,15.61328125)"/>
</svg>
