<?xml version="1.0" encoding="UTF-8"?>
<svg version="1.1" xmlns="http://www.w3.org/2000/svg" width="327" height="327">
<path d="M0 0 C0.94069336 0.45197754 0.94069336 0.45197754 1.90039062 0.91308594 C16.11521304 7.83018541 28.61682087 17.04669923 40 28 C40.52948242 28.49838379 41.05896484 28.99676758 41.60449219 29.51025391 C55.20718065 42.34956533 65.41895786 56.40556554 74 73 C74.31952637 73.61311035 74.63905273 74.2262207 74.96826172 74.85791016 C93.92362726 111.74804393 96.59854697 157.3082732 84.46972656 196.72314453 C81.87067174 204.74871079 78.6889821 212.41861368 75 220 C74.69868164 220.62712891 74.39736328 221.25425781 74.08691406 221.90039062 C67.16981459 236.11521304 57.95330077 248.61682087 47 260 C46.50161621 260.52948242 46.00323242 261.05896484 45.48974609 261.60449219 C32.65043467 275.20718065 18.59443446 285.41895786 2 294 C1.08033447 294.47928955 1.08033447 294.47928955 0.14208984 294.96826172 C-36.74804393 313.92362726 -82.3082732 316.59854697 -121.72314453 304.46972656 C-129.74871079 301.87067174 -137.41861368 298.6889821 -145 295 C-145.94069336 294.54802246 -145.94069336 294.54802246 -146.90039062 294.08691406 C-161.11521304 287.16981459 -173.61682087 277.95330077 -185 267 C-185.52948242 266.50161621 -186.05896484 266.00323242 -186.60449219 265.48974609 C-200.20718065 252.65043467 -210.41895786 238.59443446 -219 222 C-219.31952637 221.38688965 -219.63905273 220.7737793 -219.96826172 220.14208984 C-238.92362726 183.25195607 -241.59854697 137.6917268 -229.46972656 98.27685547 C-226.87067174 90.25128921 -223.6889821 82.58138632 -220 75 C-219.69868164 74.37287109 -219.39736328 73.74574219 -219.08691406 73.09960938 C-212.16981459 58.88478696 -202.95330077 46.38317913 -192 35 C-191.50161621 34.47051758 -191.00323242 33.94103516 -190.48974609 33.39550781 C-177.65043467 19.79281935 -163.59443446 9.58104214 -147 1 C-146.38688965 0.68047363 -145.7737793 0.36094727 -145.14208984 0.03173828 C-100.38185659 -22.96754354 -44.84720913 -21.82193922 0 0 Z M-184 42 C-212.27293289 71.78464977 -226.09931996 111.25043967 -226 152 C-224.7807505 193.2384134 -206.27223259 232.16272172 -176.47998047 260.44287109 C-146.19736536 288.10551887 -106.27910962 302.13175511 -65.390625 300.92285156 C-24.44959641 298.74547543 14.21549809 280.19138396 41.85546875 249.93359375 C69.00510244 219.21664659 82.96716525 178.82969115 80.7890625 137.875 C77.77534968 97.1457934 59.01463421 58.84824431 28.35693359 31.75097656 C-34.39038829 -21.97796694 -126.36659125 -15.89717721 -184 42 Z " fill="#1F387A" transform="translate(236,16)"/>
<path d="M0 0 C0.66019135 0.00215515 1.32038269 0.0043103 2.00057983 0.00653076 C30.78289157 0.15715284 56.21138314 9.91102551 78.25 28.3125 C79.36955078 29.20388672 79.36955078 29.20388672 80.51171875 30.11328125 C86.24342472 34.83152251 90.71368548 40.46640453 95.25 46.3125 C96.25546875 47.54226562 96.25546875 47.54226562 97.28125 48.796875 C112.88789528 68.73869952 119.6735218 94.11272842 119.5625 119.0625 C119.55926727 120.05278702 119.55926727 120.05278702 119.55596924 121.06307983 C119.40534716 149.84539157 109.65147449 175.27388314 91.25 197.3125 C90.65574219 198.05886719 90.06148437 198.80523437 89.44921875 199.57421875 C84.73097749 205.30592472 79.09609547 209.77618548 73.25 214.3125 C72.43015625 214.9828125 71.6103125 215.653125 70.765625 216.34375 C50.82380048 231.95039528 25.44977158 238.7360218 0.5 238.625 C-0.16019135 238.62284485 -0.82038269 238.6206897 -1.50057983 238.61846924 C-30.28289157 238.46784716 -55.71138314 228.71397449 -77.75 210.3125 C-78.49636719 209.71824219 -79.24273437 209.12398437 -80.01171875 208.51171875 C-85.74342472 203.79347749 -90.21368548 198.15859547 -94.75 192.3125 C-95.4203125 191.49265625 -96.090625 190.6728125 -96.78125 189.828125 C-112.38789528 169.88630048 -119.1735218 144.51227158 -119.0625 119.5625 C-119.06034485 118.90230865 -119.0581897 118.24211731 -119.05596924 117.56192017 C-118.90534716 88.77960843 -109.15147449 63.35111686 -90.75 41.3125 C-89.85861328 40.19294922 -89.85861328 40.19294922 -88.94921875 39.05078125 C-84.23097749 33.31907528 -78.59609547 28.84881452 -72.75 24.3125 C-71.93015625 23.6421875 -71.1103125 22.971875 -70.265625 22.28125 C-50.32380048 6.67460472 -24.94977158 -0.1110218 0 0 Z M-74.75 40.3125 C-75.35972656 40.8384375 -75.96945313 41.364375 -76.59765625 41.90625 C-96.72558312 60.55908058 -107.16207506 88.3283309 -108.62670898 115.19970703 C-109.75000826 145.21451249 -98.37385819 172.01598948 -78.75 194.3125 C-78.2240625 194.92222656 -77.698125 195.53195313 -77.15625 196.16015625 C-58.50341942 216.28808312 -30.7341691 226.72457506 -3.86279297 228.18920898 C26.15201249 229.31250826 52.95348948 217.93635819 75.25 198.3125 C75.85972656 197.7865625 76.46945313 197.260625 77.09765625 196.71875 C97.22558312 178.06591942 107.66207506 150.2966691 109.12670898 123.42529297 C110.25000826 93.41048751 98.87385819 66.60901052 79.25 44.3125 C78.46109375 43.39791016 78.46109375 43.39791016 77.65625 42.46484375 C59.00341942 22.33691688 31.2341691 11.90042494 4.36279297 10.43579102 C-25.65201249 9.31249174 -52.45348948 20.68864181 -74.75 40.3125 Z " fill="#4070F4" transform="translate(163.75,44.6875)"/>
</svg>
