<?xml version="1.0" encoding="UTF-8"?>
<svg version="1.1" xmlns="http://www.w3.org/2000/svg" width="32" height="32">
<path d="M0 0 C4.8846525 2.26787438 7.73212562 5.1153475 10 10 C10.75381535 15.5997712 10.77303575 20.33499991 8.375 25.5 C3.80134327 30.3143755 0.6912538 32.25156236 -6 32.5 C-12.6912538 32.25156236 -15.80134327 30.3143755 -20.375 25.5 C-22.77303575 20.33499991 -22.75381535 15.5997712 -22 10 C-17.52212837 0.3553534 -9.85292056 -1.32635469 0 0 Z M-18 9 C-19.87855086 12.75710172 -19.66379578 16.91978738 -19 21 C-16.99988833 24.43403788 -14.57648506 27.21175747 -11 29 C-6.69787555 29.62133059 -2.66604513 29.97036679 1.1796875 27.73046875 C4.25924341 25.10454037 6.70922689 23.01332773 7.30859375 18.86328125 C7.55928861 13.90256166 7.42919359 10.81249103 4.125 6.9375 C0.98123549 3.71020551 -1.18369202 2.79010439 -5.6875 2.5625 C-11.39102947 2.58729795 -14.38333025 4.73078127 -18 9 Z " fill="#FFFFFF" transform="translate(22,0)"/>
<path d="M0 0 C0.66 0 1.32 0 2 0 C2.01417969 0.59167969 2.02835938 1.18335938 2.04296875 1.79296875 C2.31853725 6.35846843 2.53277932 8.44161431 5.5625 12.0625 C6.366875 12.701875 7.17125 13.34125 8 14 C7.67 14.99 7.34 15.98 7 17 C4.10371669 15.7016661 1.9320396 14.54677947 0 12 C-0.29296875 9.08203125 -0.29296875 9.08203125 -0.1875 5.8125 C-0.16042969 4.72582031 -0.13335937 3.63914062 -0.10546875 2.51953125 C-0.07066406 1.68808594 -0.03585937 0.85664062 0 0 Z " fill="#FFFFFF" transform="translate(15,6)"/>
</svg>
