<?xml version="1.0" encoding="UTF-8"?>
<svg version="1.1" xmlns="http://www.w3.org/2000/svg" width="64" height="64">
<path d="M0 0 C5.74878489 4.38952773 10.86633901 11.51318808 12.05078125 18.75 C12.80065902 29.88752877 12.46271824 39.28401149 5.42578125 48.5 C-0.16912254 54.52308521 -7.32027455 58.43833819 -15.48828125 58.98828125 C-26.20542141 59.27952927 -35.14630209 58.2120695 -43.34765625 50.59375 C-51.3869265 41.33878523 -52.67841391 32.52227501 -52.12841797 20.69873047 C-51.44383799 13.25415642 -47.5350846 6.60212923 -41.94921875 1.75 C-29.18967617 -7.17360414 -13.43737558 -8.61715468 0 0 Z M-40.88671875 8.625 C-47.16796069 16.62469493 -48.11986158 23.64194939 -46.94921875 33.75 C-44.34820529 42.636796 -38.48569743 47.93738322 -30.82421875 52.6875 C-23.51823214 55.34574227 -14.53366039 54.92812649 -7.51171875 51.75 C-1.43878795 48.21411595 4.16239156 42.64332575 6.609375 35.91796875 C8.31498456 27.54085986 8.01214185 19.39867866 3.66796875 11.9375 C-0.40637506 6.42631031 -6.05921124 1.15283036 -12.94921875 -0.25 C-24.30087876 -1.48357478 -32.94294018 0.11853711 -40.88671875 8.625 Z " fill="#000000" transform="translate(51.94921875,5.25)"/>
<path d="M0 0 C5.40049736 0.31767632 7.52337065 3.19996327 11 7 C13.88198773 5.82585685 15.30670069 4.67796428 17.5 2.375 C20 0 20 0 24 0 C23.68232368 5.40049736 20.80003673 7.52337065 17 11 C18.17414315 13.88198773 19.32203572 15.30670069 21.625 17.5 C24 20 24 20 24 24 C18.59950264 23.68232368 16.47662935 20.80003673 13 17 C10.11801227 18.17414315 8.69329931 19.32203572 6.5 21.625 C4 24 4 24 0 24 C0.31767632 18.59950264 3.19996327 16.47662935 7 13 C5.82585685 10.11801227 4.67796428 8.69329931 2.375 6.5 C0 4 0 4 0 0 Z " fill="#000000" transform="translate(20,20)"/>
</svg>
