<?xml version="1.0" encoding="UTF-8"?>
<svg version="1.1" xmlns="http://www.w3.org/2000/svg" width="60" height="60">
<path d="M0 0 C1.03447266 0.01160156 1.03447266 0.01160156 2.08984375 0.0234375 C2.77949219 0.01570312 3.46914063 0.00796875 4.1796875 0 C9.33651082 0.02010457 9.33651082 0.02010457 11.58984375 2.2734375 C11.71484375 5.8984375 11.71484375 5.8984375 11.58984375 9.2734375 C12.22792969 9.26183594 12.86601563 9.25023437 13.5234375 9.23828125 C14.34972656 9.22925781 15.17601563 9.22023438 16.02734375 9.2109375 C16.85105469 9.19933594 17.67476562 9.18773437 18.5234375 9.17578125 C20.58984375 9.2734375 20.58984375 9.2734375 21.58984375 10.2734375 C21.74165632 12.03971836 21.81167047 13.81336835 21.83984375 15.5859375 C21.865625 16.55144531 21.89140625 17.51695313 21.91796875 18.51171875 C21.54617602 21.64097426 20.67389171 22.96453173 18.58984375 25.2734375 C16.29689139 24.99205692 14.00548919 24.6980189 11.71484375 24.3984375 C10.43867188 24.23601563 9.1625 24.07359375 7.84765625 23.90625 C4.58984375 23.2734375 4.58984375 23.2734375 2.58984375 21.2734375 C2.46484375 18.1484375 2.46484375 18.1484375 2.58984375 15.2734375 C-0.87515625 16.7584375 -0.87515625 16.7584375 -4.41015625 18.2734375 C-7.46995885 14.93106737 -7.79413004 12.62379659 -7.72265625 8.1484375 C-7.71878906 7.09398437 -7.71492187 6.03953125 -7.7109375 4.953125 C-7.14145972 -0.12040428 -4.53254555 0.01767074 0 0 Z M-4.41015625 3.2734375 C-4.41015625 6.2434375 -4.41015625 9.2134375 -4.41015625 12.2734375 C-1.71249997 13.62226564 -0.25851291 13.07682015 2.58984375 12.2734375 C2.91984375 11.6134375 3.24984375 10.9534375 3.58984375 10.2734375 C6.15234375 9.6484375 6.15234375 9.6484375 8.58984375 9.2734375 C8.58984375 7.2934375 8.58984375 5.3134375 8.58984375 3.2734375 C4.29984375 3.2734375 0.00984375 3.2734375 -4.41015625 3.2734375 Z M5.58984375 12.2734375 C5.51836176 13.62587667 5.50584921 14.98178117 5.52734375 16.3359375 C5.54796875 17.6353125 5.56859375 18.9346875 5.58984375 20.2734375 C9.87984375 20.2734375 14.16984375 20.2734375 18.58984375 20.2734375 C18.61046875 18.9740625 18.63109375 17.6746875 18.65234375 16.3359375 C18.66394531 15.60503906 18.67554688 14.87414062 18.6875 14.12109375 C18.79545559 12.25611609 18.79545559 12.25611609 17.58984375 11.2734375 C15.75868492 11.17492579 13.92364442 11.14371121 12.08984375 11.1484375 C10.589375 11.14457031 10.589375 11.14457031 9.05859375 11.140625 C6.64584753 10.99473368 6.64584753 10.99473368 5.58984375 12.2734375 Z " fill="#6EADFF" transform="translate(20.41015625,3.7265625)"/>
<path d="M0 0 C3.3020291 1.62204938 5.17219129 2.90879761 7.375 5.8125 C8 8 8 8 8 15 C-0.91 15 -9.82 15 -19 15 C-19 6.77777778 -19 6.77777778 -15 2 C-10.36881133 -0.93709584 -5.29474394 -0.62831983 0 0 Z M-14.9375 6.4375 C-16.37487335 8.23636316 -16.37487335 8.23636316 -16 12 C-9.07 12 -2.14 12 5 12 C4.49691893 7.08089378 4.49691893 7.08089378 1.75 4.75 C-4.49208139 0.77776639 -9.03052065 2.05490242 -14.9375 6.4375 Z " fill="#6FAEFF" transform="translate(52,41)"/>
<path d="M0 0 C3.3020291 1.62204938 5.17219129 2.90879761 7.375 5.8125 C8 8 8 8 8 15 C-0.91 15 -9.82 15 -19 15 C-19 7 -19 7 -17.25 4.125 C-12.11515612 -0.72457478 -6.81100794 -0.80825275 0 0 Z M-14.9375 6.4375 C-16.37487335 8.23636316 -16.37487335 8.23636316 -16 12 C-9.07 12 -2.14 12 5 12 C4.49691893 7.08089378 4.49691893 7.08089378 1.75 4.75 C-4.49208139 0.77776639 -9.03052065 2.05490242 -14.9375 6.4375 Z " fill="#6DAEFF" transform="translate(19,41)"/>
<path d="M0 0 C2 2 2 2 2.375 5.9375 C2.28635216 8.80551846 2.21085143 9.72167611 0.4375 12.0625 C-3.0211441 13.39274773 -5.4440159 12.85607025 -9 12 C-11 10 -11 10 -11.375 6.0625 C-11.28635216 3.19448154 -11.21085143 2.27832389 -9.4375 -0.0625 C-5.9788559 -1.39274773 -3.5559841 -0.85607025 0 0 Z M-7 2 C-8.12516085 3.83284443 -8.12516085 3.83284443 -9 6 C-8.67 6.99 -8.34 7.98 -8 9 C-4.41672247 10.00217064 -4.41672247 10.00217064 -1 9 C-0.83312552 6.58354218 -0.83312552 6.58354218 -1 4 C-1.66 3.34 -2.32 2.68 -3 2 C-4.32 2 -5.64 2 -7 2 Z " fill="#6DB0FF" transform="translate(18,27)"/>
<path d="M0 0 C2 2 2 2 2.3125 5.9375 C2.2339218 8.48435809 2.13665953 9.75704973 0.875 12 C-1.91029546 13.48549091 -3.89252511 13.38050713 -7 13 C-9.375 12 -9.375 12 -11 10 C-11.56669256 7.22436297 -11.559876 4.77629231 -11 2 C-7.93817059 -2.04161482 -4.56939437 -1.10003939 0 0 Z M-8 3 C-8.04080783 4.99958364 -8.04254356 7.00045254 -8 9 C-5.65466049 9.76956136 -5.65466049 9.76956136 -3 10 C-1.1645201 8.66621425 -1.1645201 8.66621425 0 7 C-0.66 5.35 -1.32 3.7 -2 2 C-5.28930404 1.63314303 -5.28930404 1.63314303 -8 3 Z " fill="#6BB1FF" transform="translate(51,27)"/>
<path d="M0 0 C2.31 0 4.62 0 7 0 C7 0.99 7 1.98 7 3 C4.69 3 2.38 3 0 3 C0 2.01 0 1.02 0 0 Z " fill="#6CAFFF" transform="translate(29,20)"/>
<path d="M0 0 C2.31 0 4.62 0 7 0 C7 0.99 7 1.98 7 3 C4.69 3 2.38 3 0 3 C0 2.01 0 1.02 0 0 Z " fill="#74B3FF" transform="translate(29,16)"/>
</svg>
