<?xml version="1.0" encoding="UTF-8"?>
<svg version="1.1" xmlns="http://www.w3.org/2000/svg" width="80" height="80">
<path d="M0 0 C0.78761719 0.44730469 1.57523438 0.89460937 2.38671875 1.35546875 C11.30433941 6.85343984 17.61159767 14.70675848 20.54638672 24.8972168 C22.65910063 34.69097619 22.06290176 46.30058676 17 55 C16.55269531 55.78761719 16.10539062 56.57523438 15.64453125 57.38671875 C10.14656016 66.30433941 2.29324152 72.61159767 -7.8972168 75.54638672 C-17.69097619 77.65910063 -29.30058676 77.06290176 -38 72 C-38.78761719 71.55269531 -39.57523438 71.10539062 -40.38671875 70.64453125 C-49.30433941 65.14656016 -55.61159767 57.29324152 -58.54638672 47.1027832 C-60.65910063 37.30902381 -60.06290176 25.69941324 -55 17 C-54.55269531 16.21238281 -54.10539062 15.42476562 -53.64453125 14.61328125 C-48.14656016 5.69566059 -40.29324152 -0.61159767 -30.1027832 -3.54638672 C-20.30902381 -5.65910063 -8.69941324 -5.06290176 0 0 Z " fill="#E2DDCD" transform="translate(59,4)"/>
<path d="M0 0 C4.82901854 1.01264725 9.62214875 2.22783347 13 6 C15.55730614 12.58945355 15.7360601 19.99953037 16 27 C15.505 26.01 15.505 26.01 15 25 C14.34 25 13.68 25 13 25 C13 24.01 13 23.02 13 22 C11.21858253 21.13641377 11.21858253 21.13641377 9 21 C6.22666082 23.21867135 5.13126558 24.60620325 4 28 C-2.435 28.495 -2.435 28.495 -9 29 C-7.411875 29.61875 -5.82375 30.2375 -4.1875 30.875 C-1.13825324 32.06301822 1.25906335 33.1727089 4 35 C5.9896995 35.39013716 7.99019869 35.73202649 10 36 C10.495 41.445 10.495 41.445 11 47 C0.52058802 49.61985299 -11.46301601 49.30068976 -21 44 C-21.66 43.67 -22.32 43.34 -23 43 C-22.505 40.03 -22.505 40.03 -22 37 C-15.73 37 -9.46 37 -3 37 C-3 36.34 -3 35.68 -3 35 C-5.97 34.01 -8.94 33.02 -12 32 C-12.33 30.35 -12.66 28.7 -13 27 C-14.65 27 -16.3 27 -18 27 C-18 26.34 -18 25.68 -18 25 C-20.64 25 -23.28 25 -26 25 C-26.33 25.66 -26.66 26.32 -27 27 C-27.34615385 8.92307692 -27.34615385 8.92307692 -24.25 4.5 C-20.85620629 2.23747086 -18.45918186 0.89819661 -14.3125 1.1875 C-12 2 -12 2 -10 5 C-6.54250051 5.66676878 -6.54250051 5.66676878 -3 5 C-1.25120007 2.53898844 -1.25120007 2.53898844 0 0 Z " fill="#211D1E" transform="translate(42,32)"/>
<path d="M0 0 C3.3 0 6.6 0 10 0 C10 2.31 10 4.62 10 7 C10.66 7 11.32 7 12 7 C12 5.02 12 3.04 12 1 C13.98 0.67 15.96 0.34 18 0 C17.7834375 1.2684375 17.7834375 1.2684375 17.5625 2.5625 C16.54346733 8.78992186 15.7525665 14.69044585 16 21 C18.64 21 21.28 21 24 21 C24 21.66 24 22.32 24 23 C25.65 23 27.3 23 29 23 C29.07089844 23.61359375 29.14179688 24.2271875 29.21484375 24.859375 C29.8150121 27.18068448 29.8150121 27.18068448 32.06640625 28.265625 C32.89011719 28.59046875 33.71382812 28.9153125 34.5625 29.25 C35.38878906 29.58515625 36.21507812 29.9203125 37.06640625 30.265625 C37.70449219 30.50796875 38.34257813 30.7503125 39 31 C39 31.66 39 32.32 39 33 C32.73 33 26.46 33 20 33 C19.67 34.65 19.34 36.3 19 38 C10.09445054 33.82978647 4.74073635 26.83606766 1.1875 17.8125 C-0.62839117 11.9975676 -0.25137743 6.02374801 0 0 Z " fill="#D6D5CC" transform="translate(0,36)"/>
<path d="M0 0 C1.875 1.125 1.875 1.125 3 3 C3.75178998 6.75894991 4 10.16374332 4 14 C3.01 15.485 3.01 15.485 2 17 C5.96 17 9.92 17 14 17 C14 20.96 14 24.92 14 29 C10.37 27.35 6.74 25.7 3 24 C2.2265625 25.2375 2.2265625 25.2375 1.4375 26.5 C-1 29 -1 29 -4.5 29.6875 C-8 29 -8 29 -10.4375 26 C-10.953125 25.01 -11.46875 24.02 -12 23 C-11.34 23 -10.68 23 -10 23 C-10.495 21.39125 -10.495 21.39125 -11 19.75 C-12.35539085 14.29918356 -12.76756113 8.57100817 -12 3 C-8.47197929 -1.53602663 -5.40714231 -1.13834575 0 0 Z " fill="#E3C1AC" transform="translate(40,9)"/>
<path d="M0 0 C1.32 0.66 2.64 1.32 4 2 C4 2.99 4 3.98 4 5 C5.65 5 7.3 5 9 5 C9 4.34 9 3.68 9 3 C9.66 3 10.32 3 11 3 C11 3.66 11 4.32 11 5 C11.66 5.33 12.32 5.66 13 6 C12.34 6 11.68 6 11 6 C11.33 7.98 11.66 9.96 12 12 C11.34 12 10.68 12 10 12 C10 15.63 10 19.26 10 23 C4.375 26 4.375 26 1 26 C1 22.7 1 19.4 1 16 C-2.3 15.67 -5.6 15.34 -9 15 C-9 14.34 -9 13.68 -9 13 C-12.3 12.01 -15.6 11.02 -19 10 C-18.67 9.34 -18.34 8.68 -18 8 C-13.71 8 -9.42 8 -5 8 C-4.67 6.35 -4.34 4.7 -4 3 C-1.9375 1.1875 -1.9375 1.1875 0 0 Z " fill="#8DA772" transform="translate(51,52)"/>
<path d="M0 0 C0.66 0.99 1.32 1.98 2 3 C2.99 3.33 3.98 3.66 5 4 C4.67 4.99 4.34 5.98 4 7 C4 7.66 4 8.32 4 9 C4 9.99 4 10.98 4 12 C3.34 12 2.68 12 2 12 C1.67 11.01 1.34 10.02 1 9 C0.71125 9.969375 0.4225 10.93875 0.125 11.9375 C-1 15 -1 15 -3 16 C-1.88820837 19.33537489 -0.52588702 20.63707344 2 23 C-0.90600261 24.25664978 -2.79604584 25 -6 25 C-6 24.34 -6 23.68 -6 23 C-8.64 23 -11.28 23 -14 23 C-14.33 23.66 -14.66 24.32 -15 25 C-15.34615385 6.92307692 -15.34615385 6.92307692 -12.25 2.5 C-8.01572347 -0.32285102 -4.99723419 -1.75578499 0 0 Z " fill="#272224" transform="translate(30,34)"/>
<path d="M0 0 C0.99 0 1.98 0 3 0 C5.72979152 6.14203091 6.30174284 11.55167734 6.3125 18.1875 C6.31765625 18.9594873 6.3228125 19.73147461 6.328125 20.52685547 C6.26344766 25.88698998 5.94354694 30.85539648 2.1875 35 C0 36 0 36 -2.63671875 35.0625 C-3.80654297 34.5365625 -3.80654297 34.5365625 -5 34 C-5.02902168 29.58334712 -5.04680608 25.16671877 -5.0625 20.75 C-5.07087891 19.49574219 -5.07925781 18.24148437 -5.08789062 16.94921875 C-5.09111328 15.74394531 -5.09433594 14.53867187 -5.09765625 13.296875 C-5.10289307 12.18666992 -5.10812988 11.07646484 -5.11352539 9.93261719 C-5.01658493 7.42842621 -4.73230276 5.3818844 -4 3 C-2.68 3 -1.36 3 0 3 C0 2.01 0 1.02 0 0 Z " fill="#E3E5DD" transform="translate(74,22)"/>
<path d="M0 0 C0 3.3 0 6.6 0 10 C-5.97304573 12.98652286 -16.98020503 11.77611553 -23.34375 10.140625 C-25.65158763 9.20391443 -27.82470673 8.20903577 -30 7 C-30.66 6.67 -31.32 6.34 -32 6 C-31.67 4.02 -31.34 2.04 -31 0 C-10.06833713 -1.33257403 -10.06833713 -1.33257403 0 0 Z " fill="#1F1C1E" transform="translate(51,69)"/>
<path d="M0 0 C0 0.66 0 1.32 0 2 C-0.66 2 -1.32 2 -2 2 C-2 2.99 -2 3.98 -2 5 C-3.32 5 -4.64 5 -6 5 C-6 15.23 -6 25.46 -6 36 C-4.68 36.33 -3.36 36.66 -2 37 C-1.01 36.34 -0.02 35.68 1 35 C-0.45104555 42.4576992 -5.80170743 48.28114874 -11.484375 53.00390625 C-13 54 -13 54 -15 54 C-15.02688151 52.35425434 -15.04634123 50.70838587 -15.0625 49.0625 C-15.07410156 48.14597656 -15.08570313 47.22945312 -15.09765625 46.28515625 C-15 44 -15 44 -14 43 C-13.92851801 41.64756083 -13.91600546 40.29165633 -13.9375 38.9375 C-13.958125 37.638125 -13.97875 36.33875 -14 35 C-14.66 35 -15.32 35 -16 35 C-16 35.66 -16 36.32 -16 37 C-16.99 36.67 -17.98 36.34 -19 36 C-19 35.01 -19 34.02 -19 33 C-12.375 33.75 -12.375 33.75 -9 36 C-8.67 24.78 -8.34 13.56 -8 2 C-2 0 -2 0 0 0 Z " fill="#C7DAB0" transform="translate(76,20)"/>
<path d="M0 0 C3.60296594 -0.41176754 4.78402067 -0.1535853 7.8125 2 C8.534375 2.66 9.25625 3.32 10 4 C8.64845995 8.42322197 6.90273896 10.51643884 3 13 C-0.3125 13.75 -0.3125 13.75 -3 14 C-2.31292969 14.26554687 -1.62585937 14.53109375 -0.91796875 14.8046875 C-0.01691406 15.15789063 0.88414063 15.51109375 1.8125 15.875 C2.70582031 16.22304688 3.59914063 16.57109375 4.51953125 16.9296875 C7 18 7 18 10 20 C11.9896995 20.39013716 13.99019869 20.73202649 16 21 C16.33 24.63 16.66 28.26 17 32 C16.34 32 15.68 32 15 32 C15 28.7 15 25.4 15 22 C11.04 22 7.08 22 3 22 C3 21.34 3 20.68 3 20 C0.03 19.01 -2.94 18.02 -6 17 C-6.12375 16.195625 -6.2475 15.39125 -6.375 14.5625 C-6.684375 13.2940625 -6.684375 13.2940625 -7 12 C-7.66 11.67 -8.32 11.34 -9 11 C-7.68 10.34 -6.36 9.68 -5 9 C-6.65 7.68 -8.3 6.36 -10 5 C-9.67 4.01 -9.34 3.02 -9 2 C-5.9168649 3.19899698 -2.93720508 4.47700477 0 6 C0 4.02 0 2.04 0 0 Z " fill="#1C2425" transform="translate(36,47)"/>
<path d="M0 0 C2.64 0 5.28 0 8 0 C8 0.66 8 1.32 8 2 C9.65 2 11.3 2 13 2 C13.07089844 2.61359375 13.14179688 3.2271875 13.21484375 3.859375 C13.8150121 6.18068448 13.8150121 6.18068448 16.06640625 7.265625 C16.89011719 7.59046875 17.71382812 7.9153125 18.5625 8.25 C19.38878906 8.58515625 20.21507813 8.9203125 21.06640625 9.265625 C21.70449219 9.50796875 22.34257813 9.7503125 23 10 C23 10.66 23 11.32 23 12 C16.73 12 10.46 12 4 12 C3.67 12.99 3.34 13.98 3 15 C2.491217 13.44033782 1.99336531 11.87710759 1.5 10.3125 C1.2215625 9.44238281 0.943125 8.57226562 0.65625 7.67578125 C0.00149195 5.00608323 -0.11831495 2.73603316 0 0 Z " fill="#BD8D73" transform="translate(16,57)"/>
<path d="M0 0 C2 1.3125 2 1.3125 3 3 C2.6875 5.1875 2.6875 5.1875 2 7 C1.34 6.01 0.68 5.02 0 4 C-1.4800841 4.11362262 -2.95910074 4.24122908 -4.4375 4.375 C-5.26121094 4.44460937 -6.08492187 4.51421875 -6.93359375 4.5859375 C-7.61550781 4.72257813 -8.29742188 4.85921875 -9 5 C-9.33 5.66 -9.66 6.32 -10 7 C-6.7 7 -3.4 7 0 7 C0 7.99 0 8.98 0 10 C-0.721875 9.979375 -1.44375 9.95875 -2.1875 9.9375 C-4.91925138 9.99820559 -7.34256091 10.39258535 -10 11 C-10 11.99 -10 12.98 -10 14 C-9.34 13.34 -8.68 12.68 -8 12 C-4.375 12.375 -4.375 12.375 -1 13 C-1.33 13.66 -1.66 14.32 -2 15 C-3.32 15 -4.64 15 -6 15 C-3.69 15.33 -1.38 15.66 1 16 C0.3125 17.9375 0.3125 17.9375 -1 20 C-3.3125 21 -3.3125 21 -6 21 C-8.69558448 19.22336478 -10.54642223 17.90715555 -12 15 C-12.14779962 13.0246012 -12.22118966 11.04321076 -12.25 9.0625 C-12.27578125 8.00160156 -12.3015625 6.94070312 -12.328125 5.84765625 C-12 3 -12 3 -10.609375 1.18359375 C-6.89286065 -1.54966802 -4.45115605 -0.93708548 0 0 Z " fill="#745742" transform="translate(40,9)"/>
<path d="M0 0 C2.97 1.32 5.94 2.64 9 4 C5 6 5 6 4 6 C3.67 7.65 3.34 9.3 3 11 C2.34 10.34 1.68 9.68 1 9 C0.34 10.98 -0.32 12.96 -1 15 C-2.65 15 -4.3 15 -6 15 C-6 16.98 -6 18.96 -6 21 C-8.96175123 20.38722388 -10.38058783 19.74627478 -13 18 C-12.67 15.36 -12.34 12.72 -12 10 C-11.34 10.33 -10.68 10.66 -10 11 C-10 11.99 -10 12.98 -10 14 C-9.34 14 -8.68 14 -8 14 C-8.66 12.02 -9.32 10.04 -10 8 C-9.34 8 -8.68 8 -8 8 C-7.67 7.34 -7.34 6.68 -7 6 C-6.195625 5.71125 -5.39125 5.4225 -4.5625 5.125 C-1.52611282 4.11756147 -1.52611282 4.11756147 0 0 Z " fill="#2A2021" transform="translate(42,32)"/>
<path d="M0 0 C3 1 3 1 5 4 C5.99 4.33 6.98 4.66 8 5 C7.67 5.99 7.34 6.98 7 8 C7 8.66 7 9.32 7 10 C7 10.99 7 11.98 7 13 C6.34 13 5.68 13 5 13 C4.67 12.01 4.34 11.02 4 10 C3.71125 10.969375 3.4225 11.93875 3.125 12.9375 C2 16 2 16 0 17 C1.11179163 20.33537489 2.47411298 21.63707344 5 24 C2.09399739 25.25664978 0.20395416 26 -3 26 C-3.33 21.38 -3.66 16.76 -4 12 C-3.67 12 -3.34 12 -3 12 C-2.95101563 11.38511719 -2.90203125 10.77023438 -2.8515625 10.13671875 C-2.77679687 9.32847656 -2.70203125 8.52023438 -2.625 7.6875 C-2.55539063 6.88699219 -2.48578125 6.08648437 -2.4140625 5.26171875 C-2 3 -2 3 0 0 Z " fill="#221B1B" transform="translate(27,33)"/>
<path d="M0 0 C0.66 0.33 1.32 0.66 2 1 C1.34 1.66 0.68 2.32 0 3 C0.33 3.99 0.66 4.98 1 6 C0.34 6 -0.32 6 -1 6 C-1 6.99 -1 7.98 -1 9 C-0.34 9 0.32 9 1 9 C0.979375 9.804375 0.95875 10.60875 0.9375 11.4375 C0.70366379 13.93354885 0.70366379 13.93354885 2 15 C2.07226502 16.85287502 2.0838122 18.70833878 2.0625 20.5625 C2.05347656 21.57441406 2.04445313 22.58632812 2.03515625 23.62890625 C2.02355469 24.41136719 2.01195313 25.19382812 2 26 C1.67 26 1.34 26 1 26 C1 22.7 1 19.4 1 16 C-2.3 15.67 -5.6 15.34 -9 15 C-9 14.34 -9 13.68 -9 13 C-12.3 12.01 -15.6 11.02 -19 10 C-18.67 9.34 -18.34 8.68 -18 8 C-13.71 8 -9.42 8 -5 8 C-4.67 6.35 -4.34 4.7 -4 3 C-1.9375 1.1875 -1.9375 1.1875 0 0 Z " fill="#A97B60" transform="translate(51,52)"/>
<path d="M0 0 C3.22286562 0.70745831 3.67360817 1.63743154 5.5 4.3125 C6.83984375 6.421875 6.83984375 6.421875 7.5625 8.5625 C6.75390625 10.703125 6.75390625 10.703125 5.5625 12.5625 C5.2325 13.2225 4.9025 13.8825 4.5625 14.5625 C8.5225 14.5625 12.4825 14.5625 16.5625 14.5625 C16.5625 14.8925 16.5625 15.2225 16.5625 15.5625 C2.38917294 15.94613893 2.38917294 15.94613893 -3.4375 13.5625 C-3.7675 12.9025 -4.0975 12.2425 -4.4375 11.5625 C-3.633125 11.583125 -2.82875 11.60375 -2 11.625 C0.49604885 11.85883621 0.49604885 11.85883621 1.5625 10.5625 C-1.85406024 10.39572718 -1.85406024 10.39572718 -5.4375 10.5625 C-6.0975 11.2225 -6.7575 11.8825 -7.4375 12.5625 C-8.4375 11.5625 -8.4375 11.5625 -8.5 8.5 C-8.479375 7.530625 -8.45875 6.56125 -8.4375 5.5625 C-8.1075 6.5525 -7.7775 7.5425 -7.4375 8.5625 C-6.07625 8.0365625 -6.07625 8.0365625 -4.6875 7.5 C-1.55991564 6.59781221 -0.38541919 6.42868493 2.5625 7.5625 C2.5625 6.5725 2.5625 5.5825 2.5625 4.5625 C-0.7375 4.5625 -4.0375 4.5625 -7.4375 4.5625 C-7.1075 3.5725 -6.7775 2.5825 -6.4375 1.5625 C-4.33244259 0.73551316 -2.20620992 0.50912537 0 0 Z " fill="#E3C5B6" transform="translate(37.4375,11.4375)"/>
<path d="M0 0 C4.29 0 8.58 0 13 0 C13 3.63 13 7.26 13 11 C11.01071167 10.12687345 9.03373183 9.22566107 7.0625 8.3125 C5.96035156 7.81363281 4.85820313 7.31476562 3.72265625 6.80078125 C2.82417969 6.20652344 1.92570312 5.61226562 1 5 C0.67 3.35 0.34 1.7 0 0 Z " fill="#928465" transform="translate(41,27)"/>
<path d="M0 0 C0.66 0 1.32 0 2 0 C2.33 1.32 2.66 2.64 3 4 C3.66 4 4.32 4 5 4 C5.65999671 9.27997369 4.09055595 11.98030807 1.19140625 16.16796875 C-0.17215496 18.09629865 -0.17215496 18.09629865 -1 21 C-3.31 21 -5.62 21 -8 21 C-7.05125 20.13375 -6.1025 19.2675 -5.125 18.375 C-0.5565622 13.17085977 -0.53476267 6.64765317 0 0 Z " fill="#12110C" transform="translate(47,39)"/>
<path d="M0 0 C2.97 0.33 5.94 0.66 9 1 C8.01 1.66 7.02 2.32 6 3 C6.68707031 3.26554687 7.37414063 3.53109375 8.08203125 3.8046875 C9.43361328 4.33449219 9.43361328 4.33449219 10.8125 4.875 C11.70582031 5.22304688 12.59914063 5.57109375 13.51953125 5.9296875 C16 7 16 7 19 9 C20.9896995 9.39013716 22.99019869 9.73202649 25 10 C25.33 13.63 25.66 17.26 26 21 C25.34 21 24.68 21 24 21 C24 17.7 24 14.4 24 11 C20.04 11 16.08 11 12 11 C12 10.34 12 9.68 12 9 C9.03 8.01 6.06 7.02 3 6 C2.87625 5.195625 2.7525 4.39125 2.625 3.5625 C2.315625 2.2940625 2.315625 2.2940625 2 1 C1.34 0.67 0.68 0.34 0 0 Z " fill="#845F42" transform="translate(27,58)"/>
<path d="M0 0 C3.3 0 6.6 0 10 0 C10 2.64 10 5.28 10 8 C6.7 8 3.4 8 0 8 C0 5.36 0 2.72 0 0 Z " fill="#899187" transform="translate(0,36)"/>
<path d="M0 0 C1.32 0.66 2.64 1.32 4 2 C4 2.99 4 3.98 4 5 C4.66 5 5.32 5 6 5 C6.3125 7.75 6.3125 7.75 6 11 C3.625 13.375 3.625 13.375 1 15 C0.34 15 -0.32 15 -1 15 C-1.18451025 4.44191344 -1.18451025 4.44191344 0 0 Z " fill="#D4E3CD" transform="translate(62,59)"/>
<path d="M0 0 C1.65 0 3.3 0 5 0 C5 0.99 5 1.98 5 3 C5.66 3 6.32 3 7 3 C7 3.66 7 4.32 7 5 C7.66 5 8.32 5 9 5 C9 5.99 9 6.98 9 8 C8.01 8.66 7.02 9.32 6 10 C4.79549696 12.55183404 4.79549696 12.55183404 4 15 C2.4375 13.8125 2.4375 13.8125 1 12 C1.3125 9.3125 1.3125 9.3125 2 7 C1.34 7 0.68 7 0 7 C0.2784375 6.1028125 0.2784375 6.1028125 0.5625 5.1875 C1.22093687 2.83591238 1.22093687 2.83591238 0 0 Z " fill="#BE9479" transform="translate(50,54)"/>
<path d="M0 0 C0.33 0 0.66 0 1 0 C1 10.23 1 20.46 1 31 C0.01 30.67 -0.98 30.34 -2 30 C-1.88182083 26.04878772 -1.75757767 22.09781771 -1.62768555 18.14697266 C-1.56301749 16.14105193 -1.50316894 14.13497772 -1.44335938 12.12890625 C-1.40146484 10.87207031 -1.35957031 9.61523438 -1.31640625 8.3203125 C-1.26141968 6.57645264 -1.26141968 6.57645264 -1.20532227 4.79736328 C-1 2 -1 2 0 0 Z " fill="#8F937A" transform="translate(13,39)"/>
<path d="M0 0 C0 0.66 0 1.32 0 2 C-0.66 2 -1.32 2 -2 2 C-2 2.99 -2 3.98 -2 5 C-3.32 5 -4.64 5 -6 5 C-6.33 15.23 -6.66 25.46 -7 36 C-7.33 36 -7.66 36 -8 36 C-8 24.78 -8 13.56 -8 2 C-2 0 -2 0 0 0 Z " fill="#CFD0BB" transform="translate(76,20)"/>
<path d="M0 0 C2 1.3125 2 1.3125 3 3 C2.6875 5.1875 2.6875 5.1875 2 7 C1.34 6.01 0.68 5.02 0 4 C-1.43791516 4.14168137 -2.8753237 4.28851043 -4.3125 4.4375 C-5.11300781 4.51871094 -5.91351563 4.59992187 -6.73828125 4.68359375 C-9.16087179 4.95265693 -9.16087179 4.95265693 -12 6 C-11.52 1.44 -11.52 1.44 -9.375 -0.375 C-5.96445536 -1.27251175 -3.40788319 -0.80549966 0 0 Z " fill="#433B31" transform="translate(40,9)"/>
<path d="M0 0 C0.33 0 0.66 0 1 0 C1.01417969 0.59167969 1.02835938 1.18335938 1.04296875 1.79296875 C1.31853725 6.35846843 1.53277932 8.44161431 4.5625 12.0625 C5.366875 12.701875 6.17125 13.34125 7 14 C4.09399739 15.25664978 2.20395416 16 -1 16 C-1.22127098 13.70954632 -1.4266504 11.41755236 -1.625 9.125 C-1.74101562 7.84882812 -1.85703125 6.57265625 -1.9765625 5.2578125 C-1.98816406 3.64519531 -1.98816406 3.64519531 -2 2 C-1.34 1.34 -0.68 0.68 0 0 Z " fill="#0F0D0C" transform="translate(25,43)"/>
<path d="M0 0 C0.99 0.33 1.98 0.66 3 1 C3 3.64 3 6.28 3 9 C1.02 9.66 -0.96 10.32 -3 11 C-3.36923077 3.49230769 -3.36923077 3.49230769 -1.5 1 C-1.005 0.67 -0.51 0.34 0 0 Z " fill="#B4BCA1" transform="translate(56,67)"/>
<path d="M0 0 C3.35595828 0.59927826 5.37801226 1.84622436 8 4 C7.00269864 6.4932534 6.34925469 7.77467439 4.0625 9.25 C2 10 2 10 -1 10 C-0.625 8.0625 -0.625 8.0625 0 6 C0.66 5.67 1.32 5.34 2 5 C1.34 4.34 0.68 3.68 0 3 C0 2.01 0 1.02 0 0 Z " fill="#139978" transform="translate(38,47)"/>
<path d="M0 0 C1.98 0.99 3.96 1.98 6 3 C6 4.98 6 6.96 6 9 C5.34 9 4.68 9 4 9 C4 9.66 4 10.32 4 11 C1.37812506 9.95125002 0.20628639 9.35068687 -1.25 6.875 C-1.4975 6.25625 -1.745 5.6375 -2 5 C-1.34 5 -0.68 5 0 5 C0 3.35 0 1.7 0 0 Z " fill="#B08668" transform="translate(30,27)"/>
<path d="M0 0 C0.99 1.32 1.98 2.64 3 4 C2 6 1 8 0 10 C3.96 10 7.92 10 12 10 C12 10.33 12 10.66 12 11 C-2.17332706 11.38363893 -2.17332706 11.38363893 -8 9 C-8.33 8.34 -8.66 7.68 -9 7 C-7.824375 7.0309375 -7.824375 7.0309375 -6.625 7.0625 C-4.01885039 7.18684063 -4.01885039 7.18684063 -2 6 C-1.34 6.33 -0.68 6.66 0 7 C0 4.69 0 2.38 0 0 Z " fill="#BDA18C" transform="translate(42,16)"/>
<path d="M0 0 C0.99 0.33 1.98 0.66 3 1 C3.99 7.93 4.98 14.86 6 22 C5.67 21.34 5.34 20.68 5 20 C4.34 20 3.68 20 3 20 C3 19.01 3 18.02 3 17 C2.01 16.67 1.02 16.34 0 16 C0.66 16 1.32 16 2 16 C1.85764543 14.27054347 1.71095618 12.54144346 1.5625 10.8125 C1.48128906 9.84957031 1.40007813 8.88664062 1.31640625 7.89453125 C1.02333849 5.21350398 0.57296246 2.6337014 0 0 Z " fill="#3E4551" transform="translate(52,37)"/>
<path d="M0 0 C2.97 1.32 5.94 2.64 9 4 C5 6 5 6 4 6 C3.67 7.65 3.34 9.3 3 11 C-0.34152484 8.77231678 -1.00449408 7.80102261 -2 4 C-1.34 2.68 -0.68 1.36 0 0 Z " fill="#2A292E" transform="translate(42,32)"/>
<path d="M0 0 C0.33 0 0.66 0 1 0 C1.33 5.94 1.66 11.88 2 18 C2.33 18 2.66 18 3 18 C3.6875 21.3125 3.6875 21.3125 4 25 C2.5625 26.9375 2.5625 26.9375 1 28 C0 27 0 27 -0.11352539 24.40795898 C-0.10828857 23.28204346 -0.10305176 22.15612793 -0.09765625 20.99609375 C-0.09443359 19.78115234 -0.09121094 18.56621094 -0.08789062 17.31445312 C-0.07951172 16.03505859 -0.07113281 14.75566406 -0.0625 13.4375 C-0.05798828 12.15423828 -0.05347656 10.87097656 -0.04882812 9.54882812 C-0.03699545 6.36583978 -0.02051068 3.18294238 0 0 Z " fill="#D8DCCF" transform="translate(69,29)"/>
<path d="M0 0 C0.5465625 0.32613281 1.093125 0.65226562 1.65625 0.98828125 C4.44289694 2.19118385 6.47487434 2.23320932 9.5 2.1875 C10.4384375 2.18105469 11.376875 2.17460938 12.34375 2.16796875 C14.95176984 2.08703511 14.95176984 2.08703511 17.21875 1.42578125 C19 1 19 1 21 2 C21 2.66 21 3.32 21 4 C14.73 4 8.46 4 2 4 C1.67 4.99 1.34 5.98 1 7 C0.67 4.69 0.34 2.38 0 0 Z " fill="#A57659" transform="translate(18,65)"/>
<path d="M0 0 C2.97 0.33 5.94 0.66 9 1 C7.68 2.32 6.36 3.64 5 5 C5.928125 5.268125 6.85625 5.53625 7.8125 5.8125 C10.76240366 6.91148371 12.05615186 7.62418561 14 10 C13.01 10.495 13.01 10.495 12 11 C12 10.34 12 9.68 12 9 C9.03 8.01 6.06 7.02 3 6 C2.87625 5.195625 2.7525 4.39125 2.625 3.5625 C2.315625 2.2940625 2.315625 2.2940625 2 1 C1.34 0.67 0.68 0.34 0 0 Z " fill="#5B4536" transform="translate(27,58)"/>
<path d="M0 0 C0.66 0 1.32 0 2 0 C2.33 1.65 2.66 3.3 3 5 C3.99 5.33 4.98 5.66 6 6 C6 9.63 6 13.26 6 17 C5.67 17 5.34 17 5 17 C5 13.7 5 10.4 5 7 C4.05125 7.061875 3.1025 7.12375 2.125 7.1875 C1.09375 7.125625 0.0625 7.06375 -1 7 C-1.66 6.01 -2.32 5.02 -3 4 C-1.625 2 -1.625 2 0 0 Z " fill="#9A7353" transform="translate(47,61)"/>
<path d="M0 0 C1.32 0 2.64 0 4 0 C5.75163456 3.77222089 6.22490027 6.666639 6.125 10.8125 C6.10695313 11.78832031 6.08890625 12.76414062 6.0703125 13.76953125 C6.03550781 14.87361328 6.03550781 14.87361328 6 16 C4.68 16 3.36 16 2 16 C2.165 15.505 2.33 15.01 2.5 14.5 C3.41892426 9.90537869 3.96701296 5.61168826 1.5 1.5 C1.005 1.005 0.51 0.51 0 0 Z " fill="#252325" transform="translate(48,37)"/>
<path d="M0 0 C3.33727786 1.17255709 5.77437487 2.18868404 8 5 C8 5.66 8 6.32 8 7 C4.17902761 6.46930939 1.93828597 5.50298434 -1 3 C-0.67 2.01 -0.34 1.02 0 0 Z " fill="#2A4EAA" transform="translate(27,49)"/>
<path d="M0 0 C2.97 0 5.94 0 9 0 C9.33 1.65 9.66 3.3 10 5 C5.2482602 4.56802365 3.07999946 3.67230705 0 0 Z " fill="#B19E7F" transform="translate(41,30)"/>
<path d="M0 0 C0.66 0.66 1.32 1.32 2 2 C1.01 2 0.02 2 -1 2 C0.65 3.98 2.3 5.96 4 8 C0.25 11 0.25 11 -2 11 C-2 7.7 -2 4.4 -2 1 C-1.34 0.67 -0.68 0.34 0 0 Z " fill="#B8C8A8" transform="translate(63,63)"/>
<path d="M0 0 C3.3 0 6.6 0 10 0 C9.01 0.33 8.02 0.66 7 1 C7 1.99 7 2.98 7 4 C4.69 4 2.38 4 0 4 C0 2.68 0 1.36 0 0 Z " fill="#C7C8C1" transform="translate(0,44)"/>
<path d="M0 0 C-0.33 0.66 -0.66 1.32 -1 2 C-1.22622081 3.70363822 -1.40888473 5.41328701 -1.5625 7.125 C-1.64628906 8.03507812 -1.73007812 8.94515625 -1.81640625 9.8828125 C-1.87699219 10.58148438 -1.93757813 11.28015625 -2 12 C-3.98773749 9.01839377 -4.41311144 7.43749015 -5 4 C-5.32483418 2.66457061 -5.6550855 1.33038449 -6 0 C-2.25 -1.125 -2.25 -1.125 0 0 Z " fill="#BCBBAE" transform="translate(18,37)"/>
<path d="M0 0 C1.65 0 3.3 0 5 0 C5 1.98 5 3.96 5 6 C3.35 6 1.7 6 0 6 C0 4.02 0 2.04 0 0 Z " fill="#4C514D" transform="translate(5,37)"/>
<path d="M0 0 C0.66 0 1.32 0 2 0 C2 0.66 2 1.32 2 2 C2.99 1.67 3.98 1.34 5 1 C5 4 5 4 3.125 6.1875 C1 8 1 8 -1 8 C-1.04241723 5.66705225 -1.04092937 3.33297433 -1 1 C-0.67 0.67 -0.34 0.34 0 0 Z " fill="#D6BDA7" transform="translate(54,58)"/>
<path d="M0 0 C0.66 0.33 1.32 0.66 2 1 C1.34 1.66 0.68 2.32 0 3 C0.33 3.99 0.66 4.98 1 6 C0.34 6 -0.32 6 -1 6 C-1 6.66 -1 7.32 -1 8 C-2.32 8 -3.64 8 -5 8 C-4.64950425 4.75791433 -4.43778819 3.38472296 -1.9375 1.1875 C-1.298125 0.795625 -0.65875 0.40375 0 0 Z " fill="#A17055" transform="translate(51,52)"/>
<path d="M0 0 C0.33 0.99 0.66 1.98 1 3 C1.9075 2.62875 2.815 2.2575 3.75 1.875 C7 1 7 1 9.375 1.875 C9.91125 2.24625 10.4475 2.6175 11 3 C10.67 3.66 10.34 4.32 10 5 C8.88625 4.95875 7.7725 4.9175 6.625 4.875 C2.95633975 4.58878141 2.95633975 4.58878141 1 7 C0 6 0 6 -0.0625 2.9375 C-0.041875 1.968125 -0.02125 0.99875 0 0 Z " fill="#C69981" transform="translate(29,17)"/>
<path d="M0 0 C0.66 0 1.32 0 2 0 C2.66 2.64 3.32 5.28 4 8 C2.35 8.33 0.7 8.66 -1 9 C-0.67 6.03 -0.34 3.06 0 0 Z " fill="#373F4F" transform="translate(47,71)"/>
<path d="M0 0 C0.66 0.33 1.32 0.66 2 1 C0.0625 3.125 0.0625 3.125 -3 5 C-6.13678022 4.75870921 -9.0127167 3.96321989 -12 3 C-12 2.67 -12 2.34 -12 2 C-10.95199219 1.90912109 -10.95199219 1.90912109 -9.8828125 1.81640625 C-8.97273438 1.73261719 -8.06265625 1.64882813 -7.125 1.5625 C-6.22007813 1.48128906 -5.31515625 1.40007813 -4.3828125 1.31640625 C-1.98889139 1.13010715 -1.98889139 1.13010715 0 0 Z " fill="#251E1A" transform="translate(42,55)"/>
<path d="M0 0 C2.52588702 2.36292656 3.88820837 3.66462511 5 7 C3.35 7.66 1.7 8.32 0 9 C0 6.03 0 3.06 0 0 Z " fill="#EFEFED" transform="translate(70,13)"/>
<path d="M0 0 C-5.75 4 -5.75 4 -8 4 C-8.66 5.65 -9.32 7.3 -10 9 C-10.75 7.25 -10.75 7.25 -11 5 C-8.40558528 1.60730383 -4.32337768 -2.16168884 0 0 Z " fill="#443F3F" transform="translate(27,34)"/>
<path d="M0 0 C-1.0625 2 -1.0625 2 -3 4 C-6.6875 4.25 -6.6875 4.25 -10 4 C-9.67 3.01 -9.34 2.02 -9 1 C-6.03421164 -0.16513114 -3.15436364 -0.08762121 0 0 Z " fill="#C3977A" transform="translate(40,12)"/>
<path d="M0 0 C1.65 0 3.3 0 5 0 C5 2.64 5 5.28 5 8 C4.34 7.67 3.68 7.34 3 7 C3 5.35 3 3.7 3 2 C2.34 2 1.68 2 1 2 C0.67 3.32 0.34 4.64 0 6 C0 4.02 0 2.04 0 0 Z " fill="#26292E" transform="translate(46,69)"/>
<path d="M0 0 C1.32 0 2.64 0 4 0 C4 1.98 4 3.96 4 6 C2.68 6 1.36 6 0 6 C0 4.02 0 2.04 0 0 Z " fill="#4D5352" transform="translate(0,37)"/>
<path d="M0 0 C1.65 1.65 3.3 3.3 5 5 C4.01 6.485 4.01 6.485 3 8 C0.375 8.1875 0.375 8.1875 -2 8 C-2 7.34 -2 6.68 -2 6 C-1.34 6 -0.68 6 0 6 C0 4.02 0 2.04 0 0 Z " fill="#D3A891" transform="translate(36,30)"/>
<path d="M0 0 C0 0.66 0 1.32 0 2 C-2.64738916 3.4606285 -3.89448334 4 -7 4 C-6.625 2.0625 -6.625 2.0625 -6 0 C-3.50907189 -1.24546405 -2.58919267 -0.7767578 0 0 Z " fill="#DEA963" transform="translate(44,53)"/>
<path d="M0 0 C1.65 0 3.3 0 5 0 C5.33 0.99 5.66 1.98 6 3 C7.99665314 4.68538601 7.99665314 4.68538601 10 6 C7.03 5.505 7.03 5.505 4 5 C4 4.34 4 3.68 4 3 C3.01 3 2.02 3 1 3 C0.67 2.01 0.34 1.02 0 0 Z " fill="#C79981" transform="translate(18,57)"/>
<path d="M0 0 C0.66 0 1.32 0 2 0 C2 0.66 2 1.32 2 2 C2.66 2.33 3.32 2.66 4 3 C3.34 3 2.68 3 2 3 C2.33 4.98 2.66 6.96 3 9 C2.34 9 1.68 9 1 9 C-2 4.61538462 -2 4.61538462 -2 2 C-1.34 2 -0.68 2 0 2 C0 1.34 0 0.68 0 0 Z " fill="#97BD78" transform="translate(60,55)"/>
<path d="M0 0 C2.29013653 3.4352048 2.17842973 4.985331 2 9 C1.01 9.495 1.01 9.495 0 10 C0 8.35 0 6.7 0 5 C-0.66 5 -1.32 5 -2 5 C-1.125 1.125 -1.125 1.125 0 0 Z " fill="#A7BE96" transform="translate(68,59)"/>
<path d="M0 0 C1.32 0 2.64 0 4 0 C4.33 0.99 4.66 1.98 5 3 C3.6875 5.1875 3.6875 5.1875 2 7 C1.34 7 0.68 7 0 7 C0 4.69 0 2.38 0 0 Z " fill="#C1D1BE" transform="translate(69,60)"/>
<path d="M0 0 C1.65 0 3.3 0 5 0 C5 0.99 5 1.98 5 3 C5.66 3 6.32 3 7 3 C7.33 3.99 7.66 4.98 8 6 C7.34 6 6.68 6 6 6 C6 5.34 6 4.68 6 4 C4.35 3.67 2.7 3.34 1 3 C0.67 2.01 0.34 1.02 0 0 Z " fill="#C69E8C" transform="translate(50,54)"/>
<path d="M0 0 C4.455 1.98 4.455 1.98 9 4 C5 6 5 6 2.8125 5.375 C1 4 1 4 0 0 Z " fill="#3D414C" transform="translate(42,32)"/>
<path d="M0 0 C3.3 0.33 6.6 0.66 10 1 C8.515 2.485 8.515 2.485 7 4 C4.4375 3.875 4.4375 3.875 2 3 C1.34 2.01 0.68 1.02 0 0 Z " fill="#31281E" transform="translate(30,26)"/>
<path d="M0 0 C2.97 0.99 5.94 1.98 9 3 C9 3.33 9 3.66 9 4 C6.69 4 4.38 4 2 4 C1.67 4.99 1.34 5.98 1 7 C0.67 4.69 0.34 2.38 0 0 Z " fill="#8E6A56" transform="translate(18,65)"/>
<path d="M0 0 C0.99 0.33 1.98 0.66 3 1 C3.33 2.65 3.66 4.3 4 6 C2.68 5.67 1.36 5.34 0 5 C0 3.35 0 1.7 0 0 Z " fill="#B48669" transform="translate(16,57)"/>
<path d="M0 0 C2.97 0.495 2.97 0.495 6 1 C6 2.98 6 4.96 6 7 C5.01 6.67 4.02 6.34 3 6 C3 4.35 3 2.7 3 1 C2.01 0.67 1.02 0.34 0 0 Z " fill="#B88668" transform="translate(46,60)"/>
<path d="M0 0 C1.65 0 3.3 0 5 0 C4.67 0.99 4.34 1.98 4 3 C1.9375 3.6875 1.9375 3.6875 0 4 C0 2.68 0 1.36 0 0 Z " fill="#ED4740" transform="translate(30,47)"/>
<path d="M0 0 C0.33 0.66 0.66 1.32 1 2 C2.65 2 4.3 2 6 2 C5.67 3.32 5.34 4.64 5 6 C2.5 4.6875 2.5 4.6875 0 3 C0 2.01 0 1.02 0 0 Z " fill="#A4785F" transform="translate(23,57)"/>
<path d="M0 0 C1.98 0 3.96 0 6 0 C6 0.99 6 1.98 6 3 C4.02 3 2.04 3 0 3 C0 2.01 0 1.02 0 0 Z " fill="#8B6A54" transform="translate(34,16)"/>
<path d="M0 0 C1.9375 0.6875 1.9375 0.6875 4 2 C4.75 4.625 4.75 4.625 5 7 C2.5 5.1875 2.5 5.1875 0 3 C0 2.01 0 1.02 0 0 Z " fill="#625D5C" transform="translate(38,9)"/>
</svg>
