<?xml version="1.0" encoding="UTF-8"?>
<svg version="1.1" xmlns="http://www.w3.org/2000/svg" width="64" height="64">
<path d="M0 0 C0.86149155 0.00718552 1.72298309 0.01437103 2.61058044 0.02177429 C3.49322067 0.02223251 4.3758609 0.02269073 5.2852478 0.02316284 C7.1522506 0.02618617 9.01925086 0.03407487 10.88621521 0.0464325 C13.75471358 0.06469078 16.62288941 0.0669422 19.49143982 0.06669617 C21.3019895 0.07161116 23.11253699 0.0774394 24.92308044 0.08427429 C25.78659622 0.08538712 26.650112 0.08649994 27.53979492 0.08764648 C33.58437804 0.13619689 33.58437804 0.13619689 34.70042419 1.25224304 C34.88792419 4.18974304 34.88792419 4.18974304 34.70042419 7.25224304 C32.0685715 9.88409574 30.16173551 9.50096166 26.57896423 9.53013611 C25.74248352 9.52608765 24.90600281 9.52203918 24.04417419 9.51786804 C23.18610168 9.51978149 22.32802917 9.52169495 21.44395447 9.52366638 C19.62823697 9.52502848 17.81250974 9.52133032 15.99681091 9.51298523 C13.2115957 9.50228596 10.42702551 9.51287957 7.64183044 9.52568054 C5.88011027 9.52435895 4.11839049 9.52179657 2.35667419 9.51786804 C1.10195313 9.52394073 1.10195313 9.52394073 -0.17811584 9.53013611 C-6.06965747 9.48216138 -6.06965747 9.48216138 -8.29957581 7.25224304 C-8.54957581 4.75224304 -8.54957581 4.75224304 -8.29957581 2.25224304 C-5.63061149 -0.41672127 -3.62834173 0.01399843 0 0 Z " fill="#000000" transform="translate(13.299575805664063,28.747756958007813)"/>
<path d="M0 0 C0.86149155 0.00718552 1.72298309 0.01437103 2.61058044 0.02177429 C3.49322067 0.02223251 4.3758609 0.02269073 5.2852478 0.02316284 C7.1522506 0.02618617 9.01925086 0.03407487 10.88621521 0.0464325 C13.75471358 0.06469078 16.62288941 0.0669422 19.49143982 0.06669617 C21.3019895 0.07161116 23.11253699 0.0774394 24.92308044 0.08427429 C25.78659622 0.08538712 26.650112 0.08649994 27.53979492 0.08764648 C33.58437804 0.13619689 33.58437804 0.13619689 34.70042419 1.25224304 C34.88792419 4.18974304 34.88792419 4.18974304 34.70042419 7.25224304 C32.0685715 9.88409574 30.16173551 9.50096166 26.57896423 9.53013611 C25.74248352 9.52608765 24.90600281 9.52203918 24.04417419 9.51786804 C23.18610168 9.51978149 22.32802917 9.52169495 21.44395447 9.52366638 C19.62823697 9.52502848 17.81250974 9.52133032 15.99681091 9.51298523 C13.2115957 9.50228596 10.42702551 9.51287957 7.64183044 9.52568054 C5.88011027 9.52435895 4.11839049 9.52179657 2.35667419 9.51786804 C1.10195313 9.52394073 1.10195313 9.52394073 -0.17811584 9.53013611 C-6.06965747 9.48216138 -6.06965747 9.48216138 -8.29957581 7.25224304 C-8.54957581 4.75224304 -8.54957581 4.75224304 -8.29957581 2.25224304 C-5.63061149 -0.41672127 -3.62834173 0.01399843 0 0 Z " fill="#000000" transform="translate(13.299575805664063,12.747756958007813)"/>
<path d="M0 0 C1.48294556 0.00616333 1.48294556 0.00616333 2.99584961 0.01245117 C4.06770508 0.01438477 5.13956055 0.01631836 6.24389648 0.01831055 C7.36731445 0.03055664 8.49073242 0.04280273 9.64819336 0.05541992 C11.33912109 0.05638672 11.33912109 0.05638672 13.06420898 0.05737305 C21.44556019 0.10278675 21.44556019 0.10278675 22.58569336 1.24291992 C22.77319336 4.18041992 22.77319336 4.18041992 22.58569336 7.24291992 C20.01580655 9.81280673 18.99659283 9.49998768 15.42944336 9.50854492 C13.89610352 9.51241211 13.89610352 9.51241211 12.33178711 9.51635742 C11.26057617 9.50862305 10.18936523 9.50088867 9.08569336 9.49291992 C7.47887695 9.50452148 7.47887695 9.50452148 5.83959961 9.51635742 C4.81737305 9.5137793 3.79514648 9.51120117 2.74194336 9.50854492 C1.80157227 9.50628906 0.86120117 9.5040332 -0.10766602 9.50170898 C-2.41430664 9.24291992 -2.41430664 9.24291992 -4.41430664 7.24291992 C-4.66430664 4.74291992 -4.66430664 4.74291992 -4.41430664 2.24291992 C-2.41430664 0.24291992 -2.41430664 0.24291992 0 0 Z " fill="#000000" transform="translate(9.414306640625,44.757080078125)"/>
<path d="M0 0 C2.5 0.25 2.5 0.25 4.5 2.25 C4.75 4.75 4.75 4.75 4.5 7.25 C3.84 7.91 3.18 8.57 2.5 9.25 C-0.625 8.875 -0.625 8.875 -3.5 8.25 C-4.125 5.375 -4.125 5.375 -4.5 2.25 C-2.5 0.25 -2.5 0.25 0 0 Z " fill="#66ACFF" transform="translate(54.5,12.75)"/>
</svg>
