<?xml version="1.0" encoding="UTF-8"?>
<svg version="1.1" xmlns="http://www.w3.org/2000/svg" width="60" height="63">
<path d="M0 0 C-0.66 3.63 -1.32 7.26 -2 11 C-2.99 11.33 -3.98 11.66 -5 12 C-2.45870221 13.75053767 0.08302577 15.50044506 2.625 17.25 C3.33785156 17.74113281 4.05070312 18.23226563 4.78515625 18.73828125 C8.83554752 21.52524772 12.90119913 24.28470605 17 27 C15.11380178 34.03645577 13.13072305 41.03359344 11 48 C13.31 48.66 15.62 49.32 18 50 C18 50.66 18 51.32 18 52 C19.65 52 21.3 52 23 52 C22.979375 52.78375 22.95875 53.5675 22.9375 54.375 C22.81315937 56.98114961 22.81315937 56.98114961 24 59 C4.2 59 -15.6 59 -36 59 C-35.67 56.69 -35.34 54.38 -35 52 C-33.35 52 -31.7 52 -30 52 C-29.67 51.01 -29.34 50.02 -29 49 C-26.03 48.505 -26.03 48.505 -23 48 C-23.433125 46.81921875 -23.86625 45.6384375 -24.3125 44.421875 C-24.87533301 42.86470366 -25.43781467 41.30740529 -26 39.75 C-26.28617188 38.97269531 -26.57234375 38.19539063 -26.8671875 37.39453125 C-27.13789063 36.64042969 -27.40859375 35.88632812 -27.6875 35.109375 C-28.06455078 34.07248535 -28.06455078 34.07248535 -28.44921875 33.01464844 C-29 31 -29 31 -29 27 C-27.27172852 25.27661133 -27.27172852 25.27661133 -24.87890625 23.58203125 C-24.02619141 22.96779297 -23.17347656 22.35355469 -22.29492188 21.72070312 C-21.39322266 21.09099609 -20.49152344 20.46128906 -19.5625 19.8125 C-17.79279278 18.54842341 -16.0232525 17.28411306 -14.25390625 16.01953125 C-13.46314697 15.46370361 -12.6723877 14.90787598 -11.85766602 14.33520508 C-10.07821775 13.13204638 -10.07821775 13.13204638 -9 12 C-9.99 11.67 -10.98 11.34 -12 11 C-11.979375 10.0925 -11.95875 9.185 -11.9375 8.25 C-11.87603436 5.13912132 -11.87603436 5.13912132 -12.5625 2.75 C-13 1 -13 1 -12 -1 C-7.57734837 -2.56093587 -4.34067295 -1.44689098 0 0 Z M-11.03515625 17.84375 C-11.84404297 18.43027344 -12.65292969 19.01679688 -13.48632812 19.62109375 C-14.7615332 20.55115234 -14.7615332 20.55115234 -16.0625 21.5 C-16.91650391 22.12003906 -17.77050781 22.74007813 -18.65039062 23.37890625 C-20.76846564 24.91717302 -22.88491515 26.45762573 -25 28 C-24.40542384 33.66728926 -22.90592922 38.60579436 -20.9375 43.9375 C-19.968125 46.598125 -18.99875 49.25875 -18 52 C-10.08 52 -2.16 52 6 52 C7.85706359 47.04783042 9.62911597 42.22090128 11.1875 37.1875 C11.53167969 36.08792969 11.87585937 34.98835938 12.23046875 33.85546875 C13.13010516 31.01011459 13.13010516 31.01011459 13 28 C11.23271682 26.36177068 11.23271682 26.36177068 8.87890625 24.86328125 C8.02619141 24.28642578 7.17347656 23.70957031 6.29492188 23.11523438 C5.39322266 22.52033203 4.49152344 21.92542969 3.5625 21.3125 C2.66466797 20.70599609 1.76683594 20.09949219 0.84179688 19.47460938 C-5.09725539 14.81483925 -5.09725539 14.81483925 -11.03515625 17.84375 Z M-27 50 C-26.67 51.65 -26.34 53.3 -26 55 C-25.34 53.68 -24.68 52.36 -24 51 C-24.99 50.67 -25.98 50.34 -27 50 Z M13 50 C13 51.65 13 53.3 13 55 C13.66 53.68 14.32 52.36 15 51 C14.34 50.67 13.68 50.34 13 50 Z M-33 53 C-32.67 54.32 -32.34 55.64 -32 57 C-30.35 57 -28.7 57 -27 57 C-27 55.68 -27 54.36 -27 53 C-28.98 53 -30.96 53 -33 53 Z M-24 53 C-23.67 54.32 -23.34 55.64 -23 57 C-22.67 56.34 -22.34 55.68 -22 55 C-22.66 54.34 -23.32 53.68 -24 53 Z M-19 53 C-15 54 -15 54 -15 54 Z M-13 53 C-12.01 53.99 -11.02 54.98 -10 56 C-9.67 55.01 -9.34 54.02 -9 53 C-10.32 53 -11.64 53 -13 53 Z M-8 53 C-7 55 -7 55 -7 55 Z M-5 53 C-5 53.99 -5 54.98 -5 56 C-4.01 55.67 -3.02 55.34 -2 55 C-2.33 54.34 -2.66 53.68 -3 53 C-3.66 53 -4.32 53 -5 53 Z M8 53 C8.66 54.32 9.32 55.64 10 57 C10.66 57 11.32 57 12 57 C12 55.68 12 54.36 12 53 C10.68 53 9.36 53 8 53 Z M15 53 C15 54.32 15 55.64 15 57 C16.65 57 18.3 57 20 57 C20.33 55.68 20.66 54.36 21 53 C19.02 53 17.04 53 15 53 Z " fill="#006730" transform="translate(36,3)"/>
<path d="M0 0 C1.74216797 0.02707031 1.74216797 0.02707031 3.51953125 0.0546875 C4.39996094 0.07789062 5.28039062 0.10109375 6.1875 0.125 C6.5175 1.115 6.8475 2.105 7.1875 3.125 C7.8475 3.125 8.5075 3.125 9.1875 3.125 C9.1875 3.785 9.1875 4.445 9.1875 5.125 C7.52138095 5.167721 5.85367115 5.16563832 4.1875 5.125 C3.8575 4.795 3.5275 4.465 3.1875 4.125 C1.71101124 4.02676004 0.22974583 3.99526481 -1.25 4 C-2.05308594 3.99742188 -2.85617188 3.99484375 -3.68359375 3.9921875 C-5.86647931 3.98921674 -5.86647931 3.98921674 -7.8125 5.125 C-4.34140832 7.43906112 -2.86371887 7.21119615 1.1875 7.125 C1.8475 7.455 2.5075 7.785 3.1875 8.125 C3.1875 8.785 3.1875 9.445 3.1875 10.125 C4.5075 10.455 5.8275 10.785 7.1875 11.125 C8.12173645 14.13531744 8.23199911 14.99150268 7.1875 18.125 C7.8475 18.125 8.5075 18.125 9.1875 18.125 C8.8575 19.775 8.5275 21.425 8.1875 23.125 C7.383125 22.939375 6.57875 22.75375 5.75 22.5625 C4.4815625 22.3459375 4.4815625 22.3459375 3.1875 22.125 C2.8575 22.455 2.5275 22.785 2.1875 23.125 C0.52132885 23.16563832 -1.14638095 23.167721 -2.8125 23.125 C-2.8125 22.135 -2.8125 21.145 -2.8125 20.125 C-3.8953125 20.8984375 -3.8953125 20.8984375 -5 21.6875 C-8.2320366 23.33942982 -9.42858307 23.18851675 -12.8125 22.125 C-12.8125 21.465 -12.8125 20.805 -12.8125 20.125 C-12.1525 20.125 -11.4925 20.125 -10.8125 20.125 C-11.163125 19.320625 -11.51375 18.51625 -11.875 17.6875 C-12.90260028 13.78261894 -12.68558857 11.10777072 -12.1015625 7.17578125 C-11.74271364 4.9750696 -11.74271364 4.9750696 -11.8125 2.125 C-7.73526266 0.17468308 -4.49557578 -0.09081971 0 0 Z M-1.8125 12.125 C-1.8125 12.455 -1.8125 12.785 -1.8125 13.125 C0.4975 13.125 2.8075 13.125 5.1875 13.125 C5.1875 12.795 5.1875 12.465 5.1875 12.125 C2.8775 12.125 0.5675 12.125 -1.8125 12.125 Z M-3.8125 13.125 C-4.1425 14.445 -4.4725 15.765 -4.8125 17.125 C-1.9996519 18.37827754 -1.9996519 18.37827754 0.125 17.5625 C2.79107285 16.9969694 3.91025075 17.74238438 6.1875 19.125 C6.1875 17.475 6.1875 15.825 6.1875 14.125 C2.8875 13.795 -0.4125 13.465 -3.8125 13.125 Z " fill="#006830" transform="translate(31.8125,24.875)"/>
<path d="M0 0 C0.86931152 0.01047363 1.73862305 0.02094727 2.63427734 0.03173828 C3.57529297 0.03818359 4.51630859 0.04462891 5.48583984 0.05126953 C6.47068359 0.06802734 7.45552734 0.08478516 8.47021484 0.10205078 C9.46279297 0.11107422 10.45537109 0.12009766 11.47802734 0.12939453 C13.93399618 0.15300962 16.38948653 0.18594279 18.84521484 0.22705078 C18.84521484 1.54705078 18.84521484 2.86705078 18.84521484 4.22705078 C12.09521484 5.35205078 12.09521484 5.35205078 9.84521484 4.22705078 C8.85521484 4.55705078 7.86521484 4.88705078 6.84521484 5.22705078 C6.18521484 4.89705078 5.52521484 4.56705078 4.84521484 4.22705078 C3.85521484 4.55705078 2.86521484 4.88705078 1.84521484 5.22705078 C1.51521484 4.56705078 1.18521484 3.90705078 0.84521484 3.22705078 C0.18521484 3.88705078 -0.47478516 4.54705078 -1.15478516 5.22705078 C-2.14478516 4.23705078 -3.13478516 3.24705078 -4.15478516 2.22705078 C-2.15478516 0.22705078 -2.15478516 0.22705078 0 0 Z " fill="#007538" transform="translate(22.15478515625,48.77294921875)"/>
<path d="M0 0 C1.32 0.66 2.64 1.32 4 2 C3.01 2.99 2.02 3.98 1 5 C0.01 4.01 -0.98 3.02 -2 2 C-1.34 1.34 -0.68 0.68 0 0 Z " fill="#00682B" transform="translate(29,49)"/>
<path d="" fill="#000000" transform="translate(0,0)"/>
</svg>
