<?xml version="1.0" encoding="UTF-8"?>
<svg version="1.1" xmlns="http://www.w3.org/2000/svg" width="25" height="25">
<path d="M0 0 C4.59261761 1.66115956 7.64356472 4.50317805 10.01953125 8.73046875 C10.73758891 13.83492214 10.6474019 18.59746433 10.01953125 23.73046875 C8.33436171 25.41563829 6.23185337 24.86054894 3.92578125 24.86328125 C2.89582031 24.86457031 1.86585937 24.86585937 0.8046875 24.8671875 C-0.82146484 24.86138672 -0.82146484 24.86138672 -2.48046875 24.85546875 C-3.56457031 24.85933594 -4.64867187 24.86320312 -5.765625 24.8671875 C-6.79558594 24.86589844 -7.82554688 24.86460938 -8.88671875 24.86328125 C-9.83869141 24.86215332 -10.79066406 24.86102539 -11.77148438 24.85986328 C-13.98046875 24.73046875 -13.98046875 24.73046875 -14.98046875 23.73046875 C-16.51545592 11.18155304 -16.51545592 11.18155304 -13.265625 5.9921875 C-9.204435 1.97506104 -5.9847427 -1.07095396 0 0 Z M-10.01171875 8.21875 C-13.44443496 12.59818755 -12.58361821 16.36914025 -11.98046875 21.73046875 C-5.71046875 21.73046875 0.55953125 21.73046875 7.01953125 21.73046875 C8.05308908 14.4836639 8.05308908 14.4836639 5.05078125 8.21875 C-1.97420696 2.02742337 -2.98673054 2.02742337 -10.01171875 8.21875 Z " fill="#000000" transform="translate(14.98046875,0.26953125)"/>
</svg>
