<?xml version="1.0" encoding="UTF-8"?>
<svg version="1.1" xmlns="http://www.w3.org/2000/svg" width="208" height="220">
<path d="M0 0 C63.69 0 127.38 0 193 0 C194 9 194 9 194 11 C194.66 11 195.32 11 196 11 C196.103125 11.763125 196.20625 12.52625 196.3125 13.3125 C196.73854764 16.02284043 196.73854764 16.02284043 198.52734375 17.35546875 C200.54229363 19.6055852 200.33850918 21.02609164 200.25 24 C200.23453125 24.86625 200.2190625 25.7325 200.203125 26.625 C200 29 200 29 199 32 C200.32 32.33 201.64 32.66 203 33 C202.979375 33.763125 202.95875 34.52625 202.9375 35.3125 C202.87057159 38.10185786 202.87057159 38.10185786 204 41 C203.6875 43.625 203.6875 43.625 203 46 C202.01 46.495 202.01 46.495 201 47 C201.66 47.66 202.32 48.32 203 49 C202.625 51.125 202.625 51.125 202 53 C202.66 53.33 203.32 53.66 204 54 C203.79375 55.093125 203.5875 56.18625 203.375 57.3125 C202.59653475 61.0838401 202.59653475 61.0838401 205 64 C204.525625 64.9075 204.05125 65.815 203.5625 66.75 C202.35371179 69.26427949 201.52006114 71.29568209 201 74 C201.66 74.33 202.32 74.66 203 75 C203.07427838 78.34252724 203.06546953 80.8035914 202 84 C202.165 84.969375 202.33 85.93875 202.5 86.9375 C202.98865145 89.93049013 202.72904173 91.17496329 202 94 C202.32550502 95.66821323 202.65846063 97.33499557 203 99 C202.67 99.99 202.34 100.98 202 102 C201.7373792 104.57201645 201.55690972 107.14349966 201.37890625 109.72265625 C201 112 201 112 199 114 C199.33 114.99 199.66 115.98 200 117 C200 118.66666667 200 120.33333333 200 122 C198.66666667 123.33333333 197.33333333 124.66666667 196 126 C196.33 126.598125 196.66 127.19625 197 127.8125 C198 130 198 130 198 133 C197.34 133 196.68 133 196 133 C196 132.01 196 131.02 196 130 C194.37249963 132.32323453 194.37249963 132.32323453 193 135 C193.33 135.99 193.66 136.98 194 138 C194.34227417 139.33106622 194.67751743 140.66400079 195 142 C192.92446352 142.5534764 191.15634036 143 189 143 C189.66 143.66 190.32 144.32 191 145 C190 148 190 148 188 150 C188.3185177 152.10820797 188.3185177 152.10820797 189 154 C187.865625 154.45375 186.73125 154.9075 185.5625 155.375 C181.95278308 156.57095806 181.95278308 156.57095806 181 159 C181.99 159.33 182.98 159.66 184 160 C182.68 160.33 181.36 160.66 180 161 C180.66 161.66 181.32 162.32 182 163 C180.68 163.99 179.36 164.98 178 166 C178 165.34 178 164.68 178 164 C177.34 164 176.68 164 176 164 C176.33 165.32 176.66 166.64 177 168 C176.05125 168.391875 175.1025 168.78375 174.125 169.1875 C170.52573158 171.27507568 170.3190558 172.23126913 169 176 C166.875 177.8125 166.875 177.8125 165 179 C165.33 179.66 165.66 180.32 166 181 C165.01 181.66 164.02 182.32 163 183 C163.33 183.66 163.66 184.32 164 185 C162.6696875 185.2165625 162.6696875 185.2165625 161.3125 185.4375 C160.219375 185.623125 159.12625 185.80875 158 186 C157.113125 186.061875 156.22625 186.12375 155.3125 186.1875 C152.64848903 186.84505006 152.64848903 186.84505006 151.1875 190.0625 C150.795625 191.031875 150.40375 192.00125 150 193 C148.9275 192.938125 147.855 192.87625 146.75 192.8125 C142.75419151 193.01229042 141.86195538 193.43410897 139 196 C137.68163705 196.69580267 136.35208914 197.37224433 135 198 C135.99 198.99 136.98 199.98 138 201 C137.01 201.33 136.02 201.66 135 202 C134.67 201.67 134.34 201.34 134 201 C133.34 201.66 132.68 202.32 132 203 C130.68 202.34 129.36 201.68 128 201 C127.54625 201.495 127.0925 201.99 126.625 202.5 C125 204 125 204 123 204 C122.67 204.66 122.34 205.32 122 206 C120.02 205.67 118.04 205.34 116 205 C115.67 205.66 115.34 206.32 115 207 C114.01 206.67 113.02 206.34 112 206 C111.67 206.99 111.34 207.98 111 209 C109.35 208.34 107.7 207.68 106 207 C106 207.99 106 208.98 106 210 C106.66 210.33 107.32 210.66 108 211 C107.34 211 106.68 211 106 211 C106 211.99 106 212.98 106 214 C105.34 213.67 104.68 213.34 104 213 C104.33 212.34 104.66 211.68 105 211 C100.35413108 211.48484276 100.35413108 211.48484276 96 213 C95.67 212.34 95.34 211.68 95 211 C94.01 211 93.02 211 92 211 C91.67 211.99 91.34 212.98 91 214 C89.35 213.67 87.7 213.34 86 213 C85.67 213.66 85.34 214.32 85 215 C83.68 214.67 82.36 214.34 81 214 C81 214.99 81 215.98 81 217 C76.28596212 216.52060632 72.33420699 216.03165952 68 214 C67.34 214.99 66.68 215.98 66 217 C65.34 217 64.68 217 64 217 C63.01 216.01 63.01 216.01 62 215 C59.03 215.99 59.03 215.99 56 217 C55.67 216.01 55.34 215.02 55 214 C54.2575 214.309375 53.515 214.61875 52.75 214.9375 C46.75789474 217.25263158 46.75789474 217.25263158 43 216 C42.67 215.67 42.34 215.34 42 215 C41.34 215.66 40.68 216.32 40 217 C39.34 216.01 38.68 215.02 38 214 C37.01 214.66 36.02 215.32 35 216 C35 215.34 35 214.68 35 214 C34.13375 214.165 33.2675 214.33 32.375 214.5 C29.18774801 214.97218548 26.21514973 215.07655118 23 215 C22.67 214.01 22.34 213.02 22 212 C20.35 211.67 18.7 211.34 17 211 C16.67 211.99 16.34 212.98 16 214 C14.35 214 12.7 214 11 214 C11.66 213.01 12.32 212.02 13 211 C11.6696875 211.0309375 11.6696875 211.0309375 10.3125 211.0625 C2.92307692 210.92307692 2.92307692 210.92307692 0 208 C-0.19336828 205.25420933 -0.26042353 202.60966023 -0.24050903 199.86300659 C-0.24221788 199.01191885 -0.24392673 198.16083111 -0.24568737 197.28395283 C-0.24899677 194.41561753 -0.2379548 191.54751318 -0.22705078 188.67919922 C-0.22648698 186.62966925 -0.22680262 184.58013887 -0.22793579 182.53060913 C-0.22851152 176.95235797 -0.21672168 171.37419216 -0.20278788 165.7959609 C-0.1903171 159.97165448 -0.18911291 154.14734628 -0.18673706 148.32302856 C-0.18051152 137.28746081 -0.16408621 126.2519325 -0.14403808 115.21638215 C-0.11754096 100.30856004 -0.10671511 85.4007272 -0.09503365 70.4928875 C-0.07620635 46.99522876 -0.03636782 23.49765329 0 0 Z M189 1 C188.67 1.66 188.34 2.32 188 3 C188.66 3 189.32 3 190 3 C189.67 2.34 189.34 1.68 189 1 Z M202 63 C203 65 203 65 203 65 Z M201 65 C202 67 202 67 202 67 Z M200 106 C201 108 201 108 201 108 Z M192 131 C193 133 193 133 193 133 Z M185 146 C185.33 146.99 185.66 147.98 186 149 C186 148.01 186 147.02 186 146 C185.67 146 185.34 146 185 146 Z M174 165 C175 167 175 167 175 167 Z M159 179 C160 181 160 181 160 181 Z M133 197 C134 199 134 199 134 199 Z M121 202 C121.66 202.66 122.32 203.32 123 204 C123 203.34 123 202.68 123 202 C122.34 202 121.68 202 121 202 Z M45 213 C44.67 213.66 44.34 214.32 44 215 C44.66 215 45.32 215 46 215 C45.67 214.34 45.34 213.68 45 213 Z M78 213 C77.67 213.99 77.34 214.98 77 216 C77.66 216 78.32 216 79 216 C78.67 215.01 78.34 214.02 78 213 Z M57 214 C57.33 214.66 57.66 215.32 58 216 C58.33 215.34 58.66 214.68 59 214 C58.34 214 57.68 214 57 214 Z " fill="#66ABFF" transform="translate(0,0)"/>
<path d="M0 0 C20.46 0 40.92 0 62 0 C63 9 63 9 63 11 C63.66 11 64.32 11 65 11 C65.103125 11.763125 65.20625 12.52625 65.3125 13.3125 C65.73854764 16.02284043 65.73854764 16.02284043 67.52734375 17.35546875 C69.54229363 19.6055852 69.33850918 21.02609164 69.25 24 C69.23453125 24.86625 69.2190625 25.7325 69.203125 26.625 C69 29 69 29 68 32 C69.32 32.33 70.64 32.66 72 33 C71.979375 33.763125 71.95875 34.52625 71.9375 35.3125 C71.87057159 38.10185786 71.87057159 38.10185786 73 41 C72.6875 43.625 72.6875 43.625 72 46 C71.01 46.495 71.01 46.495 70 47 C70.66 47.66 71.32 48.32 72 49 C71.625 51.125 71.625 51.125 71 53 C71.66 53.33 72.32 53.66 73 54 C72.79375 55.093125 72.5875 56.18625 72.375 57.3125 C71.59653475 61.0838401 71.59653475 61.0838401 74 64 C73.525625 64.9075 73.05125 65.815 72.5625 66.75 C71.35371179 69.26427949 70.52006114 71.29568209 70 74 C70.66 74.33 71.32 74.66 72 75 C72.07427838 78.34252724 72.06546953 80.8035914 71 84 C71.165 84.969375 71.33 85.93875 71.5 86.9375 C71.98865145 89.93049013 71.72904173 91.17496329 71 94 C71.32550502 95.66821323 71.65846063 97.33499557 72 99 C71.67 99.99 71.34 100.98 71 102 C70.7373792 104.57201645 70.55690972 107.14349966 70.37890625 109.72265625 C70 112 70 112 68 114 C68.33 114.99 68.66 115.98 69 117 C69 118.66666667 69 120.33333333 69 122 C67.66666667 123.33333333 66.33333333 124.66666667 65 126 C65.33 126.598125 65.66 127.19625 66 127.8125 C67 130 67 130 67 133 C66.34 133 65.68 133 65 133 C65 132.01 65 131.02 65 130 C63.37249963 132.32323453 63.37249963 132.32323453 62 135 C62.33 135.99 62.66 136.98 63 138 C63.34227417 139.33106622 63.67751743 140.66400079 64 142 C61.92446352 142.5534764 60.15634036 143 58 143 C58.66 143.66 59.32 144.32 60 145 C59 148 59 148 57 150 C57.3185177 152.10820797 57.3185177 152.10820797 58 154 C56.865625 154.45375 55.73125 154.9075 54.5625 155.375 C50.95278308 156.57095806 50.95278308 156.57095806 50 159 C50.99 159.33 51.98 159.66 53 160 C51.68 160.33 50.36 160.66 49 161 C49.66 161.66 50.32 162.32 51 163 C49.68 163.99 48.36 164.98 47 166 C47 165.34 47 164.68 47 164 C46.34 164 45.68 164 45 164 C45.33 165.32 45.66 166.64 46 168 C45.05125 168.391875 44.1025 168.78375 43.125 169.1875 C39.52573158 171.27507568 39.3190558 172.23126913 38 176 C35.875 177.8125 35.875 177.8125 34 179 C34.33 179.66 34.66 180.32 35 181 C34.01 181.66 33.02 182.32 32 183 C32.33 183.66 32.66 184.32 33 185 C31.6696875 185.2165625 31.6696875 185.2165625 30.3125 185.4375 C29.219375 185.623125 28.12625 185.80875 27 186 C26.113125 186.061875 25.22625 186.12375 24.3125 186.1875 C21.64848903 186.84505006 21.64848903 186.84505006 20.1875 190.0625 C19.795625 191.031875 19.40375 192.00125 19 193 C17.9275 192.938125 16.855 192.87625 15.75 192.8125 C11.75419151 193.01229042 10.86195538 193.43410897 8 196 C6.68163705 196.69580267 5.35208914 197.37224433 4 198 C4.99 198.99 5.98 199.98 7 201 C6.01 201.33 5.02 201.66 4 202 C3.67 201.67 3.34 201.34 3 201 C2.34 201.66 1.68 202.32 1 203 C-0.32 202.34 -1.64 201.68 -3 201 C-3.45375 201.495 -3.9075 201.99 -4.375 202.5 C-6 204 -6 204 -8 204 C-8.33 204.66 -8.66 205.32 -9 206 C-10.98 205.67 -12.96 205.34 -15 205 C-15.33 205.66 -15.66 206.32 -16 207 C-16.99 206.67 -17.98 206.34 -19 206 C-19.33 206.99 -19.66 207.98 -20 209 C-21.65 208.34 -23.3 207.68 -25 207 C-25 207.99 -25 208.98 -25 210 C-24.34 210.33 -23.68 210.66 -23 211 C-23.66 211 -24.32 211 -25 211 C-25 211.99 -25 212.98 -25 214 C-25.66 213.67 -26.32 213.34 -27 213 C-26.67 212.34 -26.34 211.68 -26 211 C-30.64586892 211.48484276 -30.64586892 211.48484276 -35 213 C-35.33 212.34 -35.66 211.68 -36 211 C-36.99 211 -37.98 211 -39 211 C-39.33 211.99 -39.66 212.98 -40 214 C-41.65 213.67 -43.3 213.34 -45 213 C-45.33 213.66 -45.66 214.32 -46 215 C-47.32 214.67 -48.64 214.34 -50 214 C-50 214.99 -50 215.98 -50 217 C-54.71403788 216.52060632 -58.66579301 216.03165952 -63 214 C-63.66 214.99 -64.32 215.98 -65 217 C-65.66 217 -66.32 217 -67 217 C-67.99 216.01 -67.99 216.01 -69 215 C-71.97 215.99 -71.97 215.99 -75 217 C-75.33 216.01 -75.66 215.02 -76 214 C-76.7425 214.309375 -77.485 214.61875 -78.25 214.9375 C-84.24210526 217.25263158 -84.24210526 217.25263158 -88 216 C-88.33 215.67 -88.66 215.34 -89 215 C-89.66 215.66 -90.32 216.32 -91 217 C-91.66 216.01 -92.32 215.02 -93 214 C-93.99 214.66 -94.98 215.32 -96 216 C-96 215.34 -96 214.68 -96 214 C-96.86625 214.165 -97.7325 214.33 -98.625 214.5 C-101.81225199 214.97218548 -104.78485027 215.07655118 -108 215 C-108.33 214.01 -108.66 213.02 -109 212 C-110.65 211.67 -112.3 211.34 -114 211 C-114.33 211.99 -114.66 212.98 -115 214 C-116.65 214 -118.3 214 -120 214 C-119.34 213.01 -118.68 212.02 -118 211 C-119.3303125 211.0309375 -119.3303125 211.0309375 -120.6875 211.0625 C-128.07692308 210.92307692 -128.07692308 210.92307692 -131 208 C-131.24050903 205.59555054 -131.24050903 205.59555054 -131.22705078 202.54052734 C-131.22689972 201.39949554 -131.22674866 200.25846375 -131.22659302 199.08285522 C-131.21627045 197.84637238 -131.20594788 196.60988953 -131.1953125 195.3359375 C-131.1924826 194.07359283 -131.18965271 192.81124817 -131.18673706 191.51065063 C-131.17742131 188.15353056 -131.15944835 184.79668088 -131.1373291 181.43963623 C-131.1168755 178.01446878 -131.1077364 174.58927341 -131.09765625 171.1640625 C-131.07556458 164.44263329 -131.04206377 157.72133227 -131 151 C-130.43636246 151.25954468 -129.87272491 151.51908936 -129.29200745 151.78649902 C-126.69828226 152.97735211 -124.10114661 154.16058427 -121.50390625 155.34375 C-120.61755493 155.75206055 -119.73120361 156.16037109 -118.81799316 156.58105469 C-107.97330227 161.50615448 -96.96636595 164.66291927 -85 165 C-84.21173828 165.02578125 -83.42347656 165.0515625 -82.61132812 165.078125 C-70.98935494 165.41572771 -60.22281601 165.32280759 -49 162 C-47.78183594 161.64808594 -46.56367187 161.29617187 -45.30859375 160.93359375 C-31.28537312 156.57560826 -19.36283914 150.28802686 -8 141 C-7.20980469 140.37480469 -6.41960937 139.74960938 -5.60546875 139.10546875 C11.53263758 124.84872531 22.84302805 101.88676821 26 80 C26.28492499 76.09924124 26.33450424 72.2226535 26.3125 68.3125 C26.30404053 66.73094116 26.30404053 66.73094116 26.29541016 65.11743164 C25.93159105 41.6006689 16.89139482 21.80988518 2.1953125 3.7734375 C0 1 0 1 0 0 Z M58 1 C57.67 1.66 57.34 2.32 57 3 C57.66 3 58.32 3 59 3 C58.67 2.34 58.34 1.68 58 1 Z M71 63 C72 65 72 65 72 65 Z M70 65 C71 67 71 67 71 67 Z M69 106 C70 108 70 108 70 108 Z M61 131 C62 133 62 133 62 133 Z M54 146 C54.33 146.99 54.66 147.98 55 149 C55 148.01 55 147.02 55 146 C54.67 146 54.34 146 54 146 Z M43 165 C44 167 44 167 44 167 Z M28 179 C29 181 29 181 29 181 Z M2 197 C3 199 3 199 3 199 Z M-10 202 C-9.34 202.66 -8.68 203.32 -8 204 C-8 203.34 -8 202.68 -8 202 C-8.66 202 -9.32 202 -10 202 Z M-86 213 C-86.33 213.66 -86.66 214.32 -87 215 C-86.34 215 -85.68 215 -85 215 C-85.33 214.34 -85.66 213.68 -86 213 Z M-53 213 C-53.33 213.99 -53.66 214.98 -54 216 C-53.34 216 -52.68 216 -52 216 C-52.33 215.01 -52.66 214.02 -53 213 Z M-74 214 C-73.67 214.66 -73.34 215.32 -73 216 C-72.67 215.34 -72.34 214.68 -72 214 C-72.66 214 -73.32 214 -74 214 Z " fill="#0373FF" transform="translate(131,0)"/>
<path d="M0 0 C0.66 0 1.32 0 2 0 C2 0.66 2 1.32 2 2 C2.9075 1.7525 3.815 1.505 4.75 1.25 C8 1 8 1 10.375 2.9375 C10.91125 3.618125 11.4475 4.29875 12 5 C12.99 4.67 13.98 4.34 15 4 C16 6 16 6 17 9 C17.99 9.99 17.99 9.99 19 11 C18 14 18 14 16 16 C16.3185177 18.10820797 16.3185177 18.10820797 17 20 C15.865625 20.45375 14.73125 20.9075 13.5625 21.375 C9.95278308 22.57095806 9.95278308 22.57095806 9 25 C10.485 25.495 10.485 25.495 12 26 C10.68 26.33 9.36 26.66 8 27 C8.99 27.99 8.99 27.99 10 29 C8.68 29.99 7.36 30.98 6 32 C6 31.34 6 30.68 6 30 C5.34 30 4.68 30 4 30 C4.495 31.98 4.495 31.98 5 34 C4.05125 34.391875 3.1025 34.78375 2.125 35.1875 C-1.47426842 37.27507568 -1.6809442 38.23126913 -3 42 C-5.125 43.8125 -5.125 43.8125 -7 45 C-6.67 45.66 -6.34 46.32 -6 47 C-6.99 47.66 -7.98 48.32 -9 49 C-8.67 49.66 -8.34 50.32 -8 51 C-8.886875 51.144375 -9.77375 51.28875 -10.6875 51.4375 C-11.780625 51.623125 -12.87375 51.80875 -14 52 C-15.3303125 52.0928125 -15.3303125 52.0928125 -16.6875 52.1875 C-19.35151097 52.84505006 -19.35151097 52.84505006 -20.8125 56.0625 C-21.204375 57.031875 -21.59625 58.00125 -22 59 C-23.0725 58.938125 -24.145 58.87625 -25.25 58.8125 C-29.24580849 59.01229042 -30.13804462 59.43410897 -33 62 C-34.31836295 62.69580267 -35.64791086 63.37224433 -37 64 C-36.01 64.99 -35.02 65.98 -34 67 C-35.485 67.495 -35.485 67.495 -37 68 C-37.33 67.67 -37.66 67.34 -38 67 C-38.66 67.66 -39.32 68.32 -40 69 C-41.32 68.34 -42.64 67.68 -44 67 C-44.45375 67.495 -44.9075 67.99 -45.375 68.5 C-47 70 -47 70 -49 70 C-49.33 70.66 -49.66 71.32 -50 72 C-52.97 71.505 -52.97 71.505 -56 71 C-56.33 71.66 -56.66 72.32 -57 73 C-57.99 72.67 -58.98 72.34 -60 72 C-60.495 73.485 -60.495 73.485 -61 75 C-62.65 74.34 -64.3 73.68 -66 73 C-66 73.99 -66 74.98 -66 76 C-65.01 76.495 -65.01 76.495 -64 77 C-64.66 77 -65.32 77 -66 77 C-66 77.99 -66 78.98 -66 80 C-66.99 79.505 -66.99 79.505 -68 79 C-67.67 78.34 -67.34 77.68 -67 77 C-71.64586892 77.48484276 -71.64586892 77.48484276 -76 79 C-76.495 78.01 -76.495 78.01 -77 77 C-77.99 77 -78.98 77 -80 77 C-80.33 77.99 -80.66 78.98 -81 80 C-82.65 79.67 -84.3 79.34 -86 79 C-86.33 79.66 -86.66 80.32 -87 81 C-88.32 80.67 -89.64 80.34 -91 80 C-91 80.99 -91 81.98 -91 83 C-99.57142857 82.28571429 -99.57142857 82.28571429 -103 79 C-102.67 78.01 -102.34 77.02 -102 76 C-100.3603125 76.2784375 -100.3603125 76.2784375 -98.6875 76.5625 C-95.06375867 77.2578068 -95.06375867 77.2578068 -92 76 C-92.33 75.01 -92.66 74.02 -93 73 C-92.67 72.01 -92.34 71.02 -92 70 C-92.66 69.67 -93.32 69.34 -94 69 C-93.01 68.01 -93.01 68.01 -92 67 C-89.54901444 67.39532025 -87.36095721 68.21301426 -85 69 C-85.99 69.99 -85.99 69.99 -87 71 C-86.34 71.33 -85.68 71.66 -85 72 C-84.67 70.68 -84.34 69.36 -84 68 C-85.485 67.01 -85.485 67.01 -87 66 C-86.0409375 65.62875 -86.0409375 65.62875 -85.0625 65.25 C-82.81258459 64.18437567 -82.81258459 64.18437567 -82.25 61.875 C-82.1675 61.25625 -82.085 60.6375 -82 60 C-81.34 60.33 -80.68 60.66 -80 61 C-79.34 60.34 -78.68 59.68 -78 59 C-78 59.66 -78 60.32 -78 61 C-77.01 61 -76.02 61 -75 61 C-75 60.34 -75 59.68 -75 59 C-74.34 59 -73.68 59 -73 59 C-73 58.34 -73 57.68 -73 57 C-75.475 57.495 -75.475 57.495 -78 58 C-78 57.01 -78 56.02 -78 55 C-77.34 55 -76.68 55 -76 55 C-76 54.34 -76 53.68 -76 53 C-74.68 53.33 -73.36 53.66 -72 54 C-72.33 54.33 -72.66 54.66 -73 55 C-71.515 55.495 -71.515 55.495 -70 56 C-66.776062 57.36773127 -66.04194517 57.93708225 -64 61 C-63.34 61 -62.68 61 -62 61 C-61.34 62.32 -60.68 63.64 -60 65 C-57.13275314 64.42655063 -56.1385485 64.1385485 -54 62 C-53.67 62.99 -53.34 63.98 -53 65 C-52.34 64.34 -51.68 63.68 -51 63 C-51 61.68 -51 60.36 -51 59 C-50.34 59 -49.68 59 -49 59 C-49.33 58.34 -49.66 57.68 -50 57 C-50.66 57 -51.32 57 -52 57 C-51.67 56.01 -51.34 55.02 -51 54 C-50.21625 54.04125 -49.4325 54.0825 -48.625 54.125 C-45.83883881 54.28728734 -45.83883881 54.28728734 -44 52 C-43.505 53.98 -43.505 53.98 -43 56 C-41.35 56 -39.7 56 -38 56 C-38.33 57.65 -38.66 59.3 -39 61 C-38.34 61 -37.68 61 -37 61 C-35.56494217 58.5783399 -34.99446893 57.23230477 -35.0625 54.375 C-35.041875 53.59125 -35.02125 52.8075 -35 52 C-32.08235 50.0549 -30.37462715 49.54723683 -27 49 C-27 48.34 -27 47.68 -27 47 C-26.01 46.34 -25.02 45.68 -24 45 C-23.505 44.01 -23.505 44.01 -23 43 C-22.34 43.33 -21.68 43.66 -21 44 C-21 44.66 -21 45.32 -21 46 C-19.68 45.34 -18.36 44.68 -17 44 C-17.185625 43.38125 -17.37125 42.7625 -17.5625 42.125 C-18 40 -18 40 -17 38 C-16.34 38 -15.68 38 -15 38 C-14.505 37.01 -14.505 37.01 -14 36 C-12.8125 34.375 -12.8125 34.375 -11 33 C-7.8125 32.8125 -7.8125 32.8125 -5 33 C-5.66 32.67 -6.32 32.34 -7 32 C-7 31.01 -7 30.02 -7 29 C-7.99 29.99 -8.98 30.98 -10 32 C-10.495 30.02 -10.495 30.02 -11 28 C-10.34 28 -9.68 28 -9 28 C-8.71125 27.401875 -8.4225 26.80375 -8.125 26.1875 C-7 24 -7 24 -5 21 C-5.66 21 -6.32 21 -7 21 C-7 20.01 -7 19.02 -7 18 C-8.1446875 18.2475 -8.1446875 18.2475 -9.3125 18.5 C-12 19 -12 19 -15 19 C-16.6875 17 -16.6875 17 -18 15 C-18.66 16.32 -19.32 17.64 -20 19 C-20.99 18.34 -21.98 17.68 -23 17 C-21.625 14.5 -21.625 14.5 -20 12 C-19.34 12 -18.68 12 -18 12 C-17.67 11.34 -17.34 10.68 -17 10 C-16.505 11.98 -16.505 11.98 -16 14 C-15.01 14 -14.02 14 -13 14 C-13.99 13.01 -13.99 13.01 -15 12 C-13.68 11.34 -12.36 10.68 -11 10 C-10.01 10.66 -9.02 11.32 -8 12 C-5.87183587 11.84311576 -5.87183587 11.84311576 -4 11 C-3.67 10.34 -3.34 9.68 -3 9 C-2.01 9 -1.02 9 0 9 C-0.495 8.01 -0.495 8.01 -1 7 C-1.125 3.9375 -1.125 3.9375 -1 1 C-0.67 0.67 -0.34 0.34 0 0 Z M13 12 C13.33 12.99 13.66 13.98 14 15 C14 14.01 14 13.02 14 12 C13.67 12 13.34 12 13 12 Z M2 31 C3 33 3 33 3 33 Z M-13 45 C-12 47 -12 47 -12 47 Z M-39 63 C-38 65 -38 65 -38 65 Z M-51 68 C-50.34 68.66 -49.68 69.32 -49 70 C-49 69.34 -49 68.68 -49 68 C-49.66 68 -50.32 68 -51 68 Z M-94 79 C-94.33 79.99 -94.66 80.98 -95 82 C-94.34 82 -93.68 82 -93 82 C-93.33 81.01 -93.66 80.02 -94 79 Z " fill="#0B70FF" transform="translate(172,134)"/>
<path d="M0 0 C1.32 0.99 2.64 1.98 4 3 C3.67 4.32 3.34 5.64 3 7 C3.66 7.33 4.32 7.66 5 8 C4.690625 9.6396875 4.690625 9.6396875 4.375 11.3125 C3.59653475 15.0838401 3.59653475 15.0838401 6 18 C5.525625 18.9075 5.05125 19.815 4.5625 20.75 C3.35371179 23.26427949 2.52006114 25.29568209 2 28 C2.66 28.33 3.32 28.66 4 29 C4.07427838 32.34252724 4.06546953 34.8035914 3 38 C3.2475 39.4540625 3.2475 39.4540625 3.5 40.9375 C3.98865145 43.93049013 3.72904173 45.17496329 3 48 C3.32550502 49.66821323 3.65846063 51.33499557 4 53 C3.67 53.99 3.34 54.98 3 56 C2.7373792 58.57201645 2.55690972 61.14349966 2.37890625 63.72265625 C2 66 2 66 0 68 C0.33 68.99 0.66 69.98 1 71 C1 72.66666667 1 74.33333333 1 76 C-0.33333333 77.33333333 -1.66666667 78.66666667 -3 80 C-2.67 80.598125 -2.34 81.19625 -2 81.8125 C-1 84 -1 84 -1 87 C-1.66 87 -2.32 87 -3 87 C-3 86.01 -3 85.02 -3 84 C-4.62750037 86.32323453 -4.62750037 86.32323453 -6 89 C-5.67 89.99 -5.34 90.98 -5 92 C-4.65772583 93.33106622 -4.32248257 94.66400079 -4 96 C-5.98 96.495 -5.98 96.495 -8 97 C-8.103125 96.236875 -8.20625 95.47375 -8.3125 94.6875 C-9.04364039 91.82940576 -9.76951913 90.84257115 -12 89 C-12 89.33 -12 89.66 -12 90 C-13.485 90.495 -13.485 90.495 -15 91 C-15 90.01 -15 89.02 -15 88 C-15.66 87.67 -16.32 87.34 -17 87 C-17 86.34 -17 85.68 -17 85 C-17.99 84.34 -18.98 83.68 -20 83 C-19.01 82.505 -19.01 82.505 -18 82 C-17.87625 81.05125 -17.7525 80.1025 -17.625 79.125 C-17 76 -17 76 -15 74.25 C-14.34 73.8375 -13.68 73.425 -13 73 C-12.505 72.01 -12.505 72.01 -12 71 C-9.66682784 70.22227595 -7.38564077 69.57584432 -5 69 C-5 67.35 -5 65.7 -5 64 C-5.61488281 64.02320312 -6.22976562 64.04640625 -6.86328125 64.0703125 C-7.67152344 64.08835937 -8.47976562 64.10640625 -9.3125 64.125 C-10.11300781 64.14820312 -10.91351563 64.17140625 -11.73828125 64.1953125 C-14 64 -14 64 -17 62 C-16.0409375 61.8453125 -16.0409375 61.8453125 -15.0625 61.6875 C-14.0415625 61.3471875 -14.0415625 61.3471875 -13 61 C-12.67 60.01 -12.34 59.02 -12 58 C-12.99 57.67 -13.98 57.34 -15 57 C-14.34 56.01 -13.68 55.02 -13 54 C-11.35 54.33 -9.7 54.66 -8 55 C-8 56.32 -8 57.64 -8 59 C-5.83333333 58.16666667 -5.83333333 58.16666667 -5 56 C-4.34 56.33 -3.68 56.66 -3 57 C-4.3089572 53.87802522 -4.3089572 53.87802522 -7 52 C-5.515 51.505 -5.515 51.505 -4 51 C-4.495 49.515 -4.495 49.515 -5 48 C-4.01 48 -3.02 48 -2 48 C-1.34 46.35 -0.68 44.7 0 43 C-0.66 42.34 -1.32 41.68 -2 41 C-1.67 40.01 -1.34 39.02 -1 38 C-1.66 38 -2.32 38 -3 38 C-3 37.34 -3 36.68 -3 36 C-3.969375 36.020625 -4.93875 36.04125 -5.9375 36.0625 C-9 36 -9 36 -10 35 C-10 33.33333333 -10 31.66666667 -10 30 C-10.30378052 27.31006947 -10.30378052 27.31006947 -11 25 C-11.66 24.67 -12.32 24.34 -13 24 C-13.625 21.9375 -13.625 21.9375 -14 20 C-12.35 20 -10.7 20 -9 20 C-8.67 19.01 -8.34 18.02 -8 17 C-6.02 17.33 -4.04 17.66 -2 18 C-1.21329449 15.74239143 -1.21329449 15.74239143 -1 13 C-1.495 12.175 -1.99 11.35 -2.5 10.5 C-4 8 -4 8 -3.6875 5.1875 C-3.460625 4.465625 -3.23375 3.74375 -3 3 C-2.01 2.67 -1.02 2.34 0 2 C0 1.34 0 0.68 0 0 Z M3 17 C4 19 4 19 4 19 Z M2 19 C3 21 3 21 3 21 Z M1 60 C2 62 2 62 2 62 Z M-7 85 C-6 87 -6 87 -6 87 Z " fill="#2169FF" transform="translate(199,46)"/>
<path d="M0 0 C0.28875 0.639375 0.5775 1.27875 0.875 1.9375 C1.82823451 4.15206079 1.82823451 4.15206079 4 5 C5.1875 7.375 5.1875 7.375 6 10 C5.67 10.99 5.34 11.98 5 13 C2.525 12.01 2.525 12.01 0 11 C-0.66 11.99 -1.32 12.98 -2 14 C-2.66 14 -3.32 14 -4 14 C-4 15.32 -4 16.64 -4 18 C-4.33 18.66 -4.66 19.32 -5 20 C-6.98 19.67 -8.96 19.34 -11 19 C-11.33 19.66 -11.66 20.32 -12 21 C-12.99 20.67 -13.98 20.34 -15 20 C-15.495 21.485 -15.495 21.485 -16 23 C-18.475 22.01 -18.475 22.01 -21 21 C-21 21.99 -21 22.98 -21 24 C-20.34 24.33 -19.68 24.66 -19 25 C-19.66 25 -20.32 25 -21 25 C-21 25.99 -21 26.98 -21 28 C-21.66 27.67 -22.32 27.34 -23 27 C-22.67 26.34 -22.34 25.68 -22 25 C-26.64586892 25.48484276 -26.64586892 25.48484276 -31 27 C-31.33 26.34 -31.66 25.68 -32 25 C-32.99 25 -33.98 25 -35 25 C-35.33 25.99 -35.66 26.98 -36 28 C-37.65 27.67 -39.3 27.34 -41 27 C-41.33 27.66 -41.66 28.32 -42 29 C-43.32 28.67 -44.64 28.34 -46 28 C-46 28.99 -46 29.98 -46 31 C-54.57142857 30.28571429 -54.57142857 30.28571429 -58 27 C-57.505 25.515 -57.505 25.515 -57 24 C-55.906875 24.185625 -54.81375 24.37125 -53.6875 24.5625 C-50.06375867 25.2578068 -50.06375867 25.2578068 -47 24 C-47.33 23.01 -47.66 22.02 -48 21 C-47.67 20.01 -47.34 19.02 -47 18 C-47.66 17.67 -48.32 17.34 -49 17 C-48.34 16.34 -47.68 15.68 -47 15 C-44.54901444 15.39532025 -42.36095721 16.21301426 -40 17 C-40.66 17.66 -41.32 18.32 -42 19 C-41.34 19.33 -40.68 19.66 -40 20 C-39.67 18.68 -39.34 17.36 -39 16 C-39.99 15.34 -40.98 14.68 -42 14 C-41.360625 13.7525 -40.72125 13.505 -40.0625 13.25 C-37.81258459 12.18437567 -37.81258459 12.18437567 -37.25 9.875 C-37.1675 9.25625 -37.085 8.6375 -37 8 C-36.34 8.33 -35.68 8.66 -35 9 C-34.34 8.34 -33.68 7.68 -33 7 C-33 7.66 -33 8.32 -33 9 C-32.01 9 -31.02 9 -30 9 C-30 8.34 -30 7.68 -30 7 C-29.34 7 -28.68 7 -28 7 C-28 6.34 -28 5.68 -28 5 C-29.65 5.33 -31.3 5.66 -33 6 C-33 5.01 -33 4.02 -33 3 C-32.34 3 -31.68 3 -31 3 C-31 2.34 -31 1.68 -31 1 C-29.68 1.33 -28.36 1.66 -27 2 C-27.33 2.33 -27.66 2.66 -28 3 C-27.01 3.33 -26.02 3.66 -25 4 C-21.776062 5.36773127 -21.04194517 5.93708225 -19 9 C-18.34 9 -17.68 9 -17 9 C-16.34 10.32 -15.68 11.64 -15 13 C-12.13275314 12.42655063 -11.1385485 12.1385485 -9 10 C-8.505 11.485 -8.505 11.485 -8 13 C-7.34 12.34 -6.68 11.68 -6 11 C-6 9.68 -6 8.36 -6 7 C-5.34 7 -4.68 7 -4 7 C-4.495 6.01 -4.495 6.01 -5 5 C-5.66 5 -6.32 5 -7 5 C-6.67 4.01 -6.34 3.02 -6 2 C-4.35 2 -2.7 2 -1 2 C-0.67 1.34 -0.34 0.68 0 0 Z M-49 27 C-49.33 27.99 -49.66 28.98 -50 30 C-49.34 30 -48.68 30 -48 30 C-48.33 29.01 -48.66 28.02 -49 27 Z " fill="#1469FF" transform="translate(127,186)"/>
<path d="M0 0 C0.33 0.66 0.66 1.32 1 2 C1.66 2 2.32 2 3 2 C3.66 2.66 4.32 3.32 5 4 C5.33 3.01 5.66 2.02 6 1 C8.66666667 1 11.33333333 1 14 1 C14 1.99 14 2.98 14 4 C15.423125 4.2165625 15.423125 4.2165625 16.875 4.4375 C20 5 20 5 22 6 C22 7.32 22 8.64 22 10 C22.99 10 23.98 10 25 10 C25.99 8.02 26.98 6.04 28 4 C28.99 4 29.98 4 31 4 C30.34 5.65 29.68 7.3 29 9 C34.04468729 11.21474076 36.85910687 10.85072153 42 9 C41.67 10.65 41.34 12.3 41 14 C43.64 14 46.28 14 49 14 C49 13.01 49 12.02 49 11 C48.34 11 47.68 11 47 11 C46.34 9.35 45.68 7.7 45 6 C44.01 6 43.02 6 42 6 C41.505 4.515 41.505 4.515 41 3 C42.98 3 44.96 3 47 3 C47.268125 3.763125 47.53625 4.52625 47.8125 5.3125 C48.79264168 7.99106782 48.79264168 7.99106782 50.5625 9.5 C52.48593335 11.50706089 52.63468585 13.29667526 53 16 C53.66 16 54.32 16 55 16 C55 15.01 55 14.02 55 13 C55.66 13.33 56.32 13.66 57 14 C57.33 13.67 57.66 13.34 58 13 C58.99 12.67 59.98 12.34 61 12 C61.495 13.485 61.495 13.485 62 15 C58.8745041 17.64465038 55.91211733 18.84414715 52 20 C51.505 18.515 51.505 18.515 51 17 C49.88625 17.4640625 49.88625 17.4640625 48.75 17.9375 C42.75789474 20.25263158 42.75789474 20.25263158 39 19 C38.67 18.67 38.34 18.34 38 18 C37.34 18.66 36.68 19.32 36 20 C35.34 19.01 34.68 18.02 34 17 C33.01 17.66 32.02 18.32 31 19 C31 18.34 31 17.68 31 17 C29.700625 17.2475 29.700625 17.2475 28.375 17.5 C25.18774801 17.97218548 22.21514973 18.07655118 19 18 C18.67 17.01 18.34 16.02 18 15 C15.525 14.505 15.525 14.505 13 14 C12.67 14.99 12.34 15.98 12 17 C10.35 17 8.7 17 7 17 C7.66 16.01 8.32 15.02 9 14 C7.6078125 14.061875 7.6078125 14.061875 6.1875 14.125 C3 14 3 14 0 12 C-0.546875 9.6875 -0.546875 9.6875 -0.75 7 C-0.82734375 6.113125 -0.9046875 5.22625 -0.984375 4.3125 C-1 2 -1 2 0 0 Z M41 16 C40.67 16.66 40.34 17.32 40 18 C40.66 18 41.32 18 42 18 C41.67 17.34 41.34 16.68 41 16 Z M53 17 C53.33 17.66 53.66 18.32 54 19 C54.33 18.34 54.66 17.68 55 17 C54.34 17 53.68 17 53 17 Z " fill="#1562FF" transform="translate(4,197)"/>
<path d="M0 0 C1.9453125 -0.29296875 1.9453125 -0.29296875 4.125 -0.1875 C5.40375 -0.125625 6.6825 -0.06375 8 0 C8.16802051 1.45817797 8.33437143 2.9165484 8.5 4.375 C8.5928125 5.18710938 8.685625 5.99921875 8.78125 6.8359375 C9 9 9 9 9 11 C9.66 11 10.32 11 11 11 C11.103125 11.763125 11.20625 12.52625 11.3125 13.3125 C11.73854764 16.02284043 11.73854764 16.02284043 13.52734375 17.35546875 C15.54229363 19.6055852 15.33850918 21.02609164 15.25 24 C15.23453125 24.86625 15.2190625 25.7325 15.203125 26.625 C15 29 15 29 14 32 C15.32 32.33 16.64 32.66 18 33 C17.979375 33.763125 17.95875 34.52625 17.9375 35.3125 C17.87057159 38.10185786 17.87057159 38.10185786 19 41 C18.5625 43.6875 18.5625 43.6875 18 46 C16.68 45.34 15.36 44.68 14 44 C14 43.01 14 42.02 14 41 C12.36209288 39.95355934 10.68991979 38.9601817 9 38 C6.625 36.0625 6.625 36.0625 5 34 C5.25 31.75 5.25 31.75 6 30 C7.32 30 8.64 30 10 30 C10.33 27.36 10.66 24.72 11 22 C10.87625 22.639375 10.7525 23.27875 10.625 23.9375 C10.315625 24.9584375 10.315625 24.9584375 10 26 C7.53721199 27.231394 5.7204945 27.07159196 3 27 C2.67 26.34 2.34 25.68 2 25 C2.66 24.01 3.32 23.02 4 22 C2.35 22 0.7 22 -1 22 C-1 21.01 -1 20.02 -1 19 C-2.32 19.33 -3.64 19.66 -5 20 C-5 20.99 -5 21.98 -5 23 C-4.34 23.33 -3.68 23.66 -3 24 C-4.32 24.99 -5.64 25.98 -7 27 C-8 25 -8 25 -8 22 C-8.31421071 19.99690671 -8.6451046 17.99628664 -9 16 C-8.01 16.33 -7.02 16.66 -6 17 C-5.87625 15.88625 -5.7525 14.7725 -5.625 13.625 C-5 10 -5 10 -3 8 C-4.65 8 -6.3 8 -8 8 C-6 6 -6 6 -4 5 C-1.83656989 2.96731398 -1.83656989 2.96731398 0 0 Z M4 1 C3.67 1.66 3.34 2.32 3 3 C3.66 3 4.32 3 5 3 C4.67 2.34 4.34 1.68 4 1 Z " fill="#0779FF" transform="translate(185,0)"/>
<path d="M0 0 C1.25 2.6875 1.25 2.6875 2 6 C0.26061668 8.79543747 -1.04202062 10.52101031 -4 12 C-3.505 12.99 -3.505 12.99 -3 14 C-3.99 14.66 -4.98 15.32 -6 16 C-5.505 16.99 -5.505 16.99 -5 18 C-5.886875 18.144375 -6.77375 18.28875 -7.6875 18.4375 C-8.780625 18.623125 -9.87375 18.80875 -11 19 C-11.886875 19.061875 -12.77375 19.12375 -13.6875 19.1875 C-16.35151097 19.84505006 -16.35151097 19.84505006 -17.8125 23.0625 C-18.204375 24.031875 -18.59625 25.00125 -19 26 C-20.0725 25.938125 -21.145 25.87625 -22.25 25.8125 C-26.24580849 26.01229042 -27.13804462 26.43410897 -30 29 C-31.31836295 29.69580267 -32.64791086 30.37224433 -34 31 C-33.01 31.99 -32.02 32.98 -31 34 C-32.485 34.495 -32.485 34.495 -34 35 C-34.33 34.67 -34.66 34.34 -35 34 C-35.66 34.66 -36.32 35.32 -37 36 C-38.32 35.34 -39.64 34.68 -41 34 C-41.45375 34.495 -41.9075 34.99 -42.375 35.5 C-44 37 -44 37 -46 37 C-45.40072174 33.64404172 -44.15377564 31.62198774 -42 29 C-39.69 29.99 -37.38 30.98 -35 32 C-36.32 29.36 -37.64 26.72 -39 24 C-37.68 23.67 -36.36 23.34 -35 23 C-35.33 24.65 -35.66 26.3 -36 28 C-35.34 28 -34.68 28 -34 28 C-32.56494217 25.5783399 -31.99446893 24.23230477 -32.0625 21.375 C-32.041875 20.59125 -32.02125 19.8075 -32 19 C-29.08235 17.0549 -27.37462715 16.54723683 -24 16 C-24 15.34 -24 14.68 -24 14 C-23.01 13.34 -22.02 12.68 -21 12 C-20.67 11.34 -20.34 10.68 -20 10 C-19.34 10.33 -18.68 10.66 -18 11 C-18 11.66 -18 12.32 -18 13 C-16.68 12.34 -15.36 11.68 -14 11 C-14.185625 10.38125 -14.37125 9.7625 -14.5625 9.125 C-15 7 -15 7 -14 5 C-13.34 5 -12.68 5 -12 5 C-11.67 4.34 -11.34 3.68 -11 3 C-8.26493631 -1.18303859 -4.51962084 -0.22227643 0 0 Z M-10 12 C-9 14 -9 14 -9 14 Z " fill="#3F53FF" transform="translate(169,167)"/>
<path d="M0 0 C0.309375 0.928125 0.309375 0.928125 0.625 1.875 C2.55502649 4.85776821 4.64399185 5.14314686 8 6 C8.33 6 8.66 6 9 6 C9.33 4.35 9.66 2.7 10 1 C12.31 1.33 14.62 1.66 17 2 C17 3.32 17 4.64 17 6 C16.34 6.66 15.68 7.32 15 8 C15 8.66 15 9.32 15 10 C16.98 9.34 18.96 8.68 21 8 C21 8.66 21 9.32 21 10 C21.66 10 22.32 10 23 10 C22.34 11.65 21.68 13.3 21 15 C21.66 15.33 22.32 15.66 23 16 C23 15.01 23 14.02 23 13 C23.99 13 24.98 13 26 13 C26 13.66 26 14.32 26 15 C26.66 15.33 27.32 15.66 28 16 C27.01 16.495 27.01 16.495 26 17 C26 17.66 26 18.32 26 19 C25.34 19 24.68 19 24 19 C23.67 19.66 23.34 20.32 23 21 C20.69 20.34 18.38 19.68 16 19 C15.896875 19.598125 15.79375 20.19625 15.6875 20.8125 C14.90175967 23.31258286 14.03081147 24.37535082 12 26 C11.34 26 10.68 26 10 26 C10.33 23.36 10.66 20.72 11 18 C10.01 18.99 9.02 19.98 8 21 C5.2160817 19.60804085 5.02101003 17.84424221 4 15 C3.01 15.495 3.01 15.495 2 16 C1.01 14.68 0.02 13.36 -1 12 C-0.67 11.67 -0.34 11.34 0 11 C-0.66 10.67 -1.32 10.34 -2 10 C-2 9.34 -2 8.68 -2 8 C-3.32 7.34 -4.64 6.68 -6 6 C-5.67 5.34 -5.34 4.68 -5 4 C-4.34 3.855625 -3.68 3.71125 -3 3.5625 C-2.01 3.2840625 -2.01 3.2840625 -1 3 C-0.67 2.01 -0.34 1.02 0 0 Z " fill="#0770FF" transform="translate(54,191)"/>
<path d="M0 0 C1.32 0.99 2.64 1.98 4 3 C3.67 4.32 3.34 5.64 3 7 C3.66 7.33 4.32 7.66 5 8 C4.690625 9.6396875 4.690625 9.6396875 4.375 11.3125 C3.59653475 15.0838401 3.59653475 15.0838401 6 18 C5.525625 18.9075 5.05125 19.815 4.5625 20.75 C3.35371179 23.26427949 2.52006114 25.29568209 2 28 C2.66 28.33 3.32 28.66 4 29 C4.125 34.75 4.125 34.75 3 37 C2.34 37 1.68 37 1 37 C1 35.68 1 34.36 1 33 C0.01 33.495 0.01 33.495 -1 34 C-0.67 34.99 -0.34 35.98 0 37 C-1.47968324 36.85950482 -2.95874516 36.71245174 -4.4375 36.5625 C-5.26121094 36.48128906 -6.08492187 36.40007812 -6.93359375 36.31640625 C-9 36 -9 36 -10 35 C-10 33.33333333 -10 31.66666667 -10 30 C-10.30378052 27.31006947 -10.30378052 27.31006947 -11 25 C-11.66 24.67 -12.32 24.34 -13 24 C-13.625 21.9375 -13.625 21.9375 -14 20 C-12.35 20 -10.7 20 -9 20 C-8.67 19.01 -8.34 18.02 -8 17 C-6.02 17.33 -4.04 17.66 -2 18 C-1.21329449 15.74239143 -1.21329449 15.74239143 -1 13 C-1.495 12.175 -1.99 11.35 -2.5 10.5 C-4 8 -4 8 -3.6875 5.1875 C-3.460625 4.465625 -3.23375 3.74375 -3 3 C-2.01 2.67 -1.02 2.34 0 2 C0 1.34 0 0.68 0 0 Z M3 17 C4 19 4 19 4 19 Z M2 19 C3 21 3 21 3 21 Z " fill="#076FFF" transform="translate(199,46)"/>
<path d="M0 0 C0.99 0.33 1.98 0.66 3 1 C4.66362417 1.34820041 6.32995171 1.68404492 8 2 C7.42655063 4.86724686 7.1385485 5.8614515 5 8 C5.3185177 10.10820797 5.3185177 10.10820797 6 12 C4.865625 12.45375 3.73125 12.9075 2.5625 13.375 C-1.04721692 14.57095806 -1.04721692 14.57095806 -2 17 C-1.01 17.33 -0.02 17.66 1 18 C-0.32 18.33 -1.64 18.66 -3 19 C-2.34 19.66 -1.68 20.32 -1 21 C-2.32 21.99 -3.64 22.98 -5 24 C-5 23.34 -5 22.68 -5 22 C-5.66 22 -6.32 22 -7 22 C-6.67 23.32 -6.34 24.64 -6 26 C-7.32 26 -8.64 26 -10 26 C-10 25.34 -10 24.68 -10 24 C-10.66 24 -11.32 24 -12 24 C-12 23.34 -12 22.68 -12 22 C-12.99 21.67 -13.98 21.34 -15 21 C-15 18 -15 18 -13.5 16.4375 C-13.005 15.963125 -12.51 15.48875 -12 15 C-12 14.34 -12 13.68 -12 13 C-10.6875 11.375 -10.6875 11.375 -9 10 C-8.01 10 -7.02 10 -6 10 C-5.34 8.68 -4.68 7.36 -4 6 C-3.34 6 -2.68 6 -2 6 C-1.855625 5.195625 -1.71125 4.39125 -1.5625 3.5625 C-1 1 -1 1 0 0 Z M2 4 C2.33 4.99 2.66 5.98 3 7 C3 6.01 3 5.02 3 4 C2.67 4 2.34 4 2 4 Z M-9 23 C-8 25 -8 25 -8 25 Z " fill="#3D66FF" transform="translate(183,142)"/>
<path d="M0 0 C2.76276177 0.52268466 5.3260876 1.10869587 8 2 C7.34 2.66 6.68 3.32 6 4 C6.77085938 4.03738281 7.54171875 4.07476562 8.3359375 4.11328125 C9.33882812 4.17902344 10.34171875 4.24476563 11.375 4.3125 C12.87160156 4.39951172 12.87160156 4.39951172 14.3984375 4.48828125 C15.68621094 4.74158203 15.68621094 4.74158203 17 5 C17.99 6.485 17.99 6.485 19 8 C22.56769552 8.73606499 22.56769552 8.73606499 26 9 C25.505 7.02 25.505 7.02 25 5 C25.66 5.33 26.32 5.66 27 6 C27 6.99 27 7.98 27 9 C27.66 9.33 28.32 9.66 29 10 C28.34 10 27.68 10 27 10 C27 10.99 27 11.98 27 13 C26.34 12.67 25.68 12.34 25 12 C25.33 11.34 25.66 10.68 26 10 C21.35413108 10.48484276 21.35413108 10.48484276 17 12 C16.67 11.34 16.34 10.68 16 10 C15.01 10 14.02 10 13 10 C12.67 10.99 12.34 11.98 12 13 C9.525 12.505 9.525 12.505 7 12 C6.67 12.66 6.34 13.32 6 14 C4.68 13.67 3.36 13.34 2 13 C2 13.99 2 14.98 2 16 C-6.57142857 15.28571429 -6.57142857 15.28571429 -10 12 C-9.67 11.01 -9.34 10.02 -9 9 C-7.906875 9.185625 -6.81375 9.37125 -5.6875 9.5625 C-2.06375867 10.2578068 -2.06375867 10.2578068 1 9 C0.67 8.01 0.34 7.02 0 6 C0.33 5.01 0.66 4.02 1 3 C0.34 2.67 -0.32 2.34 -1 2 C-0.67 1.34 -0.34 0.68 0 0 Z M-1 12 C-1.33 12.99 -1.66 13.98 -2 15 C-1.34 15 -0.68 15 0 15 C-0.33 14.01 -0.66 13.02 -1 12 Z " fill="#2070FF" transform="translate(79,201)"/>
<path d="M0 0 C2.8911845 1.29604822 5.01918067 2.50293315 7 5 C7.328125 7.375 7.328125 7.375 7.25 10 C7.23453125 10.86625 7.2190625 11.7325 7.203125 12.625 C7 15 7 15 6 18 C7.32 18.33 8.64 18.66 10 19 C9.979375 19.763125 9.95875 20.52625 9.9375 21.3125 C9.87057159 24.10185786 9.87057159 24.10185786 11 27 C10.5625 29.6875 10.5625 29.6875 10 32 C8.68 31.34 7.36 30.68 6 30 C6 29.01 6 28.02 6 27 C4.36209288 25.95355934 2.68991979 24.9601817 1 24 C-1.375 22.0625 -1.375 22.0625 -3 20 C-2.75 17.75 -2.75 17.75 -2 16 C-0.68 16 0.64 16 2 16 C2.33 13.36 2.66 10.72 3 8 C2.87625 8.639375 2.7525 9.27875 2.625 9.9375 C2.41875 10.618125 2.2125 11.29875 2 12 C-0.46278801 13.231394 -2.2795055 13.07159196 -5 13 C-5.33 12.34 -5.66 11.68 -6 11 C-5.34 10.01 -4.68 9.02 -4 8 C-2.68 8 -1.36 8 0 8 C-0.185625 7.236875 -0.37125 6.47375 -0.5625 5.6875 C-1 3 -1 3 0 0 Z " fill="#115DFF" transform="translate(193,14)"/>
<path d="M0 0 C1.25 2.6875 1.25 2.6875 2 6 C0.26061668 8.79543747 -1.04202062 10.52101031 -4 12 C-3.67 12.66 -3.34 13.32 -3 14 C-3.99 14.66 -4.98 15.32 -6 16 C-5.67 16.66 -5.34 17.32 -5 18 C-5.928125 18.144375 -6.85625 18.28875 -7.8125 18.4375 C-11.00725111 18.92100111 -11.00725111 18.92100111 -14 20 C-14 19.34 -14 18.68 -14 18 C-13.34 18 -12.68 18 -12 18 C-12 16.02 -12 14.04 -12 12 C-12.66 11.67 -13.32 11.34 -14 11 C-14.6875 9.0625 -14.6875 9.0625 -15 7 C-14.67 6.34 -14.34 5.68 -14 5 C-13.34 5 -12.68 5 -12 5 C-11.67 4.34 -11.34 3.68 -11 3 C-8.26493631 -1.18303859 -4.51962084 -0.22227643 0 0 Z M-10 12 C-9 14 -9 14 -9 14 Z " fill="#2648FF" transform="translate(169,167)"/>
<path d="M0 0 C0.66 0.66 1.32 1.32 2 2 C1.75 4.5625 1.75 4.5625 1 7 C0.01 7.495 0.01 7.495 -1 8 C-1.33 7.67 -1.66 7.34 -2 7 C-2.33 7.66 -2.66 8.32 -3 9 C-0.61435923 8.42415568 1.66682784 7.77772405 4 7 C4.99 8.485 4.99 8.485 6 10 C6.66 9.34 7.32 8.68 8 8 C8 8.66 8 9.32 8 10 C8.99 10.33 9.98 10.66 11 11 C11.33 11.99 11.66 12.98 12 14 C10.02 14 8.04 14 6 14 C6 13.34 6 12.68 6 12 C3.51949651 13.24025174 2.61807583 14.77514573 1 17 C-1 19 -1 19 -4.625 19.125 C-5.73875 19.08375 -6.8525 19.0425 -8 19 C-8 15 -8 15 -7 12 C-7.66 12 -8.32 12 -9 12 C-8.67 11.38125 -8.34 10.7625 -8 10.125 C-6.55526881 7.05494623 -7.15152924 5.18176533 -8 2 C-7.34 1.67 -6.68 1.34 -6 1 C-6 1.66 -6 2.32 -6 3 C-4.02 2.01 -2.04 1.02 0 0 Z " fill="#0B6EFF" transform="translate(145,166)"/>
<path d="M0 0 C1.32 1.32 2.64 2.64 4 4 C3.67 4.66 3.34 5.32 3 6 C3.66 6.66 4.32 7.32 5 8 C4.01 8 3.02 8 2 8 C2 8.66 2 9.32 2 10 C1.484375 10.433125 0.96875 10.86625 0.4375 11.3125 C-1.29255415 12.94179551 -1.29255415 12.94179551 -0.8125 15.4375 C-0.10366843 17.98982396 -0.10366843 17.98982396 1.1875 20.0625 C2 22 2 22 1.3125 24.1875 C0 26 0 26 -3 27 C-5 22.125 -5 22.125 -5 21 C-6.98 21.66 -8.96 22.32 -11 23 C-10.01 21.35 -9.02 19.7 -8 18 C-8.66 18 -9.32 18 -10 18 C-10 17.34 -10 16.68 -10 16 C-9.34 16 -8.68 16 -8 16 C-7.62875 14.576875 -7.62875 14.576875 -7.25 13.125 C-6 10 -6 10 -3.875 8.625 C-3.25625 8.41875 -2.6375 8.2125 -2 8 C-2.99 7.67 -3.98 7.34 -5 7 C-4.34 6.67 -3.68 6.34 -3 6 C-3 4.35 -3 2.7 -3 1 C-2.01 0.67 -1.02 0.34 0 0 Z " fill="#1170FF" transform="translate(197,38)"/>
<path d="M0 0 C1.68704193 1.30745749 3.35360035 2.64172029 5 4 C5 4.33 5 4.66 5 5 C5.94875 5.061875 6.8975 5.12375 7.875 5.1875 C8.90625 5.455625 9.9375 5.72375 11 6 C12.375 8.5625 12.375 8.5625 13 11 C13.66 11 14.32 11 15 11 C15.33 12.32 15.66 13.64 16 15 C9.25 15.125 9.25 15.125 7 14 C7 12.68 7 11.36 7 10 C6.175 10.37125 5.35 10.7425 4.5 11.125 C-0.08490478 12.2712262 -2.52934962 11.38744322 -7 10 C-6.34 9.67 -5.68 9.34 -5 9 C-4.67 8.01 -4.34 7.02 -4 6 C-3.34 6 -2.68 6 -2 6 C-1.34 4.02 -0.68 2.04 0 0 Z " fill="#0971FF" transform="translate(38,197)"/>
<path d="M0 0 C0.33 0.66 0.66 1.32 1 2 C1.66 2 2.32 2 3 2 C2.34 3.65 1.68 5.3 1 7 C1.66 7.33 2.32 7.66 3 8 C3 7.01 3 6.02 3 5 C3.99 5 4.98 5 6 5 C6 5.66 6 6.32 6 7 C6.66 7.33 7.32 7.66 8 8 C7.01 8.495 7.01 8.495 6 9 C6 9.66 6 10.32 6 11 C5.34 11 4.68 11 4 11 C3.67 11.66 3.34 12.32 3 13 C0.69 12.34 -1.62 11.68 -4 11 C-4.103125 11.598125 -4.20625 12.19625 -4.3125 12.8125 C-5.09824033 15.31258286 -5.96918853 16.37535082 -8 18 C-8.66 18 -9.32 18 -10 18 C-9.79375 17.071875 -9.5875 16.14375 -9.375 15.1875 C-8.63307034 11.84826598 -8.63307034 11.84826598 -11 9 C-10.625 6.8125 -10.625 6.8125 -10 5 C-8.35 5 -6.7 5 -5 5 C-4.67 4.34 -4.34 3.68 -4 3 C-3.34 3 -2.68 3 -2 3 C-1.67 2.34 -1.34 1.68 -1 1 C-0.67 0.67 -0.34 0.34 0 0 Z " fill="#156EFF" transform="translate(74,199)"/>
<path d="M0 0 C0.99 0.33 1.98 0.66 3 1 C2.34 2.65 1.68 4.3 1 6 C1.99 6.33 2.98 6.66 4 7 C4 7.66 4 8.32 4 9 C5.65 8.34 7.3 7.68 9 7 C9.66 7.66 10.32 8.32 11 9 C10.6875 10.875 10.6875 10.875 10 13 C9.814375 13.7425 9.62875 14.485 9.4375 15.25 C9.293125 15.8275 9.14875 16.405 9 17 C9.66 17.33 10.32 17.66 11 18 C11 18.99 11 19.98 11 21 C9.68 21.33 8.36 21.66 7 22 C6.896875 21.236875 6.79375 20.47375 6.6875 19.6875 C5.95635961 16.82940576 5.23048087 15.84257115 3 14 C3 14.33 3 14.66 3 15 C2.01 15.33 1.02 15.66 0 16 C0 15.01 0 14.02 0 13 C-0.66 12.67 -1.32 12.34 -2 12 C-2 11.34 -2 10.68 -2 10 C-2.99 9.34 -3.98 8.68 -5 8 C-4.34 7.67 -3.68 7.34 -3 7 C-2.835 6.01 -2.67 5.02 -2.5 4 C-2.335 3.01 -2.17 2.02 -2 1 C-1.34 0.67 -0.68 0.34 0 0 Z M8 10 C9 12 9 12 9 12 Z " fill="#1C6BFF" transform="translate(184,121)"/>
<path d="M0 0 C0.33 0.66 0.66 1.32 1 2 C1.66 2 2.32 2 3 2 C3.66 2.66 4.32 3.32 5 4 C5.99 3.67 6.98 3.34 8 3 C10 3 10 3 12 4 C13.75 7.5625 13.75 7.5625 15 11 C12.03 10.505 12.03 10.505 9 10 C9 10.99 9 11.98 9 13 C6.1875 13.625 6.1875 13.625 3 14 C0 12 0 12 -0.546875 9.6875 C-0.61390625 8.800625 -0.6809375 7.91375 -0.75 7 C-0.82734375 6.113125 -0.9046875 5.22625 -0.984375 4.3125 C-1 2 -1 2 0 0 Z " fill="#3561FF" transform="translate(4,197)"/>
<path d="M0 0 C2 2 2 2 2.125 4.625 C2.08375 5.40875 2.0425 6.1925 2 7 C2.99 7.33 3.98 7.66 5 8 C4.34 9.98 3.68 11.96 3 14 C3.99 14.33 4.98 14.66 6 15 C4.1875 16.5625 4.1875 16.5625 2 18 C1.01 17.67 0.02 17.34 -1 17 C-1.33 17.66 -1.66 18.32 -2 19 C-2.66 19 -3.32 19 -4 19 C-3.67 17.02 -3.34 15.04 -3 13 C-3.66 13 -4.32 13 -5 13 C-6 10 -6 10 -4.78515625 7.51953125 C-4.21667969 6.62621094 -3.64820312 5.73289063 -3.0625 4.8125 C-2.49660156 3.91144531 -1.93070312 3.01039063 -1.34765625 2.08203125 C-0.90292969 1.39496094 -0.45820312 0.70789063 0 0 Z " fill="#086DFF" transform="translate(114,181)"/>
<path d="M0 0 C1.32 0.99 2.64 1.98 4 3 C3.67 4.32 3.34 5.64 3 7 C3.66 7.33 4.32 7.66 5 8 C4.79375 9.093125 4.5875 10.18625 4.375 11.3125 C3.59653475 15.0838401 3.59653475 15.0838401 6 18 C5.01 18.99 4.02 19.98 3 21 C3 20.34 3 19.68 3 19 C1.68 18.67 0.36 18.34 -1 18 C-1.33 19.32 -1.66 20.64 -2 22 C-3 19 -3 19 -1.875 16.125 C-0.60334518 13.00015363 -0.60334518 13.00015363 -2.4375 10.4375 C-2.953125 9.633125 -3.46875 8.82875 -4 8 C-3.6875 5.1875 -3.6875 5.1875 -3 3 C-2.01 2.67 -1.02 2.34 0 2 C0 1.34 0 0.68 0 0 Z M3 17 C4 19 4 19 4 19 Z " fill="#4B61FF" transform="translate(199,46)"/>
<path d="M0 0 C0.99 0 1.98 0 3 0 C3.66 1.65 4.32 3.3 5 5 C3.68 6.32 2.36 7.64 1 9 C2.32 9.33 3.64 9.66 5 10 C5 10.66 5 11.32 5 12 C5.99 12.33 6.98 12.66 8 13 C8 14.65 8 16.3 8 18 C7.34 18 6.68 18 6 18 C5.67 16.68 5.34 15.36 5 14 C2.69 14.33 0.38 14.66 -2 15 C-2 14.34 -2 13.68 -2 13 C-3.32 12.67 -4.64 12.34 -6 12 C-5.05066101 8.64566891 -4.10251165 5.30753495 -3 2 C-2.01 1.67 -1.02 1.34 0 1 C0 0.67 0 0.34 0 0 Z " fill="#235EFF" transform="translate(190,115)"/>
<path d="M0 0 C0.66 0 1.32 0 2 0 C4.14524634 5.45401613 5.33025251 9.14688895 4 15 C4.31088368 16.67099977 4.64080332 18.33871537 5 20 C4.67 20.99 4.34 21.98 4 23 C3.96079185 24.99961564 3.95556653 27.00049364 4 29 C3.01 29 2.02 29 1 29 C0.34 27.02 -0.32 25.04 -1 23 C-0.34 23 0.32 23 1 23 C0.443125 22.154375 -0.11375 21.30875 -0.6875 20.4375 C-2.08595247 16.77488639 -2.15002342 16.4495324 -0.6875 13.125 C-0.130625 12.09375 0.42625 11.0625 1 10 C0.34 9.34 -0.32 8.68 -1 8 C-0.67 7.01 -0.34 6.02 0 5 C-0.66 5 -1.32 5 -2 5 C-1.67 4.34 -1.34 3.68 -1 3 C-0.34 3.33 0.32 3.66 1 4 C1 3.34 1 2.68 1 2 C0.34 1.67 -0.32 1.34 -1 1 C-0.67 0.67 -0.34 0.34 0 0 Z " fill="#5874FF" transform="translate(198,79)"/>
<path d="M0 0 C0.4125 0.515625 0.825 1.03125 1.25 1.5625 C2.89081865 3.25326429 2.89081865 3.25326429 5.0625 2.8125 C7.18712526 2.06529664 7.18712526 2.06529664 9 0 C10.4606285 2.64738916 11 3.89448334 11 7 C10.360625 7.28875 9.72125 7.5775 9.0625 7.875 C6.84793921 8.82823451 6.84793921 8.82823451 6 11 C5.01 10.67 4.02 10.34 3 10 C2.67 10.99 2.34 11.98 2 13 C-0.475 12.01 -0.475 12.01 -3 11 C-2.69217504 9.35328588 -2.37860766 7.70764424 -2.0625 6.0625 C-1.88847656 5.14597656 -1.71445313 4.22945312 -1.53515625 3.28515625 C-1 1 -1 1 0 0 Z " fill="#3162FF" transform="translate(109,196)"/>
<path d="M0 0 C1.98 0 3.96 0 6 0 C6.268125 0.763125 6.53625 1.52625 6.8125 2.3125 C7.79264168 4.99106782 7.79264168 4.99106782 9.5625 6.5 C11.48593335 8.50706089 11.63468585 10.29667526 12 13 C12.66 13 13.32 13 14 13 C14 12.01 14 11.02 14 10 C14.66 10.33 15.32 10.66 16 11 C16.33 10.67 16.66 10.34 17 10 C17.99 9.67 18.98 9.34 20 9 C20.33 9.99 20.66 10.98 21 12 C17.8745041 14.64465038 14.91211733 15.84414715 11 17 C10.67 16.01 10.34 15.02 10 14 C8.68 14.33 7.36 14.66 6 15 C6 14.01 6 13.02 6 12 C6.66 11.67 7.32 11.34 8 11 C8 10.01 8 9.02 8 8 C7.34 8 6.68 8 6 8 C5.34 6.35 4.68 4.7 4 3 C3.01 3 2.02 3 1 3 C0.67 2.01 0.34 1.02 0 0 Z M12 14 C12.33 14.66 12.66 15.32 13 16 C13.33 15.34 13.66 14.68 14 14 C13.34 14 12.68 14 12 14 Z " fill="#1470FF" transform="translate(45,200)"/>
<path d="M0 0 C0.99 0.33 1.98 0.66 3 1 C4.66362417 1.34820041 6.32995171 1.68404492 8 2 C7.42655063 4.86724686 7.1385485 5.8614515 5 8 C5.33 9.32 5.66 10.64 6 12 C3.36 11.34 0.72 10.68 -2 10 C-2.99 11.485 -2.99 11.485 -4 13 C-5.9375 12.625 -5.9375 12.625 -8 12 C-8.33 11.34 -8.66 10.68 -9 10 C-8.01 10 -7.02 10 -6 10 C-5.34 8.68 -4.68 7.36 -4 6 C-3.34 6 -2.68 6 -2 6 C-1.855625 5.195625 -1.71125 4.39125 -1.5625 3.5625 C-1 1 -1 1 0 0 Z M2 4 C2.33 4.99 2.66 5.98 3 7 C3 6.01 3 5.02 3 4 C2.67 4 2.34 4 2 4 Z " fill="#6463FF" transform="translate(183,142)"/>
<path d="M0 0 C0.99 0.33 1.98 0.66 3 1 C4 6.75 4 6.75 4 9 C3.34 9 2.68 9 2 9 C3.12589193 12.3776758 4.31943052 13.71363192 7 16 C7.99 16 8.98 16 10 16 C10 16.66 10 17.32 10 18 C4.125 20 4.125 20 3 20 C3 18.35 3 16.7 3 15 C1.68 15 0.36 15 -1 15 C-1 14.01 -1 13.02 -1 12 C-1.99 12.99 -2.98 13.98 -4 15 C-4.33 13.68 -4.66 12.36 -5 11 C-4.34 11 -3.68 11 -3 11 C-2.71125 10.401875 -2.4225 9.80375 -2.125 9.1875 C-1 7 -1 7 1 4 C0.34 4 -0.32 4 -1 4 C-0.67 2.68 -0.34 1.36 0 0 Z " fill="#1F68FF" transform="translate(166,151)"/>
<path d="M0 0 C0.66 0.66 1.32 1.32 2 2 C1.67 2.66 1.34 3.32 1 4 C1.66 4 2.32 4 3 4 C3.60392878 8.07651928 4 11.88948243 4 16 C2 18 2 18 -1 20 C-2.32 19.34 -3.64 18.68 -5 18 C-4 15 -4 15 -2 13 C-2.15339844 12.39671875 -2.30679688 11.7934375 -2.46484375 11.171875 C-3.15179715 8.38394733 -2.54404626 6.91980582 -1.5625 4.25 C-1.27503906 3.45078125 -0.98757812 2.6515625 -0.69140625 1.828125 C-0.34916016 0.92320313 -0.34916016 0.92320313 0 0 Z " fill="#4758FF" transform="translate(196,106)"/>
<path d="M0 0 C3 1 6 2 9 3 C9.33 2.01 9.66 1.02 10 0 C10.5534764 2.07553648 11 3.84365964 11 6 C11.66 6 12.32 6 13 6 C13 6.66 13 7.32 13 8 C11.68 7.34 10.36 6.68 9 6 C8.34 6.66 7.68 7.32 7 8 C7 8.99 7 9.98 7 11 C1.25 11.125 1.25 11.125 -1 10 C-0.67 6.7 -0.34 3.4 0 0 Z " fill="#0767FF" transform="translate(183,5)"/>
<path d="M0 0 C1.32 0 2.64 0 4 0 C2.125 3.875 2.125 3.875 1 5 C2.98 5 4.96 5 7 5 C6.34 4.34 5.68 3.68 5 3 C5.66 3 6.32 3 7 3 C7.33 2.01 7.66 1.02 8 0 C8.99 0.33 9.98 0.66 11 1 C12.10773342 4.32320026 11.93312508 5.69164744 11 9 C10.34 9.66 9.68 10.32 9 11 C6.69 10.34 4.38 9.68 2 9 C2 8.01 2 7.02 2 6 C0.35 6 -1.3 6 -3 6 C-2.34 5.67 -1.68 5.34 -1 5 C-0.34444881 2.47266765 -0.34444881 2.47266765 0 0 Z " fill="#285BFF" transform="translate(94,199)"/>
<path d="M0 0 C-0.33 1.98 -0.66 3.96 -1 6 C-1.33 5.34 -1.66 4.68 -2 4 C-3.299375 4.2475 -3.299375 4.2475 -4.625 4.5 C-7.81225199 4.97218548 -10.78485027 5.07655118 -14 5 C-14.33 4.01 -14.66 3.02 -15 2 C-15.99 1.67 -16.98 1.34 -18 1 C-12.44858029 -2.18482809 -6.06838523 -1.5660349 0 0 Z " fill="#4F7CFF" transform="translate(37,210)"/>
<path d="M0 0 C0.66 0.33 1.32 0.66 2 1 C1.67 3.97 1.34 6.94 1 10 C-0.65 10 -2.3 10 -4 10 C-4.0825 10.78375 -4.165 11.5675 -4.25 12.375 C-5 15 -5 15 -7.0625 16.3125 C-7.701875 16.539375 -8.34125 16.76625 -9 17 C-9.99 16.01 -10.98 15.02 -12 14 C-10.02 14 -8.04 14 -6 14 C-6 13.01 -6 12.02 -6 11 C-6.66 11 -7.32 11 -8 11 C-8.33 9.02 -8.66 7.04 -9 5 C-6.36 5 -3.72 5 -1 5 C-0.67 3.35 -0.34 1.7 0 0 Z " fill="#0874FF" transform="translate(195,21)"/>
<path d="M0 0 C1.6045556 0.14148989 3.20863767 0.28835686 4.8125 0.4375 C5.70582031 0.51871094 6.59914063 0.59992188 7.51953125 0.68359375 C10 1 10 1 13 2 C13.33 1.34 13.66 0.68 14 0 C14 0.66 14 1.32 14 2 C14.99 2 15.98 2 17 2 C17 1.34 17 0.68 17 0 C18.33333333 0.66666667 19.66666667 1.33333333 21 2 C21 2.66 21 3.32 21 4 C18.525 3.505 18.525 3.505 16 3 C15.67 3.66 15.34 4.32 15 5 C13.68 4.67 12.36 4.34 11 4 C11 4.99 11 5.98 11 7 C2.42857143 6.28571429 2.42857143 6.28571429 -1 3 C-0.67 2.01 -0.34 1.02 0 0 Z M8 3 C7.67 3.99 7.34 4.98 7 6 C7.66 6 8.32 6 9 6 C8.67 5.01 8.34 4.02 8 3 Z " fill="#9142FF" transform="translate(70,210)"/>
<path d="M0 0 C3.875 1.75 3.875 1.75 5 4 C5.99 3.67 6.98 3.34 8 3 C9 5 9 5 10 8 C9.34 8.66 8.68 9.32 8 10 C6.68 9.34 5.36 8.68 4 8 C3.67 8.66 3.34 9.32 3 10 C0.83125748 9.49396008 -0.99967627 9.00016187 -3 8 C-2.67 7.34 -2.34 6.68 -2 6 C-2 5.67 -2 5.34 -2 5 C-2.66 4.67 -3.32 4.34 -4 4 C-2.68 2.68 -1.36 1.36 0 0 Z " fill="#266FFF" transform="translate(179,135)"/>
<path d="M0 0 C0.33 0.66 0.66 1.32 1 2 C0.67 2.99 0.34 3.98 0 5 C2.97 5.495 2.97 5.495 6 6 C5.34 7.65 4.68 9.3 4 11 C-1.875 10.125 -1.875 10.125 -3 9 C-3.66 9.66 -4.32 10.32 -5 11 C-5.33 8.36 -5.66 5.72 -6 3 C-4.02 2.01 -2.04 1.02 0 0 Z M0 7 C-0.33 7.66 -0.66 8.32 -1 9 C-0.34 9 0.32 9 1 9 C0.67 8.34 0.34 7.68 0 7 Z " fill="#4247FF" transform="translate(45,206)"/>
<path d="M0 0 C1.32 1.32 2.64 2.64 4 4 C3.67 4.66 3.34 5.32 3 6 C3.66 6.66 4.32 7.32 5 8 C4.01 8 3.02 8 2 8 C2 8.66 2 9.32 2 10 C0.35 10.33 -1.3 10.66 -3 11 C-3.33 12.32 -3.66 13.64 -4 15 C-4 14.34 -4 13.68 -4 13 C-4.99 12.67 -5.98 12.34 -7 12 C-5.66666667 10.66666667 -4.33333333 9.33333333 -3 8 C-3.66 7.34 -4.32 6.68 -5 6 C-4.34 6 -3.68 6 -3 6 C-3 4.35 -3 2.7 -3 1 C-2.01 0.67 -1.02 0.34 0 0 Z " fill="#1974FF" transform="translate(197,38)"/>
<path d="M0 0 C1.9453125 -0.29296875 1.9453125 -0.29296875 4.125 -0.1875 C5.40375 -0.125625 6.6825 -0.06375 8 0 C8.88492145 2.47778006 9.11637742 3.66056586 8.25 6.1875 C7 8 7 8 4 9 C4 8.34 4 7.68 4 7 C3.01 7.33 2.02 7.66 1 8 C0.01 7.01 -0.98 6.02 -2 5 C-2.33 6.32 -2.66 7.64 -3 9 C-4.65 8.67 -6.3 8.34 -8 8 C-6 6 -6 6 -4 5 C-1.83656989 2.96731398 -1.83656989 2.96731398 0 0 Z M4 1 C3.67 1.66 3.34 2.32 3 3 C3.66 3 4.32 3 5 3 C4.67 2.34 4.34 1.68 4 1 Z " fill="#2A85FF" transform="translate(185,0)"/>
<path d="M0 0 C0.66 0.33 1.32 0.66 2 1 C1.67 3.31 1.34 5.62 1 8 C1.66 8.33 2.32 8.66 3 9 C3.125 14.75 3.125 14.75 2 17 C1.34 17 0.68 17 0 17 C-0.33 14.69 -0.66 12.38 -1 10 C-1.66 10 -2.32 10 -3 10 C-3 9.34 -3 8.68 -3 8 C-4.32 8.33 -5.64 8.66 -7 9 C-6.67 7.35 -6.34 5.7 -6 4 C-4.02 3.67 -2.04 3.34 0 3 C0 2.01 0 1.02 0 0 Z " fill="#2C79FF" transform="translate(200,66)"/>
<path d="M0 0 C1.9375 0.625 1.9375 0.625 4 2 C4.75 5.125 4.75 5.125 5 8 C4.01 8 3.02 8 2 8 C1.67 9.65 1.34 11.3 1 13 C-0.98 13 -2.96 13 -5 13 C-5.33 12.34 -5.66 11.68 -6 11 C-5.34 10.01 -4.68 9.02 -4 8 C-2.68 8 -1.36 8 0 8 C-0.185625 7.236875 -0.37125 6.47375 -0.5625 5.6875 C-1 3 -1 3 0 0 Z " fill="#234FFF" transform="translate(193,14)"/>
<path d="M0 0 C0.66 0 1.32 0 2 0 C2.66 0.99 3.32 1.98 4 3 C4.66 2.34 5.32 1.68 6 1 C6 1.66 6 2.32 6 3 C6.99 3.33 7.98 3.66 9 4 C9.33 4.99 9.66 5.98 10 7 C8.02 7 6.04 7 4 7 C4 6.34 4 5.68 4 5 C1.78263366 6.10868317 -0.03617993 7.49440461 -2 9 C-2.66 8.67 -3.32 8.34 -4 8 C-3.79375 7.38125 -3.5875 6.7625 -3.375 6.125 C-3.25125 5.42375 -3.1275 4.7225 -3 4 C-3.66 3.34 -4.32 2.68 -5 2 C-4.360625 1.855625 -3.72125 1.71125 -3.0625 1.5625 C-1.02454854 1.18992819 -1.02454854 1.18992819 0 0 Z " fill="#1D55FF" transform="translate(147,173)"/>
<path d="M0 0 C0.66 1.32 1.32 2.64 2 4 C2.66 3.01 3.32 2.02 4 1 C5.32 1.33 6.64 1.66 8 2 C8 1.34 8 0.68 8 0 C8.66 0 9.32 0 10 0 C9.979375 0.763125 9.95875 1.52625 9.9375 2.3125 C9.87057159 5.10185786 9.87057159 5.10185786 11 8 C10.5625 10.6875 10.5625 10.6875 10 13 C8.68 12.34 7.36 11.68 6 11 C6 10.01 6 9.02 6 8 C3.62387135 6.39092892 3.62387135 6.39092892 1 5 C0.34 4.34 -0.32 3.68 -1 3 C-0.67 2.01 -0.34 1.02 0 0 Z " fill="#615BFF" transform="translate(193,33)"/>
<path d="M0 0 C0.90492188 0.02320312 1.80984375 0.04640625 2.7421875 0.0703125 C4.10730469 0.09738281 4.10730469 0.09738281 5.5 0.125 C6.19867188 0.14820312 6.89734375 0.17140625 7.6171875 0.1953125 C7.6171875 1.5153125 7.6171875 2.8353125 7.6171875 4.1953125 C6.6271875 4.5253125 5.6371875 4.8553125 4.6171875 5.1953125 C4.6171875 5.8553125 4.6171875 6.5153125 4.6171875 7.1953125 C2.6371875 7.1953125 0.6571875 7.1953125 -1.3828125 7.1953125 C-1.3828125 5.8753125 -1.3828125 4.5553125 -1.3828125 3.1953125 C-2.3728125 2.8653125 -3.3628125 2.5353125 -4.3828125 2.1953125 C-2.3828125 0.1953125 -2.3828125 0.1953125 0 0 Z " fill="#107AFF" transform="translate(177.3828125,-0.1953125)"/>
<path d="M0 0 C0.99 0.33 1.98 0.66 3 1 C3 1.66 3 2.32 3 3 C3.66 3 4.32 3 5 3 C5 3.99 5 4.98 5 6 C5.66 5.01 6.32 4.02 7 3 C7.99 3.33 8.98 3.66 10 4 C10.33 4.99 10.66 5.98 11 7 C10.01 8.485 10.01 8.485 9 10 C8.34 9.67 7.68 9.34 7 9 C7.33 8.34 7.66 7.68 8 7 C6.02 7.99 6.02 7.99 4 9 C3.67 8.01 3.34 7.02 3 6 C2.01 6 1.02 6 0 6 C-1.33981486 5.6937566 -2.67511887 5.36548445 -4 5 C-2 2 -2 2 0 0 Z " fill="#176FFF" transform="translate(179,131)"/>
<path d="M0 0 C1.98 0 3.96 0 6 0 C7.125 2.8125 7.125 2.8125 8 6 C7.01 7.485 7.01 7.485 6 9 C3.375 9.1875 3.375 9.1875 1 9 C1.33 7.68 1.66 6.36 2 5 C0.68 5.33 -0.64 5.66 -2 6 C-2 5.01 -2 4.02 -2 3 C-1.34 2.67 -0.68 2.34 0 2 C0 1.34 0 0.68 0 0 Z " fill="#9664FF" transform="translate(163,167)"/>
<path d="M0 0 C0.99 0 1.98 0 3 0 C3.66 1.32 4.32 2.64 5 4 C5.66 3.67 6.32 3.34 7 3 C7.33 3.99 7.66 4.98 8 6 C7.34 6 6.68 6 6 6 C5.896875 6.598125 5.79375 7.19625 5.6875 7.8125 C4.90175967 10.31258286 4.03081147 11.37535082 2 13 C1.34 13 0.68 13 0 13 C0.20625 12.071875 0.4125 11.14375 0.625 10.1875 C1.36692966 6.84826598 1.36692966 6.84826598 -1 4 C-0.625 1.8125 -0.625 1.8125 0 0 Z " fill="#1965FF" transform="translate(64,204)"/>
<path d="M0 0 C2.375 0.3125 2.375 0.3125 5 1 C5.66 1.99 6.32 2.98 7 4 C7.66 4.33 8.32 4.66 9 5 C8.54917531 6.46067199 8.08906463 7.91848032 7.625 9.375 C7.36976562 10.18710938 7.11453125 10.99921875 6.8515625 11.8359375 C6 14 6 14 4 16 C2.57713394 11.73140181 3 7.46584184 3 3 C2.34 3.99 1.68 4.98 1 6 C0 5 0 5 -0.0625 2.4375 C-0.041875 1.633125 -0.02125 0.82875 0 0 Z " fill="#1172FF" transform="translate(101,191)"/>
<path d="M0 0 C0.66 0 1.32 0 2 0 C2 0.66 2 1.32 2 2 C3.65 2 5.3 2 7 2 C7.33 2.99 7.66 3.98 8 5 C7.34 5 6.68 5 6 5 C5.67 5.66 5.34 6.32 5 7 C6.32 6.67 7.64 6.34 9 6 C8.67 6.99 8.34 7.98 8 9 C7.34 9 6.68 9 6 9 C6.33 10.65 6.66 12.3 7 14 C6.01 14.33 5.02 14.66 4 15 C4 14.01 4 13.02 4 12 C3.34 11.67 2.68 11.34 2 11 C2.226875 10.071875 2.45375 9.14375 2.6875 8.1875 C2.790625 7.135625 2.89375 6.08375 3 5 C1.64555699 3.22809091 1.64555699 3.22809091 0 2 C0 1.34 0 0.68 0 0 Z " fill="#0464FF" transform="translate(115,184)"/>
<path d="M0 0 C0.350625 0.474375 0.70125 0.94875 1.0625 1.4375 C3.84163543 3.67873825 6.5144717 3.67117658 10 4 C9.67 2.68 9.34 1.36 9 0 C9.66 0.33 10.32 0.66 11 1 C11 1.99 11 2.98 11 4 C11.66 4.33 12.32 4.66 13 5 C12.34 5 11.68 5 11 5 C11 5.99 11 6.98 11 8 C10.34 7.67 9.68 7.34 9 7 C9.33 6.34 9.66 5.68 10 5 C5.35413108 5.48484276 5.35413108 5.48484276 1 7 C0.67 6.34 0.34 5.68 0 5 C-1.32 5 -2.64 5 -4 5 C-3.6875 3.0625 -3.6875 3.0625 -3 1 C-2.01 0.67 -1.02 0.34 0 0 Z " fill="#7975FF" transform="translate(95,206)"/>
<path d="M0 0 C2.475 0.495 2.475 0.495 5 1 C5 1.66 5 2.32 5 3 C5.66 3 6.32 3 7 3 C7 3.99 7 4.98 7 6 C7.804375 6.226875 8.60875 6.45375 9.4375 6.6875 C12 8 12 8 12.875 10.5 C13 13 13 13 12 15 C9.2160817 13.60804085 9.02101003 11.84424221 8 9 C7.01 9.495 7.01 9.495 6 10 C5.01 8.68 4.02 7.36 3 6 C3.33 5.67 3.66 5.34 4 5 C3.34 4.67 2.68 4.34 2 4 C2 3.34 2 2.68 2 2 C1.34 2 0.68 2 0 2 C0 1.34 0 0.68 0 0 Z " fill="#1070FF" transform="translate(50,197)"/>
<path d="M0 0 C0.33 0.66 0.66 1.32 1 2 C1.66 2 2.32 2 3 2 C3.66 3.32 4.32 4.64 5 6 C4.34 6 3.68 6 3 6 C3 6.99 3 7.98 3 9 C3.66 9.33 4.32 9.66 5 10 C5 11.32 5 12.64 5 14 C2.525 13.01 2.525 13.01 0 12 C-0.19477739 10.37585622 -0.38059458 8.75063577 -0.5625 7.125 C-0.66691406 6.22007812 -0.77132813 5.31515625 -0.87890625 4.3828125 C-1 2 -1 2 0 0 Z " fill="#4E6DFF" transform="translate(4,197)"/>
<path d="M0 0 C0.99 0.66 1.98 1.32 3 2 C2 6 2 6 1 10 C1.66 10.33 2.32 10.66 3 11 C3 11.99 3 12.98 3 14 C1.68 14.33 0.36 14.66 -1 15 C-1.12375 14.236875 -1.2475 13.47375 -1.375 12.6875 C-1.88102792 9.79732864 -1.88102792 9.79732864 -4 7 C-2.68 4.69 -1.36 2.38 0 0 Z M0 3 C1 5 1 5 1 5 Z " fill="#848DFF" transform="translate(192,128)"/>
<path d="M0 0 C2.1875 1.4375 2.1875 1.4375 4 3 C3.67 3.66 3.34 4.32 3 5 C2.34 4.67 1.68 4.34 1 4 C1 6.64 1 9.28 1 12 C-1.97 11.505 -1.97 11.505 -5 11 C-4.67 10.34 -4.34 9.68 -4 9 C-4.33 8.67 -4.66 8.34 -5 8 C-5.66 7.34 -6.32 6.68 -7 6 C-5.35 5.67 -3.7 5.34 -2 5 C-2.33 3.68 -2.66 2.36 -3 1 C-2.01 0.67 -1.02 0.34 0 0 Z " fill="#458CFF" transform="translate(192,10)"/>
<path d="M0 0 C0.66 0 1.32 0 2 0 C2.66 1.65 3.32 3.3 4 5 C4.66 5 5.32 5 6 5 C6.33 6.32 6.66 7.64 7 9 C0.25 9.125 0.25 9.125 -2 8 C-1.47731534 5.23723823 -0.89130413 2.6739124 0 0 Z " fill="#0964FF" transform="translate(47,203)"/>
<path d="M0 0 C0.66 0 1.32 0 2 0 C2.53394179 1.4117783 3.05165104 2.82970244 3.5625 4.25 C3.85253906 5.03890625 4.14257812 5.8278125 4.44140625 6.640625 C5.04522837 9.19103452 4.8473932 10.55322229 4 13 C3.01 13 2.02 13 1 13 C1 13.66 1 14.32 1 15 C0.34 15 -0.32 15 -1 15 C-0.34 13.35 0.32 11.7 1 10 C0.34 9.34 -0.32 8.68 -1 8 C-0.67 7.01 -0.34 6.02 0 5 C-0.66 5 -1.32 5 -2 5 C-1.67 4.34 -1.34 3.68 -1 3 C-0.34 3.33 0.32 3.66 1 4 C1 3.34 1 2.68 1 2 C0.34 1.67 -0.32 1.34 -1 1 C-0.67 0.67 -0.34 0.34 0 0 Z " fill="#5E37FF" transform="translate(198,79)"/>
<path d="M0 0 C0 0.99 0 1.98 0 3 C-5.41538462 6.07692308 -5.41538462 6.07692308 -8.375 5.6875 C-8.91125 5.460625 -9.4475 5.23375 -10 5 C-9.67 3.35 -9.34 1.7 -9 0 C-8.01 0 -7.02 0 -6 0 C-3.50907189 -1.24546405 -2.58919267 -0.7767578 0 0 Z " fill="#1167FF" transform="translate(47,203)"/>
<path d="M0 0 C1.65 0 3.3 0 5 0 C4.67 0.99 4.34 1.98 4 3 C4.99 3.33 5.98 3.66 7 4 C5.68 4.33 4.36 4.66 3 5 C3.66 5.66 4.32 6.32 5 7 C3.68 7.99 2.36 8.98 1 10 C1 9.34 1 8.68 1 8 C0.34 8 -0.32 8 -1 8 C-0.67 9.32 -0.34 10.64 0 12 C-0.66 11.67 -1.32 11.34 -2 11 C-2.28571429 3.57142857 -2.28571429 3.57142857 0 0 Z " fill="#AE9AFF" transform="translate(177,156)"/>
<path d="M0 0 C1.81495662 0.44850658 3.62693134 0.90909571 5.4375 1.375 C6.95150391 1.75785156 6.95150391 1.75785156 8.49609375 2.1484375 C11 3 11 3 12 5 C11.01 5.33 10.02 5.66 9 6 C8.67 5.67 8.34 5.34 8 5 C7.34 5.66 6.68 6.32 6 7 C4.68 6.34 3.36 5.68 2 5 C1.54625 5.495 1.0925 5.99 0.625 6.5 C-1 8 -1 8 -3 8 C-2.37063561 5.06296616 -1.37579827 2.66211372 0 0 Z " fill="#9FB4FF" transform="translate(126,196)"/>
<path d="M0 0 C1.23556641 0.01740234 1.23556641 0.01740234 2.49609375 0.03515625 C3.32238281 0.04417969 4.14867188 0.05320313 5 0.0625 C5.63808594 0.07410156 6.27617188 0.08570313 6.93359375 0.09765625 C6.27359375 2.07765625 5.61359375 4.05765625 4.93359375 6.09765625 C3.94359375 5.76765625 2.95359375 5.43765625 1.93359375 5.09765625 C1.60359375 5.42765625 1.27359375 5.75765625 0.93359375 6.09765625 C-0.05640625 6.09765625 -1.04640625 6.09765625 -2.06640625 6.09765625 C-2.44859392 4.44150968 -2.78035727 2.77308601 -3.06640625 1.09765625 C-2.06640625 0.09765625 -2.06640625 0.09765625 0 0 Z " fill="#336AFF" transform="translate(86.06640625,205.90234375)"/>
<path d="M0 0 C1.32 0.66 2.64 1.32 4 2 C4 3.32 4 4.64 4 6 C3.34 6 2.68 6 2 6 C2.33 6.99 2.66 7.98 3 9 C2.34 9 1.68 9 1 9 C0.67 9.99 0.34 10.98 0 12 C-0.66 12 -1.32 12 -2 12 C-1.67 10.68 -1.34 9.36 -1 8 C-1.99 7.34 -2.98 6.68 -4 6 C-2.68 5.34 -1.36 4.68 0 4 C0 2.68 0 1.36 0 0 Z " fill="#1367FF" transform="translate(89,194)"/>
<path d="M0 0 C0.66 0 1.32 0 2 0 C2.33 0.99 2.66 1.98 3 3 C-0.1254959 5.64465038 -3.08788267 6.84414715 -7 8 C-7.33 6.02 -7.66 4.04 -8 2 C-7.34 2 -6.68 2 -6 2 C-6 2.66 -6 3.32 -6 4 C-5.34 4 -4.68 4 -4 4 C-4 3.01 -4 2.02 -4 1 C-3.34 1.33 -2.68 1.66 -2 2 C-1.67 1.67 -1.34 1.34 -1 1 C-0.67 0.67 -0.34 0.34 0 0 Z M-6 5 C-5.67 5.66 -5.34 6.32 -5 7 C-4.67 6.34 -4.34 5.68 -4 5 C-4.66 5 -5.32 5 -6 5 Z " fill="#7291FF" transform="translate(63,209)"/>
<path d="M0 0 C1.98 0.99 3.96 1.98 6 3 C5.34 4.32 4.68 5.64 4 7 C3.34 7 2.68 7 2 7 C1.34 7.66 0.68 8.32 0 9 C-1.32 8.34 -2.64 7.68 -4 7 C-3.67 6.01 -3.34 5.02 -3 4 C-2.34 3.67 -1.68 3.34 -1 3 C-0.67 2.01 -0.34 1.02 0 0 Z " fill="#6286FF" transform="translate(195,117)"/>
<path d="M0 0 C-0.680625 0.515625 -1.36125 1.03125 -2.0625 1.5625 C-4.42428622 3.97254504 -4.42428622 3.97254504 -3.75 7.75 C-3.37875 9.35875 -3.37875 9.35875 -3 11 C-4.32 11 -5.64 11 -7 11 C-7.33 9.68 -7.66 8.36 -8 7 C-7.34 7 -6.68 7 -6 7 C-6.66 5.02 -7.32 3.04 -8 1 C-4.93251126 -0.86240388 -3.40254489 -1.2151946 0 0 Z " fill="#0D67FF" transform="translate(191,22)"/>
<path d="M0 0 C3 1 3 1 5 3.0625 C6.89502283 5.34789761 6.89502283 5.34789761 10 5 C10 5.66 10 6.32 10 7 C4.125 9 4.125 9 3 9 C3 7.35 3 5.7 3 4 C1.68 4 0.36 4 -1 4 C-0.67 2.68 -0.34 1.36 0 0 Z " fill="#353FFF" transform="translate(166,162)"/>
<path d="M0 0 C0 2.64 0 5.28 0 8 C-0.66 8 -1.32 8 -2 8 C-2 7.34 -2 6.68 -2 6 C-2.66 6 -3.32 6 -4 6 C-4 5.34 -4 4.68 -4 4 C-4.99 3.67 -5.98 3.34 -7 3 C-7 2.01 -7 1.02 -7 0 C-4.3333581 -1.33332095 -2.83319697 -0.67102033 0 0 Z " fill="#6A7FFF" transform="translate(175,160)"/>
<path d="M0 0 C0 0.66 0 1.32 0 2 C0.66 2 1.32 2 2 2 C2 2.66 2 3.32 2 4 C1.01 4.495 1.01 4.495 0 5 C0 5.66 0 6.32 0 7 C-3.875 6.125 -3.875 6.125 -5 5 C-5.66 5 -6.32 5 -7 5 C-7.33 4.01 -7.66 3.02 -8 2 C-4.91190305 0.23537317 -3.76687864 0 0 0 Z " fill="#0577FF" transform="translate(195,90)"/>
<path d="M0 0 C5.75 0.875 5.75 0.875 8 2 C8 2.99 8 3.98 8 5 C7.34 5 6.68 5 6 5 C6 5.66 6 6.32 6 7 C5.01 7.33 4.02 7.66 3 8 C2.690625 7.360625 2.38125 6.72125 2.0625 6.0625 C1.1654837 4.06389179 1.1654837 4.06389179 0 3 C0 2.01 0 1.02 0 0 Z " fill="#295FFF" transform="translate(18,201)"/>
<path d="M0 0 C1.65 0 3.3 0 5 0 C5.93065133 2.60582371 6.14917407 3.64198224 5.0625 6.25 C4.5365625 7.11625 4.5365625 7.11625 4 8 C2.02 8 0.04 8 -2 8 C-2.33 6.68 -2.66 5.36 -3 4 C-1.02 4.99 -1.02 4.99 1 6 C1.33 5.01 1.66 4.02 2 3 C1.34 2.01 0.68 1.02 0 0 Z " fill="#B474FF" transform="translate(146,185)"/>
<path d="M0 0 C0.99 0.33 1.98 0.66 3 1 C3 1.99 3 2.98 3 4 C3.66 4.66 4.32 5.32 5 6 C4.01 7.485 4.01 7.485 3 9 C1.35 8.67 -0.3 8.34 -2 8 C-2.33 7.01 -2.66 6.02 -3 5 C-2.01 4.34 -1.02 3.68 0 3 C0 2.01 0 1.02 0 0 Z " fill="#1F5EFF" transform="translate(195,83)"/>
<path d="M0 0 C-0.33 1.98 -0.66 3.96 -1 6 C-1.33 5.34 -1.66 4.68 -2 4 C-2.94875 4.165 -3.8975 4.33 -4.875 4.5 C-8 5 -8 5 -10 5 C-8.20177069 -0.39468792 -5.09771267 -0.22656501 0 0 Z " fill="#967FFF" transform="translate(37,210)"/>
<path d="M0 0 C2.0625 0.4375 2.0625 0.4375 4 1 C3.67 1.66 3.34 2.32 3 3 C2.34 3 1.68 3 1 3 C1 4.32 1 5.64 1 7 C0.67 7.66 0.34 8.32 0 9 C-2.97 8.505 -2.97 8.505 -6 8 C-4.50281739 5.00563478 -2.36834484 2.36834484 0 0 Z " fill="#2D82FF" transform="translate(122,197)"/>
<path d="M0 0 C2.125 0.9375 2.125 0.9375 4 2 C4 2.99 4 3.98 4 5 C3.34 5 2.68 5 2 5 C1.67 5.99 1.34 6.98 1 8 C0.01 8 -0.98 8 -2 8 C-2 5.69 -2 3.38 -2 1 C-1.34 0.67 -0.68 0.34 0 0 Z " fill="#115DFF" transform="translate(177,143)"/>
<path d="M0 0 C0.99 0.33 1.98 0.66 3 1 C2.67 2.32 2.34 3.64 2 5 C2.66 5 3.32 5 4 5 C4.33 4.01 4.66 3.02 5 2 C5.99 2.99 6.98 3.98 8 5 C6.68 6.32 5.36 7.64 4 9 C1.27573689 6.64722731 0.1858237 4.37503669 -1 1 C-0.67 0.67 -0.34 0.34 0 0 Z " fill="#6C5FFF" transform="translate(131,190)"/>
<path d="M0 0 C-0.66 0.66 -1.32 1.32 -2 2 C-1.67 2.66 -1.34 3.32 -1 4 C-1.99 4.66 -2.98 5.32 -4 6 C-3.67 6.66 -3.34 7.32 -3 8 C-4.65 7.67 -6.3 7.34 -8 7 C-7.625 4.0625 -7.625 4.0625 -7 1 C-4.53721199 -0.231394 -2.7204945 -0.07159196 0 0 Z " fill="#B4BDFF" transform="translate(167,177)"/>
<path d="M0 0 C0.66 0 1.32 0 2 0 C2.5745952 3.73486879 3 7.21293268 3 11 C1 12.75 1 12.75 -1 14 C-1.09764874 9.21521178 -0.77112541 4.72314313 0 0 Z " fill="#7B39FF" transform="translate(197,17)"/>
<path d="M0 0 C0.928125 0.20625 1.85625 0.4125 2.8125 0.625 C2.1525 2.275 1.4925 3.925 0.8125 5.625 C-2.1575 5.13 -2.1575 5.13 -5.1875 4.625 C-5.5175 3.635 -5.8475 2.645 -6.1875 1.625 C-3.1875 -0.375 -3.1875 -0.375 0 0 Z M-3.1875 1.625 C-3.5175 2.285 -3.8475 2.945 -4.1875 3.625 C-3.5275 3.625 -2.8675 3.625 -2.1875 3.625 C-2.5175 2.965 -2.8475 2.305 -3.1875 1.625 Z " fill="#8866FF" transform="translate(48.1875,211.375)"/>
<path d="M0 0 C0.99 0.66 1.98 1.32 3 2 C3 2.66 3 3.32 3 4 C4.65 4 6.3 4 8 4 C7.01 5.485 7.01 5.485 6 7 C2.375 7.1875 2.375 7.1875 -1 7 C-1 3 -1 3 0 0 Z " fill="#1A78FF" transform="translate(138,178)"/>
<path d="M0 0 C2.31 0.33 4.62 0.66 7 1 C5.515 3.475 5.515 3.475 4 6 C1.525 5.01 1.525 5.01 -1 4 C-0.67 2.68 -0.34 1.36 0 0 Z " fill="#794DFF" transform="translate(70,210)"/>
<path d="M0 0 C1.32 0.33 2.64 0.66 4 1 C4.25 3.3125 4.25 3.3125 4 6 C2 7.8125 2 7.8125 0 9 C-0.66 7.68 -1.32 6.36 -2 5 C-1.34 4.34 -0.68 3.68 0 3 C0 2.01 0 1.02 0 0 Z " fill="#248BFF" transform="translate(139,187)"/>
<path d="M0 0 C-0.59927826 3.35595828 -1.84622436 5.37801226 -4 8 C-5 3.25 -5 3.25 -5 1 C-5.66 0.67 -6.32 0.34 -7 0 C-3.86650268 -1.04449911 -3.01031744 -0.93423645 0 0 Z " fill="#0873FF" transform="translate(174,151)"/>
<path d="M0 0 C0.99 0 1.98 0 3 0 C3.33 2.97 3.66 5.94 4 9 C2.68 8.34 1.36 7.68 0 7 C0 4.69 0 2.38 0 0 Z " fill="#1661FF" transform="translate(0,201)"/>
<path d="M0 0 C2.4375 0.6875 2.4375 0.6875 5 2 C5.8125 4.625 5.8125 4.625 6 7 C4.35 6.67 2.7 6.34 1 6 C0.67 4.02 0.34 2.04 0 0 Z " fill="#2758FF" transform="translate(7,203)"/>
<path d="M0 0 C1.32 0 2.64 0 4 0 C2.125 3.875 2.125 3.875 1 5 C2.32 5.33 3.64 5.66 5 6 C2.13822943 7.43088528 0.06624227 6.59991697 -3 6 C-2.34 5.67 -1.68 5.34 -1 5 C-0.34444881 2.47266765 -0.34444881 2.47266765 0 0 Z " fill="#3067FF" transform="translate(94,199)"/>
<path d="M0 0 C1.2065625 0.0309375 1.2065625 0.0309375 2.4375 0.0625 C1.4475 1.5475 1.4475 1.5475 0.4375 3.0625 C0.27036431 5.68781524 0.27036431 5.68781524 0.4375 8.0625 C-0.5525 7.7325 -1.5425 7.4025 -2.5625 7.0625 C-3.25 5 -3.25 5 -3.5625 3.0625 C-3.8925 3.7225 -4.2225 4.3825 -4.5625 5.0625 C-3.43829114 0.08386076 -3.43829114 0.08386076 0 0 Z " fill="#1F6FFF" transform="translate(132.5625,180.9375)"/>
<path d="M0 0 C1.875 0.125 1.875 0.125 4 1 C5.25 4.0625 5.25 4.0625 6 7 C5.01 7 4.02 7 3 7 C3 6.34 3 5.68 3 5 C1.68 4.67 0.36 4.34 -1 4 C-0.67 2.68 -0.34 1.36 0 0 Z " fill="#3446FF" transform="translate(185,123)"/>
<path d="M0 0 C0.66 0 1.32 0 2 0 C2 0.66 2 1.32 2 2 C3.32 2.33 4.64 2.66 6 3 C5.67 4.32 5.34 5.64 5 7 C4.01 7 3.02 7 2 7 C1.01 5.02 0.02 3.04 -1 1 C-0.67 0.67 -0.34 0.34 0 0 Z " fill="#8677FF" transform="translate(198,51)"/>
<path d="M0 0 C0.66 0.33 1.32 0.66 2 1 C1.67 3.97 1.34 6.94 1 10 C-0.65 9.01 -2.3 8.02 -4 7 C-3.525625 6.5875 -3.05125 6.175 -2.5625 5.75 C-0.83733482 3.817815 -0.43415125 2.51807725 0 0 Z " fill="#238AFF" transform="translate(195,21)"/>
<path d="M0 0 C2.97 0 5.94 0 9 0 C9 1.32 9 2.64 9 4 C4.25 4.125 4.25 4.125 2 3 C2 2.34 2 1.68 2 1 C1.34 0.67 0.68 0.34 0 0 Z " fill="#1959FF" transform="translate(176,0)"/>
<path d="M0 0 C0.33 0.66 0.66 1.32 1 2 C1.66 2.33 2.32 2.66 3 3 C3 6 3 6 1.625 7.6875 C0 9 0 9 -2 9 C-1.125 1.125 -1.125 1.125 0 0 Z " fill="#2F4AFF" transform="translate(66,208)"/>
<path d="M0 0 C0.66 0.33 1.32 0.66 2 1 C1.54917531 2.46067199 1.08906463 3.91848032 0.625 5.375 C0.36976562 6.18710938 0.11453125 6.99921875 -0.1484375 7.8359375 C-1 10 -1 10 -3 12 C-4.39160413 7.82518761 -3.36588972 5.09766916 -2 1 C-1.34 0.67 -0.68 0.34 0 0 Z " fill="#1F80FF" transform="translate(108,195)"/>
<path d="M0 0 C0.66 0.33 1.32 0.66 2 1 C2.625 4.0625 2.625 4.0625 3 7 C1.02 6.34 -0.96 5.68 -3 5 C-2.67 3.68 -2.34 2.36 -2 1 C-1.34 1.33 -0.68 1.66 0 2 C0 1.34 0 0.68 0 0 Z " fill="#1A6EFF" transform="translate(130,192)"/>
<path d="M0 0 C1.32 0.33 2.64 0.66 4 1 C3.34 1 2.68 1 2 1 C2 1.66 2 2.32 2 3 C3.32 2.34 4.64 1.68 6 1 C5.67 2.32 5.34 3.64 5 5 C2.36 4.67 -0.28 4.34 -3 4 C-3 3.01 -3 2.02 -3 1 C-2.01 1 -1.02 1 0 1 C0 0.67 0 0.34 0 0 Z " fill="#2E73FF" transform="translate(170,147)"/>
<path d="M0 0 C0.66 0.33 1.32 0.66 2 1 C1.42655063 3.86724686 1.1385485 4.8614515 -1 7 C-1.66 7 -2.32 7 -3 7 C-2.625 4.0625 -2.625 4.0625 -2 1 C-1.34 0.67 -0.68 0.34 0 0 Z " fill="#1A69FF" transform="translate(113,193)"/>
<path d="M0 0 C0.33 0.66 0.66 1.32 1 2 C1.99 2.33 2.98 2.66 4 3 C3.34 4.98 2.68 6.96 2 9 C2.99 9.33 3.98 9.66 5 10 C4.01 10.495 4.01 10.495 3 11 C2.34 10.67 1.68 10.34 1 10 C0.5859375 7.71484375 0.5859375 7.71484375 0.375 4.9375 C0.30023438 4.01839844 0.22546875 3.09929687 0.1484375 2.15234375 C0.09945312 1.44207031 0.05046875 0.73179687 0 0 Z " fill="#1870FF" transform="translate(115,186)"/>
<path d="M0 0 C1 2 1 2 2 5 C1.34 5.66 0.68 6.32 0 7 C-1.65 5.68 -3.3 4.36 -5 3 C-2.25 0 -2.25 0 0 0 Z " fill="#4053FF" transform="translate(187,138)"/>
<path d="M0 0 C2.475 0.495 2.475 0.495 5 1 C5 1.66 5 2.32 5 3 C5.99 3 6.98 3 8 3 C7.34 4.32 6.68 5.64 6 7 C3.95880212 5.38405168 1.95927063 3.7143618 0 2 C0 1.34 0 0.68 0 0 Z " fill="#096BFF" transform="translate(183,127)"/>
<path d="M0 0 C0.99 0 1.98 0 3 0 C3.66 1.65 4.32 3.3 5 5 C3.35 5.33 1.7 5.66 0 6 C-1.125 2.25 -1.125 2.25 0 0 Z " fill="#1D38FF" transform="translate(190,115)"/>
<path d="M0 0 C0.99 0 1.98 0 3 0 C3.144375 0.763125 3.28875 1.52625 3.4375 2.3125 C3.9632594 5.08172908 3.9632594 5.08172908 5 8 C3.0625 7.625 3.0625 7.625 1 7 C0.67 6.34 0.34 5.68 0 5 C-0.66 4.67 -1.32 4.34 -2 4 C-1.01 3.67 -0.02 3.34 1 3 C0.67 2.01 0.34 1.02 0 0 Z " fill="#2A79FF" transform="translate(194,94)"/>
<path d="M0 0 C0.66 0 1.32 0 2 0 C4.09230769 4.43076923 4.09230769 4.43076923 3.625 7.3125 C3.41875 7.869375 3.2125 8.42625 3 9 C1.35 7.68 -0.3 6.36 -2 5 C-1.67 4.34 -1.34 3.68 -1 3 C-0.34 3.33 0.32 3.66 1 4 C1 3.34 1 2.68 1 2 C0.34 1.67 -0.32 1.34 -1 1 C-0.67 0.67 -0.34 0.34 0 0 Z " fill="#3F39FF" transform="translate(198,79)"/>
<path d="M0 0 C2.97 0.495 2.97 0.495 6 1 C5.67 1.66 5.34 2.32 5 3 C4.34 3 3.68 3 3 3 C2.67 3.99 2.34 4.98 2 6 C0.35 6 -1.3 6 -3 6 C-2.34 5.34 -1.68 4.68 -1 4 C-0.3574765 1.93125966 -0.3574765 1.93125966 0 0 Z " fill="#A27FFF" transform="translate(14,208)"/>
<path d="M0 0 C1.5 1.3125 1.5 1.3125 3 3 C3 3.99 3 4.98 3 6 C2.01 6.66 1.02 7.32 0 8 C-0.66 7.67 -1.32 7.34 -2 7 C-2 5.68 -2 4.36 -2 3 C-1.34 3 -0.68 3 0 3 C0 2.01 0 1.02 0 0 Z " fill="#656DFF" transform="translate(117,196)"/>
<path d="M0 0 C0.33 0 0.66 0 1 0 C1.3125 2.25 1.3125 2.25 1 5 C-1.5 7.3125 -1.5 7.3125 -4 9 C-4.33 7.68 -4.66 6.36 -5 5 C-4.34 5 -3.68 5 -3 5 C-2.5359375 4.0409375 -2.5359375 4.0409375 -2.0625 3.0625 C-1 1 -1 1 0 0 Z " fill="#306EFF" transform="translate(166,157)"/>
<path d="M0 0 C0.5534764 2.07553648 1 3.84365964 1 6 C1.66 6 2.32 6 3 6 C3 6.66 3 7.32 3 8 C2.401875 7.67 1.80375 7.34 1.1875 7 C-1.05386471 5.79212012 -1.05386471 5.79212012 -4 6 C-3.67 5.01 -3.34 4.02 -3 3 C-2.34 3 -1.68 3 -1 3 C-0.67 2.01 -0.34 1.02 0 0 Z " fill="#171DFF" transform="translate(193,5)"/>
<path d="M0 0 C1.32 0 2.64 0 4 0 C4 0.99 4 1.98 4 3 C4.99 3.33 5.98 3.66 7 4 C5.68 4.99 4.36 5.98 3 7 C3 6.01 3 5.02 3 4 C1.68 3.34 0.36 2.68 -1 2 C-0.67 1.34 -0.34 0.68 0 0 Z " fill="#1055FF" transform="translate(148,181)"/>
<path d="M0 0 C3.875 1.75 3.875 1.75 5 4 C3.02 4.99 3.02 4.99 1 6 C1.66 6.33 2.32 6.66 3 7 C2.01 7 1.02 7 0 7 C0 6.01 0 5.02 0 4 C-0.66 3.67 -1.32 3.34 -2 3 C-1.34 2.67 -0.68 2.34 0 2 C0 1.34 0 0.68 0 0 Z " fill="#5963FF" transform="translate(184,130)"/>
<path d="M0 0 C0.66 1.32 1.32 2.64 2 4 C1 5 1 5 -2.0625 5.0625 C-3.5165625 5.0315625 -3.5165625 5.0315625 -5 5 C-5 3 -5 3 -3.625 1.375 C-2 0 -2 0 0 0 Z " fill="#1054FF" transform="translate(189,11)"/>
<path d="M0 0 C1.32 0 2.64 0 4 0 C4.88492145 2.47778006 5.11637742 3.66056586 4.25 6.1875 C3 8 3 8 0 9 C0.185625 8.2575 0.37125 7.515 0.5625 6.75 C0.99203108 4.05009037 0.85122974 2.55368923 0 0 Z " fill="#674EFF" transform="translate(189,0)"/>
<path d="M0 0 C0.99 0 1.98 0 3 0 C3 0.66 3 1.32 3 2 C3.66 2.33 4.32 2.66 5 3 C4.01 3.495 4.01 3.495 3 4 C3 4.66 3 5.32 3 6 C2.34 6 1.68 6 1 6 C0.67 6.66 0.34 7.32 0 8 C0 5.36 0 2.72 0 0 Z " fill="#175AFF" transform="translate(77,204)"/>
<path d="M0 0 C0.66 0.33 1.32 0.66 2 1 C2 2.98 2 4.96 2 7 C0.68 6.67 -0.64 6.34 -2 6 C-2 5.34 -2 4.68 -2 4 C-2.66 3.67 -3.32 3.34 -4 3 C-2.68 2.67 -1.36 2.34 0 2 C0 1.34 0 0.68 0 0 Z " fill="#3D6CFF" transform="translate(114,200)"/>
<path d="M0 0 C1.32 1.32 2.64 2.64 4 4 C3.67 4.66 3.34 5.32 3 6 C1.02 5.34 -0.96 4.68 -3 4 C-2.67 3.01 -2.34 2.02 -2 1 C-1.34 0.67 -0.68 0.34 0 0 Z " fill="#727FFF" transform="translate(185,148)"/>
<path d="M0 0 C1.65 0.33 3.3 0.66 5 1 C4.67 1.99 4.34 2.98 4 4 C2.02 4 0.04 4 -2 4 C-1.34 2.68 -0.68 1.36 0 0 Z " fill="#1168FF" transform="translate(186,100)"/>
<path d="M0 0 C0.66 0.33 1.32 0.66 2 1 C2.125 6.75 2.125 6.75 1 9 C0.34 9 -0.32 9 -1 9 C-1.09765625 2.84765625 -1.09765625 2.84765625 -1 1 C-0.67 0.67 -0.34 0.34 0 0 Z " fill="#5FB2FF" transform="translate(201,74)"/>
<path d="M0 0 C1.65 0 3.3 0 5 0 C5 1.98 5 3.96 5 6 C4.01 6 3.02 6 2 6 C1.34 4.02 0.68 2.04 0 0 Z " fill="#A143FF" transform="translate(197,102)"/>
<path d="M0 0 C0.66 0 1.32 0 2 0 C2.66 1.98 3.32 3.96 4 6 C3.01 6.66 2.02 7.32 1 8 C0.67 5.36 0.34 2.72 0 0 Z " fill="#5D14FF" transform="translate(198,95)"/>
<path d="M0 0 C1.32 0.33 2.64 0.66 4 1 C4.33 2.65 4.66 4.3 5 6 C3.35 5.67 1.7 5.34 0 5 C0 3.35 0 1.7 0 0 Z " fill="#2176FF" transform="translate(194,77)"/>
<path d="M0 0 C0.66 0 1.32 0 2 0 C2 0.66 2 1.32 2 2 C2.99 2.33 3.98 2.66 5 3 C5 3.66 5 4.32 5 5 C3.68 4.67 2.36 4.34 1 4 C0.67 5.32 0.34 6.64 0 8 C-1.09658936 4.71023192 -0.79953138 3.28696233 0 0 Z " fill="#4F72FF" transform="translate(197,60)"/>
<path d="M0 0 C0.99 0.33 1.98 0.66 3 1 C3.75 2.9375 3.75 2.9375 4 5 C3.67 5.66 3.34 6.32 3 7 C0.2160817 5.60804085 0.02101003 3.84424221 -1 1 C-0.67 0.67 -0.34 0.34 0 0 Z " fill="#2360FF" transform="translate(59,205)"/>
<path d="M0 0 C0.66 0.33 1.32 0.66 2 1 C2 1.66 2 2.32 2 3 C2.66 3 3.32 3 4 3 C4.33 4.32 4.66 5.64 5 7 C4.01 7 3.02 7 2 7 C2 6.34 2 5.68 2 5 C1.01 4.67 0.02 4.34 -1 4 C-0.67 2.68 -0.34 1.36 0 0 Z " fill="#415FFF" transform="translate(49,205)"/>
<path d="M0 0 C0.99 0.33 1.98 0.66 3 1 C3.6875 3.0625 3.6875 3.0625 4 5 C1.69 4.67 -0.62 4.34 -3 4 C-2 2 -2 2 0 0 Z " fill="#127DFF" transform="translate(98,200)"/>
<path d="M0 0 C1.98 0 3.96 0 6 0 C6 1.32 6 2.64 6 4 C4.35 3.67 2.7 3.34 1 3 C0.67 2.01 0.34 1.02 0 0 Z " fill="#4DAAFF" transform="translate(151,180)"/>
<path d="M0 0 C1.9375 0.3125 1.9375 0.3125 4 1 C4.33 1.99 4.66 2.98 5 4 C4.01 5.485 4.01 5.485 3 7 C2.34 6.67 1.68 6.34 1 6 C1.33 4.68 1.66 3.36 2 2 C1.34 2 0.68 2 0 2 C0 1.34 0 0.68 0 0 Z " fill="#2A76FF" transform="translate(185,134)"/>
<path d="M0 0 C0.66 0.33 1.32 0.66 2 1 C1.67 2.65 1.34 4.3 1 6 C0.34 6 -0.32 6 -1 6 C-1.33 6.66 -1.66 7.32 -2 8 C-2.33 7.01 -2.66 6.02 -3 5 C-2.67 4.34 -2.34 3.68 -2 3 C-1.34 3 -0.68 3 0 3 C0 2.01 0 1.02 0 0 Z " fill="#638DFF" transform="translate(200,66)"/>
<path d="M0 0 C1.32 0.99 2.64 1.98 4 3 C3.67 3.66 3.34 4.32 3 5 C3.66 5.66 4.32 6.32 5 7 C3.35 6.67 1.7 6.34 0 6 C0 4.02 0 2.04 0 0 Z " fill="#238EFF" transform="translate(197,39)"/>
<path d="M0 0 C0.66 0.33 1.32 0.66 2 1 C1.67 1.99 1.34 2.98 1 4 C1.33 4.99 1.66 5.98 2 7 C0.0625 6.6875 0.0625 6.6875 -2 6 C-2.33 5.01 -2.66 4.02 -3 3 C-2.34 3 -1.68 3 -1 3 C-0.67 2.01 -0.34 1.02 0 0 Z " fill="#1C15FF" transform="translate(198,28)"/>
<path d="M0 0 C0.99 0.66 1.98 1.32 3 2 C2.34 2 1.68 2 1 2 C0.67 2.99 0.34 3.98 0 5 C-2.0625 5.6875 -2.0625 5.6875 -4 6 C-3.6875 4.125 -3.6875 4.125 -3 2 C-2.01 1.34 -1.02 0.68 0 0 Z " fill="#236EFF" transform="translate(186,9)"/>
<path d="M0 0 C0.99 0.33 1.98 0.66 3 1 C2.67 1.99 2.34 2.98 2 4 C2.66 4 3.32 4 4 4 C3.67 4.66 3.34 5.32 3 6 C2.01 6 1.02 6 0 6 C-1.125 2.25 -1.125 2.25 0 0 Z " fill="#7660FF" transform="translate(155,172)"/>
<path d="M0 0 C-0.75 2.4375 -0.75 2.4375 -2 5 C-4.125 5.8125 -4.125 5.8125 -6 6 C-5.67 4.35 -5.34 2.7 -5 1 C-2 0 -2 0 0 0 Z " fill="#137FFF" transform="translate(161,166)"/>
<path d="M0 0 C0.99 0.33 1.98 0.66 3 1 C3 1.99 3 2.98 3 4 C3.99 4.33 4.98 4.66 6 5 C4.02 5.99 4.02 5.99 2 7 C1.67 6.01 1.34 5.02 1 4 C0.34 3.34 -0.32 2.68 -1 2 C-0.67 1.34 -0.34 0.68 0 0 Z " fill="#0074FF" transform="translate(181,133)"/>
<path d="M0 0 C0.66 0.66 1.32 1.32 2 2 C1.67 2.66 1.34 3.32 1 4 C1.66 4 2.32 4 3 4 C3 4.99 3 5.98 3 7 C1.68 6.67 0.36 6.34 -1 6 C-1.042721 4.33388095 -1.04063832 2.66617115 -1 1 C-0.67 0.67 -0.34 0.34 0 0 Z " fill="#875AFF" transform="translate(196,106)"/>
<path d="M0 0 C0.66 0.33 1.32 0.66 2 1 C2.625 3.5625 2.625 3.5625 3 6 C1.68 6.33 0.36 6.66 -1 7 C-0.67 4.69 -0.34 2.38 0 0 Z " fill="#5789FF" transform="translate(187,1)"/>
<path d="M0 0 C0.99 0 1.98 0 3 0 C2.34 1.32 1.68 2.64 1 4 C0.34 3.67 -0.32 3.34 -1 3 C-0.67 2.01 -0.34 1.02 0 0 Z " fill="#AAC6FF" transform="translate(117,206)"/>
<path d="M0 0 C0.99 0.33 1.98 0.66 3 1 C1.02 1.99 1.02 1.99 -1 3 C-0.67 2.01 -0.34 1.02 0 0 Z " fill="#B6B6FF" transform="translate(139,197)"/>
<path d="M0 0 C1.98 0 3.96 0 6 0 C6 0.33 6 0.66 6 1 C4.02 1 2.04 1 0 1 C0 0.67 0 0.34 0 0 Z " fill="#D4D4FF" transform="translate(97,213)"/>
<path d="M0 0 C0.99 0.33 1.98 0.66 3 1 C2.01 1 1.02 1 0 1 C0 0.67 0 0.34 0 0 Z " fill="#003FFF" transform="translate(202,72)"/>
<path d="M0 0 C3 1 3 1 3 1 Z " fill="#FFFFFF" transform="translate(27,216)"/>
<path d="M0 0 C0.33 0.66 0.66 1.32 1 2 C0.34 1.67 -0.32 1.34 -1 1 C-0.67 0.67 -0.34 0.34 0 0 Z " fill="#0000FF" transform="translate(87,214)"/>
<path d="M0 0 C3 1 3 1 3 1 Z " fill="#55FFFF" transform="translate(18,213)"/>
<path d="M0 0 C0.33 0.66 0.66 1.32 1 2 C0.34 1.67 -0.32 1.34 -1 1 C-0.67 0.67 -0.34 0.34 0 0 Z " fill="#5555FF" transform="translate(127,201)"/>
<path d="M0 0 C0.33 0.66 0.66 1.32 1 2 C0.34 1.67 -0.32 1.34 -1 1 C-0.67 0.67 -0.34 0.34 0 0 Z " fill="#FFFFFF" transform="translate(158,186)"/>
<path d="M0 0 C0.66 0.66 1.32 1.32 2 2 C1.34 2 0.68 2 0 2 C0 1.34 0 0.68 0 0 Z " fill="#5555FF" transform="translate(171,173)"/>
<path d="M0 0 C0.33 0.66 0.66 1.32 1 2 C0.34 1.67 -0.32 1.34 -1 1 C-0.67 0.67 -0.34 0.34 0 0 Z " fill="#AAAAFF" transform="translate(191,149)"/>
<path d="M0 0 C0.99 0.495 0.99 0.495 2 1 C1.01 1.495 1.01 1.495 0 2 C0 1.34 0 0.68 0 0 Z " fill="#AAAAFF" transform="translate(194,135)"/>
<path d="M0 0 C0.66 0.66 1.32 1.32 2 2 C1.34 2 0.68 2 0 2 C0 1.34 0 0.68 0 0 Z " fill="#AAAAFF" transform="translate(202,109)"/>
<path d="" fill="#FFFFFF" transform="translate(0,0)"/>
<path d="" fill="#5555FF" transform="translate(0,0)"/>
<path d="" fill="#7F7FFF" transform="translate(0,0)"/>
<path d="M0 0 C2 1 2 1 2 1 Z " fill="#FFFFFF" transform="translate(24,216)"/>
<path d="" fill="#FFFFFF" transform="translate(0,0)"/>
<path d="" fill="#7F7FFF" transform="translate(0,0)"/>
<path d="M0 0 C2 1 2 1 2 1 Z " fill="#FFFFFF" transform="translate(128,203)"/>
<path d="" fill="#FFFFFF" transform="translate(0,0)"/>
<path d="" fill="#7F7FFF" transform="translate(0,0)"/>
<path d="" fill="#FFFFFF" transform="translate(0,0)"/>
<path d="M0 0 C2 1 2 1 2 1 Z " fill="#FFFFFF" transform="translate(154,188)"/>
<path d="M0 0 C2 1 2 1 2 1 Z " fill="#7F7FFF" transform="translate(167,178)"/>
<path d="M0 0 C2 1 2 1 2 1 Z " fill="#FFFFFF" transform="translate(176,169)"/>
<path d="M0 0 C2 1 2 1 2 1 Z " fill="#7F7FFF" transform="translate(188,149)"/>
<path d="" fill="#0000FF" transform="translate(0,0)"/>
<path d="" fill="#0000FF" transform="translate(0,0)"/>
<path d="" fill="#7F7FFF" transform="translate(0,0)"/>
<path d="" fill="#0000FF" transform="translate(0,0)"/>
<path d="" fill="#FFFFFF" transform="translate(0,0)"/>
<path d="" fill="#FFFFFF" transform="translate(0,0)"/>
<path d="" fill="#FFFFFF" transform="translate(0,0)"/>
<path d="" fill="#FFFFFF" transform="translate(0,0)"/>
<path d="" fill="#0000FF" transform="translate(0,0)"/>
<path d="" fill="#FFFFFF" transform="translate(0,0)"/>
<path d="" fill="#FFFFFF" transform="translate(0,0)"/>
<path d="" fill="#FFFFFF" transform="translate(0,0)"/>
<path d="" fill="#FFFFFF" transform="translate(0,0)"/>
<path d="" fill="#FFFFFF" transform="translate(0,0)"/>
<path d="" fill="#FFFFFF" transform="translate(0,0)"/>
<path d="" fill="#FFFFFF" transform="translate(0,0)"/>
<path d="" fill="#0000FF" transform="translate(0,0)"/>
<path d="" fill="#FFFFFF" transform="translate(0,0)"/>
<path d="" fill="#FFFFFF" transform="translate(0,0)"/>
<path d="" fill="#FFFFFF" transform="translate(0,0)"/>
<path d="" fill="#FFFFFF" transform="translate(0,0)"/>
<path d="" fill="#0000FF" transform="translate(0,0)"/>
<path d="" fill="#0000FF" transform="translate(0,0)"/>
<path d="" fill="#0000FF" transform="translate(0,0)"/>
<path d="" fill="#FFFFFF" transform="translate(0,0)"/>
<path d="" fill="#FFFFFF" transform="translate(0,0)"/>
<path d="" fill="#0000FF" transform="translate(0,0)"/>
<path d="" fill="#FFFFFF" transform="translate(0,0)"/>
<path d="" fill="#0000FF" transform="translate(0,0)"/>
<path d="" fill="#FFFFFF" transform="translate(0,0)"/>
<path d="" fill="#FFFFFF" transform="translate(0,0)"/>
<path d="" fill="#FFFFFF" transform="translate(0,0)"/>
<path d="" fill="#0000FF" transform="translate(0,0)"/>
<path d="" fill="#0000FF" transform="translate(0,0)"/>
<path d="" fill="#FFFFFF" transform="translate(0,0)"/>
<path d="" fill="#FFFFFF" transform="translate(0,0)"/>
<path d="" fill="#FFFFFF" transform="translate(0,0)"/>
<path d="" fill="#0000FF" transform="translate(0,0)"/>
<path d="" fill="#0000FF" transform="translate(0,0)"/>
<path d="" fill="#FFFFFF" transform="translate(0,0)"/>
<path d="" fill="#FFFFFF" transform="translate(0,0)"/>
<path d="" fill="#FFFFFF" transform="translate(0,0)"/>
<path d="" fill="#FFFFFF" transform="translate(0,0)"/>
<path d="" fill="#FFFFFF" transform="translate(0,0)"/>
<path d="" fill="#FFFFFF" transform="translate(0,0)"/>
<path d="" fill="#FFFFFF" transform="translate(0,0)"/>
<path d="" fill="#FFFFFF" transform="translate(0,0)"/>
<path d="" fill="#0000FF" transform="translate(0,0)"/>
<path d="" fill="#FFFFFF" transform="translate(0,0)"/>
<path d="" fill="#FFFFFF" transform="translate(0,0)"/>
<path d="" fill="#0000FF" transform="translate(0,0)"/>
<path d="" fill="#FFFFFF" transform="translate(0,0)"/>
<path d="" fill="#0000FF" transform="translate(0,0)"/>
<path d="" fill="#FFFFFF" transform="translate(0,0)"/>
<path d="" fill="#0000FF" transform="translate(0,0)"/>
<path d="" fill="#0000FF" transform="translate(0,0)"/>
<path d="" fill="#FFFFFF" transform="translate(0,0)"/>
<path d="" fill="#0000FF" transform="translate(0,0)"/>
<path d="" fill="#0000FF" transform="translate(0,0)"/>
<path d="" fill="#00FFFF" transform="translate(0,0)"/>
<path d="" fill="#FFFFFF" transform="translate(0,0)"/>
<path d="" fill="#0000FF" transform="translate(0,0)"/>
<path d="" fill="#0000FF" transform="translate(0,0)"/>
<path d="" fill="#FFFFFF" transform="translate(0,0)"/>
<path d="" fill="#FFFFFF" transform="translate(0,0)"/>
<path d="" fill="#FFFFFF" transform="translate(0,0)"/>
<path d="" fill="#0000FF" transform="translate(0,0)"/>
<path d="" fill="#FFFFFF" transform="translate(0,0)"/>
<path d="" fill="#0000FF" transform="translate(0,0)"/>
<path d="" fill="#0000FF" transform="translate(0,0)"/>
</svg>
