<?xml version="1.0" encoding="UTF-8"?>
<svg version="1.1" xmlns="http://www.w3.org/2000/svg" width="32" height="32">
<path d="M0 0 C0.87454834 0.00523682 1.74909668 0.01047363 2.65014648 0.01586914 C3.59438477 0.0190918 4.53862305 0.02231445 5.51147461 0.02563477 C6.50469727 0.03401367 7.49791992 0.04239258 8.52124023 0.05102539 C9.51833008 0.05553711 10.51541992 0.06004883 11.54272461 0.06469727 C14.01478872 0.07652532 16.48673541 0.0930069 18.95874023 0.11352539 C18.95874023 1.76352539 18.95874023 3.41352539 18.95874023 5.11352539 C12.02874023 5.11352539 5.09874023 5.11352539 -2.04125977 5.11352539 C-2.37125977 3.79352539 -2.70125977 2.47352539 -3.04125977 1.11352539 C-2.04125977 0.11352539 -2.04125977 0.11352539 0 0 Z " fill="#FFFFFF" transform="translate(5.041259765625,13.886474609375)"/>
<path d="M0 0 C0.87454834 0.00523682 1.74909668 0.01047363 2.65014648 0.01586914 C3.59438477 0.0190918 4.53862305 0.02231445 5.51147461 0.02563477 C6.50469727 0.03401367 7.49791992 0.04239258 8.52124023 0.05102539 C9.51833008 0.05553711 10.51541992 0.06004883 11.54272461 0.06469727 C14.01478872 0.07652532 16.48673541 0.0930069 18.95874023 0.11352539 C18.95874023 1.76352539 18.95874023 3.41352539 18.95874023 5.11352539 C12.02874023 5.11352539 5.09874023 5.11352539 -2.04125977 5.11352539 C-2.37125977 3.79352539 -2.70125977 2.47352539 -3.04125977 1.11352539 C-2.04125977 0.11352539 -2.04125977 0.11352539 0 0 Z " fill="#FFFFFF" transform="translate(5.041259765625,5.886474609375)"/>
<path d="M0 0 C1.79244141 0.01740234 1.79244141 0.01740234 3.62109375 0.03515625 C5.41740234 0.04869141 5.41740234 0.04869141 7.25 0.0625 C8.17683594 0.07410156 9.10367187 0.08570312 10.05859375 0.09765625 C10.05859375 1.74765625 10.05859375 3.39765625 10.05859375 5.09765625 C5.76859375 5.09765625 1.47859375 5.09765625 -2.94140625 5.09765625 C-3.27140625 3.77765625 -3.60140625 2.45765625 -3.94140625 1.09765625 C-2.94140625 0.09765625 -2.94140625 0.09765625 0 0 Z " fill="#FFFFFF" transform="translate(5.94140625,21.90234375)"/>
<path d="M0 0 C1.98 0.495 1.98 0.495 4 1 C3.67 2.32 3.34 3.64 3 5 C1.68 5 0.36 5 -1 5 C-0.67 3.35 -0.34 1.7 0 0 Z " fill="#65ABFF" transform="translate(26,6)"/>
</svg>
