<?xml version="1.0" encoding="UTF-8"?>
<svg version="1.1" xmlns="http://www.w3.org/2000/svg" width="78" height="65">
<path d="M0 0 C0.8646991 -0.00960754 1.72939819 -0.01921509 2.62030029 -0.02911377 C3.56190002 -0.03336365 4.50349976 -0.03761353 5.47363281 -0.04199219 C6.43698547 -0.04769226 7.40033813 -0.05339233 8.3928833 -0.05926514 C10.4373667 -0.06873283 12.48186548 -0.0752561 14.52636719 -0.07910156 C17.64968733 -0.08878327 20.77234298 -0.11978019 23.89550781 -0.15136719 C25.8798789 -0.15789934 27.8642547 -0.16314898 29.84863281 -0.16699219 C30.78213562 -0.17933899 31.71563843 -0.19168579 32.6774292 -0.20440674 C37.57812348 -0.18764242 40.97997123 -0.08162203 44.92675781 3.16113281 C47.41748763 6.1903988 48.77993204 8.28017815 49.42675781 12.16113281 C48.65123041 16.81429721 46.21057595 19.87731468 42.92675781 23.16113281 C40.18347761 24.06994297 37.69416177 24.28058284 34.81738281 24.25878906 C34.13708008 24.2562915 33.45677734 24.25379395 32.75585938 24.2512207 C31.90475586 24.2421167 31.05365234 24.2330127 30.17675781 24.22363281 C27.45425781 24.20300781 24.73175781 24.18238281 21.92675781 24.16113281 C21.92675781 32.08113281 21.92675781 40.00113281 21.92675781 48.16113281 C19.94675781 48.65613281 19.94675781 48.65613281 17.92675781 49.16113281 C15.92675781 47.16113281 15.92675781 47.16113281 15.68383789 44.48730469 C15.69000122 42.82538086 15.69000122 42.82538086 15.69628906 41.12988281 C15.69822266 39.9271875 15.70015625 38.72449219 15.70214844 37.48535156 C15.71439453 36.22335938 15.72664063 34.96136719 15.73925781 33.66113281 C15.73990234 32.39914063 15.74054687 31.13714844 15.74121094 29.83691406 C15.78652597 20.44159649 15.78652597 20.44159649 16.92675781 18.16113281 C24.84675781 17.83113281 32.76675781 17.50113281 40.92675781 17.16113281 C42.59485479 10.79668358 42.59485479 10.79668358 40.75724792 8.25065613 C38.55104289 6.93750409 37.20098886 6.76632682 34.63891602 6.72875977 C33.77825027 6.70896561 32.91758453 6.68917145 32.03083801 6.66877747 C31.10574936 6.66238754 30.18066071 6.65599762 29.22753906 6.64941406 C28.27735397 6.63146286 27.32716888 6.61351166 26.34819031 6.59501648 C23.31192469 6.54081388 20.27581714 6.50698578 17.23925781 6.47363281 C15.18129306 6.44046853 13.12334919 6.40597971 11.06542969 6.37011719 C6.01931962 6.28508161 0.97325725 6.21831784 -4.07324219 6.16113281 C-4.45542986 4.50498624 -4.7871932 2.83656257 -5.07324219 1.16113281 C-3.54005079 -0.37205858 -2.13667053 0.01908697 0 0 Z " fill="#FEFEFE" transform="translate(15.0732421875,11.8388671875)"/>
<path d="M0 0 C1.10408203 -0.03738281 2.20816406 -0.07476562 3.34570312 -0.11328125 C10.88434156 -0.19343216 16.87216416 0.8455587 23.0625 5.375 C27.75190261 11.06875645 29.44263202 16.4161805 29.3359375 23.74609375 C28.71827011 29.68452455 25.99218528 33.80236963 21.625 37.75 C15.4583822 42.53758513 10.73759821 42.57966929 3.0625 42.375 C3.0625 47.325 3.0625 52.275 3.0625 57.375 C0.5875 57.87 0.5875 57.87 -1.9375 58.375 C-2.9375 57.375 -2.9375 57.375 -3.05102539 55.33374023 C-3.04578857 54.45919189 -3.04055176 53.58464355 -3.03515625 52.68359375 C-3.03193359 51.73935547 -3.02871094 50.79511719 -3.02539062 49.82226562 C-3.01701172 48.82904297 -3.00863281 47.83582031 -3 46.8125 C-2.99548828 45.81541016 -2.99097656 44.81832031 -2.98632812 43.79101562 C-2.97450007 41.31895151 -2.95801849 38.84700482 -2.9375 36.375 C-1.98488281 36.32601562 -1.03226563 36.27703125 -0.05078125 36.2265625 C1.20347656 36.15179688 2.45773438 36.07703125 3.75 36 C5.61205078 35.89558594 5.61205078 35.89558594 7.51171875 35.7890625 C10.7869456 35.40713286 13.09367741 34.73722683 16.0625 33.375 C17.5475 32.88 17.5475 32.88 19.0625 32.375 C20.23203416 29.95116923 20.23203416 29.95116923 21.0625 27.375 C21.3925 26.715 21.7225 26.055 22.0625 25.375 C22.43198025 19.83279632 22.37097455 16.07089936 19.0625 11.375 C12.87103147 6.74840813 7.18591745 6.72371821 -0.375 6.625 C-1.48810547 6.59535156 -2.60121094 6.56570312 -3.74804688 6.53515625 C-6.47793572 6.46485868 -9.20699039 6.41196337 -11.9375 6.375 C-12.31968767 4.71885343 -12.65145102 3.05042976 -12.9375 1.375 C-10.3682429 -1.1942571 -3.44337303 0.04287165 0 0 Z " fill="#FEFEFE" transform="translate(43.9375,2.625)"/>
<path d="M0 0 C1.12347839 0.01077827 1.12347839 0.01077827 2.26965332 0.02177429 C3.03894165 0.02223251 3.80822998 0.02269073 4.60083008 0.02316284 C6.22824647 0.02618552 7.85565996 0.0340723 9.48303223 0.0464325 C11.97841609 0.06467005 14.47342857 0.06694231 16.96887207 0.06669617 C18.54830237 0.07161211 20.12773015 0.07744077 21.70715332 0.08427429 C22.83063171 0.08594353 22.83063171 0.08594353 23.97680664 0.08764648 C29.25626011 0.13617144 29.25626011 0.13617144 31.48840332 1.25224304 C31.15840332 2.90224304 30.82840332 4.55224304 30.48840332 6.25224304 C18.27840332 6.25224304 6.06840332 6.25224304 -6.51159668 6.25224304 C-6.84159668 4.93224304 -7.17159668 3.61224304 -7.51159668 2.25224304 C-4.99051017 -0.26884347 -3.43891763 0.01524272 0 0 Z " fill="#FEFEFE" transform="translate(23.5115966796875,20.747756958007813)"/>
<path d="M0 0 C1.23556641 0.01740234 1.23556641 0.01740234 2.49609375 0.03515625 C3.32238281 0.04417969 4.14867187 0.05320312 5 0.0625 C5.63808594 0.07410156 6.27617187 0.08570312 6.93359375 0.09765625 C6.97631475 1.7637753 6.97423207 3.4314851 6.93359375 5.09765625 C5.93359375 6.09765625 5.93359375 6.09765625 4.0859375 6.1953125 C2.03515625 6.16276042 -0.015625 6.13020833 -2.06640625 6.09765625 C-2.44859392 4.44150968 -2.78035727 2.77308601 -3.06640625 1.09765625 C-2.06640625 0.09765625 -2.06640625 0.09765625 0 0 Z " fill="#FEFEFE" transform="translate(23.06640625,29.90234375)"/>
<path d="M0 0 C1.65 0.33 3.3 0.66 5 1 C4.67 2.65 4.34 4.3 4 6 C2.35 5.67 0.7 5.34 -1 5 C-0.67 3.35 -0.34 1.7 0 0 Z " fill="#FEFEFE" transform="translate(3,12)"/>
<path d="M0 0 C1.65 0.33 3.3 0.66 5 1 C5 2.32 5 3.64 5 5 C3.125 5.625 3.125 5.625 1 6 C0.34 5.34 -0.32 4.68 -1 4 C-0.625 1.875 -0.625 1.875 0 0 Z " fill="#FEFEFE" transform="translate(13,30)"/>
</svg>
