<?xml version="1.0" encoding="UTF-8"?>
<svg version="1.1" xmlns="http://www.w3.org/2000/svg" width="64" height="64">
<path d="M0 0 C6.09998566 4.61409172 9.64894753 11.54121115 11.1484375 18.90234375 C11.1484375 20.88234375 11.1484375 22.86234375 11.1484375 24.90234375 C6.5284375 24.90234375 1.9084375 24.90234375 -2.8515625 24.90234375 C-2.944375 26.48015625 -2.944375 26.48015625 -3.0390625 28.08984375 C-4.23044043 33.68015557 -7.23475224 35.82447024 -11.8515625 38.90234375 C-13.5015625 38.90234375 -15.1515625 38.90234375 -16.8515625 38.90234375 C-16.8515625 43.52234375 -16.8515625 48.14234375 -16.8515625 52.90234375 C-26.01726531 52.39313804 -33.11962004 50.45234182 -39.8515625 43.90234375 C-45.56891409 36.30690864 -47.96894357 28.3931854 -46.8515625 18.90234375 C-44.68162505 10.26951151 -41.46530865 4.15447921 -33.9765625 -0.84765625 C-22.85765061 -7.29911446 -10.94253169 -6.48702828 0 0 Z M-37.8515625 6.90234375 C-38.5734375 7.70671875 -39.2953125 8.51109375 -40.0390625 9.33984375 C-44.48298078 15.62262477 -44.62903574 22.43476123 -43.8515625 29.90234375 C-42.21688026 35.78719983 -39.5186939 39.91820719 -34.8515625 43.90234375 C-34.0471875 44.62421875 -33.2428125 45.34609375 -32.4140625 46.08984375 C-28.09994568 49.14129223 -24.10605621 50.21143162 -18.8515625 49.90234375 C-18.8515625 48.58234375 -18.8515625 47.26234375 -18.8515625 45.90234375 C-19.56441406 45.70640625 -20.27726562 45.51046875 -21.01171875 45.30859375 C-28.25232889 43.04773029 -32.75246787 40.37524243 -36.8515625 33.90234375 C-39.82430465 27.2136739 -39.07560873 20.43847729 -36.7265625 13.65234375 C-33.47682446 8.88606129 -29.83810305 5.76442738 -24.5390625 3.46484375 C-17.6014937 2.40657054 -10.77191288 2.86574122 -4.8515625 6.90234375 C0.21708754 11.48530005 2.455756 16.35433898 4.1484375 22.90234375 C5.4684375 22.90234375 6.7884375 22.90234375 8.1484375 22.90234375 C7.7422133 15.45490009 5.73428888 9.36276412 0.25 4.0703125 C-11.63260766 -5.28553376 -27.78106007 -4.89453052 -37.8515625 6.90234375 Z M-34.43359375 13.96484375 C-37.70760688 18.43842643 -37.28349354 23.60288209 -36.8515625 28.90234375 C-35.03797305 34.68316013 -30.82873186 38.6145056 -25.8515625 41.90234375 C-23.3576679 42.69926496 -21.49832679 42.84720283 -18.8515625 42.90234375 C-18.8515625 39.93234375 -18.8515625 36.96234375 -18.8515625 33.90234375 C-20.1715625 33.24234375 -21.4915625 32.58234375 -22.8515625 31.90234375 C-23.6015625 29.77734375 -23.6015625 29.77734375 -23.8515625 27.90234375 C-23.1915625 27.90234375 -22.5315625 27.90234375 -21.8515625 27.90234375 C-21.5215625 28.89234375 -21.1915625 29.88234375 -20.8515625 30.90234375 C-20.1915625 30.90234375 -19.5315625 30.90234375 -18.8515625 30.90234375 C-18.8515625 28.92234375 -18.8515625 26.94234375 -18.8515625 24.90234375 C-20.1715625 24.57234375 -21.4915625 24.24234375 -22.8515625 23.90234375 C-22.8515625 21.26234375 -22.8515625 18.62234375 -22.8515625 15.90234375 C-21.5315625 15.24234375 -20.2115625 14.58234375 -18.8515625 13.90234375 C-18.8515625 12.91234375 -18.8515625 11.92234375 -18.8515625 10.90234375 C-18.1915625 10.90234375 -17.5315625 10.90234375 -16.8515625 10.90234375 C-16.8515625 11.89234375 -16.8515625 12.88234375 -16.8515625 13.90234375 C-15.8925 14.27359375 -15.8925 14.27359375 -14.9140625 14.65234375 C-12.8515625 15.90234375 -12.8515625 15.90234375 -12.1015625 18.02734375 C-11.9778125 18.95546875 -11.9778125 18.95546875 -11.8515625 19.90234375 C-12.5115625 19.90234375 -13.1715625 19.90234375 -13.8515625 19.90234375 C-14.1815625 18.91234375 -14.5115625 17.92234375 -14.8515625 16.90234375 C-15.5115625 16.90234375 -16.1715625 16.90234375 -16.8515625 16.90234375 C-17.18554037 19.776475 -17.18554037 19.776475 -16.8515625 22.90234375 C-16.1915625 23.39734375 -15.5315625 23.89234375 -14.8515625 24.40234375 C-14.1915625 24.89734375 -13.5315625 25.39234375 -12.8515625 25.90234375 C-12.6015625 29.08984375 -12.6015625 29.08984375 -12.8515625 31.90234375 C-14.8315625 32.89234375 -14.8315625 32.89234375 -16.8515625 33.90234375 C-16.8515625 34.89234375 -16.8515625 35.88234375 -16.8515625 36.90234375 C-11.87230492 35.62858018 -9.02629783 33.98414632 -5.8515625 29.90234375 C-4.96629141 26.21792871 -4.96629141 26.21792871 -4.8515625 22.90234375 C-2.8715625 22.90234375 -0.8915625 22.90234375 1.1484375 22.90234375 C1.02363534 16.91184012 -0.84539625 13.94370364 -4.96875 9.63671875 C-9.78490819 5.20025768 -14.10111614 4.38158649 -20.46484375 4.62890625 C-27.02809587 5.38083366 -30.34207184 9.19591756 -34.43359375 13.96484375 Z M-20.8515625 16.90234375 C-21.1815625 17.89234375 -21.5115625 18.88234375 -21.8515625 19.90234375 C-21.5215625 20.56234375 -21.1915625 21.22234375 -20.8515625 21.90234375 C-20.1915625 21.90234375 -19.5315625 21.90234375 -18.8515625 21.90234375 C-18.8515625 20.25234375 -18.8515625 18.60234375 -18.8515625 16.90234375 C-19.5115625 16.90234375 -20.1715625 16.90234375 -20.8515625 16.90234375 Z M-16.8515625 25.90234375 C-16.8515625 27.55234375 -16.8515625 29.20234375 -16.8515625 30.90234375 C-15.8615625 30.57234375 -14.8715625 30.24234375 -13.8515625 29.90234375 C-14.5115625 28.58234375 -15.1715625 27.26234375 -15.8515625 25.90234375 C-16.1815625 25.90234375 -16.5115625 25.90234375 -16.8515625 25.90234375 Z " fill="#FFFFFF" transform="translate(46.8515625,5.09765625)"/>
<path d="M0 0 C5.28 0 10.56 0 16 0 C15.49079429 9.16570281 13.54999807 16.26805754 7 23 C0.32955342 28.02108014 -5.55689507 30 -14 30 C-14 24.72 -14 19.44 -14 14 C-12.576875 13.4225 -11.15375 12.845 -9.6875 12.25 C-6.1399521 10.65971991 -3.79506709 9.59013418 -2 6 C-1.34 4.02 -0.68 2.04 0 0 Z M2 2 C1.608125 3.2375 1.21625 4.475 0.8125 5.75 C-0.69767493 9.74420098 -2.26944502 11.74431559 -6 14 C-9.3125 15.25 -9.3125 15.25 -12 16 C-12 17.32 -12 18.64 -12 20 C-6.01060543 19.87522095 -3.06176059 17.99881622 1.265625 13.90625 C4.76484624 10.06025909 6 7.16938426 6 2 C4.68 2 3.36 2 2 2 Z M9 2 C8.8040625 2.71285156 8.608125 3.42570312 8.40625 4.16015625 C6.15623686 11.36601731 3.52346364 16.00395159 -3 20 C-5.94904367 21.27563284 -8.8795486 22.24155695 -12 23 C-12 24.32 -12 25.64 -12 27 C-4.51444828 26.47469812 0.00906174 24.57359804 5.6875 19.6875 C10.57359804 14.00906174 12.47469812 9.48555172 13 2 C11.68 2 10.36 2 9 2 Z " fill="#FFFFFF" transform="translate(48,34)"/>
</svg>
