<?xml version="1.0" encoding="UTF-8"?>
<svg version="1.1" xmlns="http://www.w3.org/2000/svg" width="64" height="64">
<path d="M0 0 C5.76069261 4.62969424 8.21960316 8.89731957 9.0625 16.1953125 C9.39460825 23.4815662 8.08448666 28.72692097 3.24609375 34.2421875 C-1.70864126 38.94342444 -7.19664687 41.43895669 -14.0546875 41.58203125 C-22.404643 41.04953748 -27.57408294 38.80863867 -33.24609375 32.5234375 C-37.78205223 27.17748643 -37.65491818 21.68455568 -37.5859375 14.85546875 C-36.99709368 9.08209197 -34.75327712 4.9472466 -30.6015625 0.93359375 C-21.42725831 -6.2111804 -9.60206329 -6.31231291 0 0 Z M-22.24609375 10.5234375 C-25.58321726 14.76781681 -25.61453035 18.64444883 -25.43359375 23.8359375 C-25.42005859 24.57650391 -25.40652344 25.31707031 -25.39257812 26.08007812 C-25.35745354 27.89484825 -25.30365347 29.70924038 -25.24609375 31.5234375 C-24.58609375 31.1934375 -23.92609375 30.8634375 -23.24609375 30.5234375 C-20.0007901 30.32420331 -16.75739755 30.20511117 -13.5078125 30.09765625 C-9.68645647 29.42491453 -8.01851351 28.1807568 -5.24609375 25.5234375 C-2.95755381 22.25409472 -2.77447157 19.4536223 -3.24609375 15.5234375 C-4.72744174 12.17430292 -5.89297667 10.13195505 -9.3046875 8.59765625 C-14.46883657 7.1781684 -17.77446484 7.2229495 -22.24609375 10.5234375 Z " fill="#EA6F3B" transform="translate(46.24609375,13.4765625)"/>
<path d="M0 0 C4.27120485 3.02787467 8.00797838 6.05463288 10 11 C10.125 13.75 10.125 13.75 10 16 C6.33333333 16 2.66666667 16 -1 16 C-1 15.34 -1 14.68 -1 14 C-8.32054355 10.10226093 -16.79646272 8.97455784 -25 10 C-27.88643729 11.03555624 -30.40467922 12.38036373 -33 14 C-33.66 14.33 -34.32 14.66 -35 15 C-33.07075467 8.24764133 -30.67841336 3.71802192 -24.5 0.1875 C-16.37541163 -4.11129761 -8.2675556 -4.04883716 0 0 Z " fill="#EB743F" transform="translate(44,12)"/>
<path d="M0 0 C0.66 0 1.32 0 2 0 C2.33 0.66 2.66 1.32 3 2 C3.62648438 1.9278125 4.25296875 1.855625 4.8984375 1.78125 C6.12433594 1.64203125 6.12433594 1.64203125 7.375 1.5 C8.18710937 1.4071875 8.99921875 1.314375 9.8359375 1.21875 C12 1 12 1 14 1 C15.04287872 9.52511973 15.04287872 9.52511973 12.79296875 12.70703125 C4.38203049 19.22698574 -6.96168533 18.26035975 -17 18 C-17 17.67 -17 17.34 -17 17 C-15.78763672 16.97873047 -15.78763672 16.97873047 -14.55078125 16.95703125 C-7.57452756 16.92313545 -7.57452756 16.92313545 -1.8125 13.5625 C0.90662724 9.71821666 1.19209294 7.70627706 1 3 C0.67 2.01 0.34 1.02 0 0 Z " fill="#E25A3C" transform="translate(41,26)"/>
<path d="M0 0 C6.53539568 0.62241864 10.23083485 3.23083485 14.8125 7.8125 C17.24162956 11.35208879 17.74550115 13.75835255 18 18 C16.88625 17.979375 15.7725 17.95875 14.625 17.9375 C11.16784079 17.73619282 11.16784079 17.73619282 9 19 C8.68546875 17.96359375 8.3709375 16.9271875 8.046875 15.859375 C7.61523233 14.48937869 7.1829044 13.11959814 6.75 11.75 C6.44255859 10.72712891 6.44255859 10.72712891 6.12890625 9.68359375 C4.78921619 5.50213691 3.39393843 2.81377802 0 0 Z " fill="#F1843D" transform="translate(36,10)"/>
</svg>
