<?xml version="1.0" encoding="UTF-8"?>
<svg version="1.1" xmlns="http://www.w3.org/2000/svg" width="200" height="200">
<path d="M0 0 C0.94101563 0.00580078 1.88203125 0.01160156 2.8515625 0.01757812 C10.62240012 0.15555465 10.62240012 0.15555465 14.375 2.4375 C18.33495497 6.98244832 17.89080251 12.15844338 17.875 17.875 C17.90335938 18.80376953 17.93171875 19.73253906 17.9609375 20.68945312 C17.97274761 24.83775323 17.87981223 28.48959462 15.59375 32.0546875 C12.23958884 35.40109544 8.16221558 35.19505296 3.6484375 35.20898438 C2.02808594 35.16741211 2.02808594 35.16741211 0.375 35.125 C-0.70523438 35.13982422 -1.78546875 35.15464844 -2.8984375 35.16992188 C-7.53974353 35.12121681 -10.74288632 34.93066709 -14.83203125 32.64453125 C-17.60644289 27.68202154 -17.38924107 23.02958855 -17.3125 17.4375 C-17.34021484 16.35726562 -17.36792969 15.27703125 -17.39648438 14.1640625 C-17.36929001 5.35308753 -17.36929001 5.35308753 -14.24609375 2.21484375 C-9.89550581 -0.57702575 -4.98863717 -0.17570476 0 0 Z M-7.625 10.4375 C-7.69813567 12.96799402 -7.71747527 15.47054837 -7.6875 18 C-7.68298828 18.71091797 -7.67847656 19.42183594 -7.67382812 20.15429688 C-7.66200864 21.91540013 -7.64407263 23.67646036 -7.625 25.4375 C-5.14576199 25.46435095 -2.6668116 25.48426547 -0.1875 25.5 C0.87307617 25.51256836 0.87307617 25.51256836 1.95507812 25.52539062 C3.76193559 25.53403588 5.56887603 25.48970011 7.375 25.4375 C9.24743981 23.56506019 8.54880392 20.50090482 8.5625 18 C8.57667969 16.82566406 8.59085938 15.65132812 8.60546875 14.44140625 C8.69399256 11.32253098 8.69399256 11.32253098 6.375 9.4375 C3.28177543 9.15559443 3.28177543 9.15559443 -0.1875 9.25 C-1.36441406 9.25644531 -2.54132813 9.26289062 -3.75390625 9.26953125 C-6.52135973 9.11232565 -6.52135973 9.11232565 -7.625 10.4375 Z " fill="#FFFFFF" transform="translate(141.625,40.5625)"/>
<path d="M0 0 C0.92876953 -0.02835938 1.85753906 -0.05671875 2.81445312 -0.0859375 C6.96275323 -0.09774761 10.61459462 -0.00481223 14.1796875 2.28125 C17.52609544 5.63541116 17.32005296 9.71278442 17.33398438 14.2265625 C17.30626953 15.30679688 17.27855469 16.38703125 17.25 17.5 C17.26482422 18.58023438 17.27964844 19.66046875 17.29492188 20.7734375 C17.24621681 25.41474353 17.05566709 28.61788632 14.76953125 32.70703125 C9.80702154 35.48144289 5.15458855 35.26424107 -0.4375 35.1875 C-1.51773438 35.21521484 -2.59796875 35.24292969 -3.7109375 35.27148438 C-12.52191247 35.24429001 -12.52191247 35.24429001 -15.66015625 32.12109375 C-18.45202575 27.77050581 -18.05070476 22.86363717 -17.875 17.875 C-17.86919922 16.93398438 -17.86339844 15.99296875 -17.85742188 15.0234375 C-17.71944535 7.25259988 -17.71944535 7.25259988 -15.4375 3.5 C-10.89255168 -0.45995497 -5.71655662 -0.01580251 0 0 Z M-8.4375 11.5 C-8.71940557 14.59322457 -8.71940557 14.59322457 -8.625 18.0625 C-8.61855469 19.23941406 -8.61210938 20.41632812 -8.60546875 21.62890625 C-8.76267435 24.39635973 -8.76267435 24.39635973 -7.4375 25.5 C-4.90700598 25.57313567 -2.40445163 25.59247527 0.125 25.5625 C0.83591797 25.55798828 1.54683594 25.55347656 2.27929688 25.54882812 C4.04040013 25.53700864 5.80146036 25.51907263 7.5625 25.5 C7.58935095 23.02076199 7.60926547 20.5418116 7.625 18.0625 C7.63337891 17.35544922 7.64175781 16.64839844 7.65039062 15.91992188 C7.65903588 14.11306441 7.61470011 12.30612397 7.5625 10.5 C5.69006019 8.62756019 2.62590482 9.32619608 0.125 9.3125 C-1.04933594 9.29832031 -2.22367188 9.28414062 -3.43359375 9.26953125 C-6.55246902 9.18100744 -6.55246902 9.18100744 -8.4375 11.5 Z " fill="#FFFFFF" transform="translate(58.4375,40.5)"/>
<path d="M0 0 C1.04607422 -0.03738281 2.09214844 -0.07476562 3.16992188 -0.11328125 C7.75945443 -0.1658666 10.81801835 -0.10875572 14.875 2.1484375 C17.66846519 7.12128718 17.45198356 11.7652417 17.375 17.375 C17.40271484 18.45523438 17.43042969 19.53546875 17.45898438 20.6484375 C17.43179001 29.45941247 17.43179001 29.45941247 14.30859375 32.59765625 C9.95800581 35.38952575 5.05113717 34.98820476 0.0625 34.8125 C-0.87851562 34.80669922 -1.81953125 34.80089844 -2.7890625 34.79492188 C-10.55852029 34.65696985 -10.55852029 34.65696985 -14.3125 32.375 C-18.2990003 27.81899966 -17.79337016 22.60774623 -17.75 16.875 C-17.76998047 15.93785156 -17.78996094 15.00070313 -17.81054688 14.03515625 C-17.80743264 9.64409187 -17.74973578 7.08606927 -15.41015625 3.28125 C-10.90281413 -0.81480764 -5.82269471 0.07806172 0 0 Z M-8.3125 10.375 C-8.43787741 12.51807896 -8.48824364 14.66578886 -8.5 16.8125 C-8.51417969 17.98683594 -8.52835938 19.16117188 -8.54296875 20.37109375 C-8.63149256 23.48996902 -8.63149256 23.48996902 -6.3125 25.375 C-3.21927543 25.65690557 -3.21927543 25.65690557 0.25 25.5625 C1.42691406 25.55605469 2.60382812 25.54960937 3.81640625 25.54296875 C6.58385973 25.70017435 6.58385973 25.70017435 7.6875 24.375 C7.76063567 21.84450598 7.77997527 19.34195163 7.75 16.8125 C7.74548828 16.10158203 7.74097656 15.39066406 7.73632812 14.65820312 C7.72450864 12.89709987 7.70657263 11.13603964 7.6875 9.375 C5.20826199 9.34814905 2.7293116 9.32823453 0.25 9.3125 C-0.45705078 9.30412109 -1.16410156 9.29574219 -1.89257812 9.28710938 C-5.39253629 8.94202695 -5.39253629 8.94202695 -8.3125 10.375 Z " fill="#FFFFFF" transform="translate(58.3125,124.625)"/>
<path d="M0 0 C1.11632812 -0.02449219 2.23265625 -0.04898437 3.3828125 -0.07421875 C11.27487322 -0.10213878 16.85422597 0.90533592 22.8984375 6.12109375 C23.56746094 6.95833984 23.56746094 6.95833984 24.25 7.8125 C24.71148437 8.36808594 25.17296875 8.92367188 25.6484375 9.49609375 C28.36951381 13.66436669 29.12957496 17.32195567 29.140625 22.26171875 C29.14449219 23.9159082 29.14449219 23.9159082 29.1484375 25.60351562 C29.14070313 26.74498047 29.13296875 27.88644531 29.125 29.0625 C29.13660156 30.79209961 29.13660156 30.79209961 29.1484375 32.55664062 C29.14585937 33.65556641 29.14328125 34.75449219 29.140625 35.88671875 C29.13836914 36.89178467 29.13611328 37.89685059 29.13378906 38.93237305 C28.875 41.375 28.875 41.375 26.875 43.375 C24.375 43.625 24.375 43.625 21.875 43.375 C19.51225622 41.01225622 19.62022872 40.51222536 19.56640625 37.3046875 C19.54126953 36.49 19.51613281 35.6753125 19.49023438 34.8359375 C19.45555743 33.1354831 19.42421125 31.43495693 19.39648438 29.734375 C19.19502069 23.46443216 18.56972999 17.15955432 14 12.4375 C8.10185088 9.48842544 1.00955969 10.05400888 -5.43945312 9.85742188 C-6.26767578 9.82326172 -7.09589844 9.78910156 -7.94921875 9.75390625 C-8.70291748 9.7288501 -9.45661621 9.70379395 -10.2331543 9.67797852 C-12.125 9.375 -12.125 9.375 -14.125 7.375 C-14.375 4.875 -14.375 4.875 -14.125 2.375 C-10.52046163 -1.22953837 -4.87394474 0.00551351 0 0 Z " fill="#FFFFFF" transform="translate(155.125,15.625)"/>
<path d="M0 0 C1.10279297 -0.00257812 2.20558594 -0.00515625 3.34179688 -0.0078125 C4.48326172 -0.00007812 5.62472656 0.00765625 6.80078125 0.015625 C7.95384766 0.00789062 9.10691406 0.00015625 10.29492188 -0.0078125 C11.94331055 -0.00394531 11.94331055 -0.00394531 13.625 0 C15.13259888 0.00338379 15.13259888 0.00338379 16.6706543 0.00683594 C19.11328125 0.265625 19.11328125 0.265625 21.11328125 2.265625 C21.36328125 4.765625 21.36328125 4.765625 21.11328125 7.265625 C18.75053747 9.62836878 18.25050661 9.52039628 15.04296875 9.57421875 C13.8209375 9.61192383 13.8209375 9.61192383 12.57421875 9.65039062 C10.87376435 9.68506757 9.17323818 9.71641375 7.47265625 9.74414062 C1.20271341 9.94560431 -5.10216443 10.57089501 -9.82421875 15.140625 C-12.77329331 21.03877412 -12.20770987 28.13106531 -12.40429688 34.58007812 C-12.43845703 35.40830078 -12.47261719 36.23652344 -12.5078125 37.08984375 C-12.53286865 37.84354248 -12.5579248 38.59724121 -12.58374023 39.3737793 C-12.88671875 41.265625 -12.88671875 41.265625 -14.88671875 43.265625 C-17.38671875 43.515625 -17.38671875 43.515625 -19.88671875 43.265625 C-23.49125712 39.66108663 -22.25620524 34.01456974 -22.26171875 29.140625 C-22.28621094 28.02429688 -22.31070312 26.90796875 -22.3359375 25.7578125 C-22.36385753 17.86575178 -21.35638283 12.28639903 -16.140625 6.2421875 C-15.58246094 5.79617187 -15.02429688 5.35015625 -14.44921875 4.890625 C-13.89363281 4.42914062 -13.33804687 3.96765625 -12.765625 3.4921875 C-8.59735206 0.77111119 -4.93976308 0.01105004 0 0 Z " fill="#FFFFFF" transform="translate(37.88671875,15.734375)"/>
<path d="M0 0 C2.5 0.25 2.5 0.25 4.5 2.25 C4.98778531 6.27115456 4.87042158 10.327677 4.875 14.375 C4.89949219 15.49132812 4.92398438 16.60765625 4.94921875 17.7578125 C4.97717104 25.65899348 3.93916291 31.18267949 -1.2109375 37.2734375 C-1.76007813 37.71945313 -2.30921875 38.16546875 -2.875 38.625 C-3.41898438 39.08648437 -3.96296875 39.54796875 -4.5234375 40.0234375 C-10.88455563 43.97085073 -17.50920557 43.55159711 -24.75 43.5 C-25.85085937 43.50773437 -26.95171875 43.51546875 -28.0859375 43.5234375 C-29.13523438 43.52085937 -30.18453125 43.51828125 -31.265625 43.515625 C-32.22243164 43.51336914 -33.17923828 43.51111328 -34.16503906 43.50878906 C-36.5 43.25 -36.5 43.25 -38.5 41.25 C-38.75 38.75 -38.75 38.75 -38.5 36.25 C-36.13725622 33.88725622 -35.63722536 33.99522872 -32.4296875 33.94140625 C-31.615 33.91626953 -30.8003125 33.89113281 -29.9609375 33.86523438 C-28.2604831 33.83055743 -26.55995693 33.79921125 -24.859375 33.77148438 C-18.58943216 33.57002069 -12.28455432 32.94472999 -7.5625 28.375 C-4.61342544 22.47685088 -5.17900888 15.38455969 -4.98242188 8.93554688 C-4.94826172 8.10732422 -4.91410156 7.27910156 -4.87890625 6.42578125 C-4.84132202 5.29523315 -4.84132202 5.29523315 -4.80297852 4.1418457 C-4.29964676 0.99896274 -3.05959686 0.30595969 0 0 Z " fill="#FFFFFF" transform="translate(179.5,140.75)"/>
<path d="M0 0 C2.5 0.25 2.5 0.25 4.5 2.25 C4.77124023 4.09423828 4.77124023 4.09423828 4.80859375 6.3203125 C4.83373047 7.135 4.85886719 7.9496875 4.88476562 8.7890625 C4.91944257 10.4895169 4.95078875 12.19004307 4.97851562 13.890625 C5.17997931 20.16056784 5.80527001 26.46544568 10.375 31.1875 C16.27314912 34.13657456 23.36544031 33.57099112 29.81445312 33.76757812 C30.64267578 33.80173828 31.47089844 33.83589844 32.32421875 33.87109375 C33.07791748 33.8961499 33.83161621 33.92120605 34.6081543 33.94702148 C36.5 34.25 36.5 34.25 38.5 36.25 C38.75 38.75 38.75 38.75 38.5 41.25 C34.89546163 44.85453837 29.24894474 43.61948649 24.375 43.625 C23.25867188 43.64949219 22.14234375 43.67398438 20.9921875 43.69921875 C13.09100652 43.72717104 7.56732051 42.68916291 1.4765625 37.5390625 C1.03054687 36.98992187 0.58453125 36.44078125 0.125 35.875 C-0.56722656 35.05902344 -0.56722656 35.05902344 -1.2734375 34.2265625 C-5.22085073 27.86544437 -4.80159711 21.24079443 -4.75 14 C-4.75773438 12.89914063 -4.76546875 11.79828125 -4.7734375 10.6640625 C-4.77085938 9.61476562 -4.76828125 8.56546875 -4.765625 7.484375 C-4.76336914 6.52756836 -4.76111328 5.57076172 -4.75878906 4.58496094 C-4.3818439 1.18391986 -3.37595706 0.33759571 0 0 Z " fill="#FFFFFF" transform="translate(20.5,140.75)"/>
<path d="M0 0 C2.5 0.25 2.5 0.25 4.5 2.25 C4.625 5.875 4.625 5.875 4.5 9.25 C7.14 9.25 9.78 9.25 12.5 9.25 C12.45875 8.13625 12.4175 7.0225 12.375 5.875 C12.5 2.25 12.5 2.25 14.5 0.25 C17 0 17 0 19.5 0.25 C21.5 2.25 21.5 2.25 21.625 5.875 C21.58375 6.98875 21.5425 8.1025 21.5 9.25 C24.14 9.25 26.78 9.25 29.5 9.25 C29.45875 8.13625 29.4175 7.0225 29.375 5.875 C29.5 2.25 29.5 2.25 31.5 0.25 C34 0 34 0 36.5 0.25 C38.5 2.25 38.5 2.25 38.765625 5.4375 C38.76046875 6.695625 38.7553125 7.95375 38.75 9.25 C38.75773437 11.1371875 38.75773437 11.1371875 38.765625 13.0625 C38.5 16.25 38.5 16.25 36.5 18.25 C33.58250865 18.44998324 30.76198071 18.52974887 27.84375 18.515625 C26.98567749 18.51753845 26.12760498 18.5194519 25.24353027 18.52142334 C23.42781278 18.52278544 21.61208555 18.51908728 19.79638672 18.51074219 C17.0111715 18.50004291 14.22660132 18.51063653 11.44140625 18.5234375 C9.67968607 18.52211591 7.91796629 18.51955353 6.15625 18.515625 C4.90152893 18.52169769 4.90152893 18.52169769 3.62145996 18.52789307 C-2.27008166 18.47991834 -2.27008166 18.47991834 -4.5 16.25 C-4.765625 13.0625 -4.765625 13.0625 -4.75 9.25 C-4.75515625 7.991875 -4.7603125 6.73375 -4.765625 5.4375 C-4.44358754 1.57305049 -3.95670619 0.39567062 0 0 Z " fill="#FFFFFF" transform="translate(120.5,140.75)"/>
<path d="M0 0 C10.56 0 21.12 0 32 0 C32.495 3.465 32.495 3.465 33 7 C31 9 31 9 27.875 9.125 C26.92625 9.08375 25.9775 9.0425 25 9 C25 11.31 25 13.62 25 16 C26.423125 15.938125 26.423125 15.938125 27.875 15.875 C31 16 31 16 33 18 C32.625 21.625 32.625 21.625 32 25 C28.20839703 25.05786668 24.41690689 25.09355054 20.625 25.125 C19.00464844 25.15013672 19.00464844 25.15013672 17.3515625 25.17578125 C16.3203125 25.18222656 15.2890625 25.18867187 14.2265625 25.1953125 C12.79691162 25.21102295 12.79691162 25.21102295 11.33837891 25.22705078 C9 25 9 25 7 23 C6.75 20.5 6.75 20.5 7 18 C9 16 9 16 12.625 15.875 C14.295625 15.936875 14.295625 15.936875 16 16 C16 13.69 16 11.38 16 9 C14.94039062 9.02320312 13.88078125 9.04640625 12.7890625 9.0703125 C11.4010487 9.08906944 10.0130273 9.10726972 8.625 9.125 C7.57699219 9.15013672 7.57699219 9.15013672 6.5078125 9.17578125 C4.67102514 9.19344267 2.83398037 9.10303261 1 9 C0.34 8.34 -0.32 7.68 -1 7 C-0.67 4.69 -0.34 2.38 0 0 Z " fill="#FFFFFF" transform="translate(84,75)"/>
<path d="M0 0 C1.1653125 -0.01417969 2.330625 -0.02835937 3.53125 -0.04296875 C6.5 0.1875 6.5 0.1875 8.5 2.1875 C8.75878906 4.40234375 8.75878906 4.40234375 8.765625 7.125 C8.76949219 8.59066406 8.76949219 8.59066406 8.7734375 10.0859375 C8.76570313 11.10945313 8.75796875 12.13296875 8.75 13.1875 C8.76160156 14.72277344 8.76160156 14.72277344 8.7734375 16.2890625 C8.77085938 17.26617187 8.76828125 18.24328125 8.765625 19.25 C8.76336914 20.14847656 8.76111328 21.04695313 8.75878906 21.97265625 C8.5 24.1875 8.5 24.1875 6.5 26.1875 C3.55078125 26.44628906 3.55078125 26.44628906 -0.1875 26.453125 C-0.84580811 26.45503845 -1.50411621 26.4569519 -2.18237305 26.45892334 C-3.5743854 26.4602845 -4.96641047 26.45659283 -6.35839844 26.44824219 C-8.49182589 26.437541 -10.62441131 26.44813906 -12.7578125 26.4609375 C-14.10937686 26.45961589 -15.4609407 26.45705347 -16.8125 26.453125 C-18.04613281 26.45086914 -19.27976562 26.44861328 -20.55078125 26.44628906 C-23.5 26.1875 -23.5 26.1875 -25.5 24.1875 C-25.17 21.8775 -24.84 19.5675 -24.5 17.1875 C-16.58 17.1875 -8.66 17.1875 -0.5 17.1875 C-0.5 14.5475 -0.5 11.9075 -0.5 9.1875 C-1.44875 9.208125 -2.3975 9.22875 -3.375 9.25 C-6.5 9.1875 -6.5 9.1875 -8.5 8.1875 C-8.5 5.8775 -8.5 3.5675 -8.5 1.1875 C-5.65161879 -0.2366906 -3.17212092 0.01754492 0 0 Z " fill="#FFFFFF" transform="translate(108.5,107.8125)"/>
<path d="M0 0 C2.5 0.25 2.5 0.25 4.5 2.25 C4.625 5.875 4.625 5.875 4.5 9.25 C6.81 9.25 9.12 9.25 11.5 9.25 C11.45875 8.13625 11.4175 7.0225 11.375 5.875 C11.5 2.25 11.5 2.25 13.5 0.25 C16.6875 -0.015625 16.6875 -0.015625 20.5 0 C21.758125 -0.00515625 23.01625 -0.0103125 24.3125 -0.015625 C27.5 0.25 27.5 0.25 29.5 2.25 C29.75 4.75 29.75 4.75 29.5 7.25 C27.5 9.25 27.5 9.25 23.875 9.375 C22.76125 9.33375 21.6475 9.2925 20.5 9.25 C20.54125 10.36375 20.5825 11.4775 20.625 12.625 C20.5 16.25 20.5 16.25 18.5 18.25 C16.37695312 18.50878906 16.37695312 18.50878906 13.78125 18.515625 C12.84925781 18.51820313 11.91726562 18.52078125 10.95703125 18.5234375 C9.98121094 18.51570313 9.00539062 18.50796875 8 18.5 C7.02417969 18.50773437 6.04835937 18.51546875 5.04296875 18.5234375 C4.11097656 18.52085937 3.17898437 18.51828125 2.21875 18.515625 C1.36216797 18.51336914 0.50558594 18.51111328 -0.37695312 18.50878906 C-2.5 18.25 -2.5 18.25 -4.5 16.25 C-4.765625 13.0625 -4.765625 13.0625 -4.75 9.25 C-4.75515625 7.991875 -4.7603125 6.73375 -4.765625 5.4375 C-4.44358754 1.57305049 -3.95670619 0.39567062 0 0 Z " fill="#FFFFFF" transform="translate(129.5,115.75)"/>
<path d="M0 0 C0.65830811 -0.00191345 1.31661621 -0.0038269 1.99487305 -0.00579834 C3.3868854 -0.0071595 4.77891047 -0.00346783 6.17089844 0.00488281 C8.30432589 0.015584 10.43691131 0.00498594 12.5703125 -0.0078125 C13.92187686 -0.00649089 15.2734407 -0.00392847 16.625 0 C18.47544922 0.00338379 18.47544922 0.00338379 20.36328125 0.00683594 C23.3125 0.265625 23.3125 0.265625 25.3125 2.265625 C25.57128906 4.48046875 25.57128906 4.48046875 25.578125 7.203125 C25.58199219 8.66878906 25.58199219 8.66878906 25.5859375 10.1640625 C25.57820313 11.18757813 25.57046875 12.21109375 25.5625 13.265625 C25.57410156 14.80089844 25.57410156 14.80089844 25.5859375 16.3671875 C25.58335938 17.34429687 25.58078125 18.32140625 25.578125 19.328125 C25.57586914 20.22660156 25.57361328 21.12507813 25.57128906 22.05078125 C25.3125 24.265625 25.3125 24.265625 23.3125 26.265625 C20.8125 26.515625 20.8125 26.515625 18.3125 26.265625 C16.3125 24.265625 16.3125 24.265625 16.1171875 20.7890625 C16.12862305 19.40609867 16.15458742 18.02324443 16.1875 16.640625 C16.249375 12.99 16.249375 12.99 16.3125 9.265625 C8.3925 9.265625 0.4725 9.265625 -7.6875 9.265625 C-8.0175 6.955625 -8.3475 4.645625 -8.6875 2.265625 C-5.85490425 -0.56697075 -3.9605534 0.00724239 0 0 Z " fill="#FFFFFF" transform="translate(91.6875,40.734375)"/>
<path d="M0 0 C1.46566406 -0.00386719 1.46566406 -0.00386719 2.9609375 -0.0078125 C3.98445313 -0.00007812 5.00796875 0.00765625 6.0625 0.015625 C7.08601563 0.00789062 8.10953125 0.00015625 9.1640625 -0.0078125 C10.14117187 -0.00523437 11.11828125 -0.00265625 12.125 0 C13.02347656 0.00225586 13.92195313 0.00451172 14.84765625 0.00683594 C17.0625 0.265625 17.0625 0.265625 19.0625 2.265625 C19.3125 4.765625 19.3125 4.765625 19.0625 7.265625 C17.0625 9.265625 17.0625 9.265625 13.5859375 9.4609375 C12.20299032 9.44763993 10.82011346 9.42378732 9.4375 9.390625 C8.73109375 9.38160156 8.0246875 9.37257812 7.296875 9.36328125 C5.55193902 9.33970103 3.80717705 9.30382961 2.0625 9.265625 C2.10375 10.379375 2.145 11.493125 2.1875 12.640625 C2.0625 16.265625 2.0625 16.265625 0.0625 18.265625 C-2.4375 18.515625 -2.4375 18.515625 -4.9375 18.265625 C-6.9375 16.265625 -6.9375 16.265625 -7.203125 13.078125 C-7.19796875 11.82 -7.1928125 10.561875 -7.1875 9.265625 C-7.19265625 8.0075 -7.1978125 6.749375 -7.203125 5.453125 C-6.76638443 0.21223817 -4.72712074 0.01186867 0 0 Z " fill="#FFFFFF" transform="translate(89.9375,140.734375)"/>
<path d="M0 0 C2.53054337 2.53054337 2.25683229 3.43548882 2.265625 6.9375 C2.26949219 8.40316406 2.26949219 8.40316406 2.2734375 9.8984375 C2.26570313 10.92195313 2.25796875 11.94546875 2.25 13 C2.25773437 14.02351563 2.26546875 15.04703125 2.2734375 16.1015625 C2.27085937 17.07867187 2.26828125 18.05578125 2.265625 19.0625 C2.26336914 19.96097656 2.26111328 20.85945313 2.25878906 21.78515625 C2 24 2 24 0 26 C-2.5 26.25 -2.5 26.25 -5 26 C-7 24 -7 24 -7.125 20.375 C-7.08375 19.26125 -7.0425 18.1475 -7 17 C-8.670625 17.061875 -8.670625 17.061875 -10.375 17.125 C-14 17 -14 17 -16 15 C-16.25 12.5 -16.25 12.5 -16 10 C-14 8 -14 8 -10.375 7.875 C-8.704375 7.936875 -8.704375 7.936875 -7 8 C-7 5.69 -7 3.38 -7 1 C-4.48718205 -0.25640898 -2.78302919 -0.20872719 0 0 Z " fill="#FFFFFF" transform="translate(157,83)"/>
<path d="M0 0 C1.1653125 0.01417969 2.330625 0.02835937 3.53125 0.04296875 C5.27921875 0.05263672 5.27921875 0.05263672 7.0625 0.0625 C10.03125 0.23046875 10.03125 0.23046875 12.03125 1.23046875 C12.03125 3.54046875 12.03125 5.85046875 12.03125 8.23046875 C13.145 8.18921875 14.25875 8.14796875 15.40625 8.10546875 C19.03125 8.23046875 19.03125 8.23046875 21.03125 10.23046875 C21.28125 12.73046875 21.28125 12.73046875 21.03125 15.23046875 C19.03125 17.23046875 19.03125 17.23046875 15.84375 17.49609375 C13.9565625 17.48835938 13.9565625 17.48835938 12.03125 17.48046875 C10.773125 17.485625 9.515 17.49078125 8.21875 17.49609375 C5.03125 17.23046875 5.03125 17.23046875 3.03125 15.23046875 C2.90625 12.10546875 2.90625 12.10546875 3.03125 9.23046875 C2.0825 9.27171875 1.13375 9.31296875 0.15625 9.35546875 C-2.96875 9.23046875 -2.96875 9.23046875 -4.96875 7.23046875 C-5.21875 4.73046875 -5.21875 4.73046875 -4.96875 2.23046875 C-2.96875 0.23046875 -2.96875 0.23046875 0 0 Z " fill="#FFFFFF" transform="translate(62.96875,82.76953125)"/>
<path d="M0 0 C2.53054337 2.53054337 2.25683229 3.43548882 2.265625 6.9375 C2.26820313 7.91460937 2.27078125 8.89171875 2.2734375 9.8984375 C2.26570312 10.92195313 2.25796875 11.94546875 2.25 13 C2.25773438 14.02351563 2.26546875 15.04703125 2.2734375 16.1015625 C2.27085937 17.07867187 2.26828125 18.05578125 2.265625 19.0625 C2.26336914 19.96097656 2.26111328 20.85945313 2.25878906 21.78515625 C2 24 2 24 0 26 C-2.5 26.25 -2.5 26.25 -5 26 C-7 24 -7 24 -7.22705078 21.66162109 C-7.21657715 20.70852051 -7.20610352 19.75541992 -7.1953125 18.7734375 C-7.18886719 17.7421875 -7.18242188 16.7109375 -7.17578125 15.6484375 C-7.15902344 14.56820312 -7.14226562 13.48796875 -7.125 12.375 C-7.11597656 11.28703125 -7.10695313 10.1990625 -7.09765625 9.078125 C-7.07403409 6.38519848 -7.04109556 3.69270745 -7 1 C-4.48718205 -0.25640898 -2.78302919 -0.20872719 0 0 Z " fill="#FFFFFF" transform="translate(132,83)"/>
<path d="M0 0 C1.46566406 -0.00386719 1.46566406 -0.00386719 2.9609375 -0.0078125 C3.98445313 -0.00007813 5.00796875 0.00765625 6.0625 0.015625 C7.08601563 0.00789063 8.10953125 0.00015625 9.1640625 -0.0078125 C10.14117187 -0.00523438 11.11828125 -0.00265625 12.125 0 C13.02347656 0.00225586 13.92195313 0.00451172 14.84765625 0.00683594 C17.0625 0.265625 17.0625 0.265625 19.0625 2.265625 C19.3125 4.765625 19.3125 4.765625 19.0625 7.265625 C16.53195663 9.79616837 15.62701118 9.52245729 12.125 9.53125 C11.14789063 9.53382812 10.17078125 9.53640625 9.1640625 9.5390625 C8.14054687 9.53132813 7.11703125 9.52359375 6.0625 9.515625 C5.03898437 9.52335937 4.01546875 9.53109375 2.9609375 9.5390625 C1.98382813 9.53648438 1.00671875 9.53390625 0 9.53125 C-0.89847656 9.52899414 -1.79695313 9.52673828 -2.72265625 9.52441406 C-4.9375 9.265625 -4.9375 9.265625 -6.9375 7.265625 C-7.1875 4.765625 -7.1875 4.765625 -6.9375 2.265625 C-4.40695663 -0.26491837 -3.50201118 0.00879271 0 0 Z " fill="#FFFFFF" transform="translate(47.9375,107.734375)"/>
<path d="M0 0 C3.625 0.375 3.625 0.375 7 1 C7.02685095 3.47923801 7.04676547 5.9581884 7.0625 8.4375 C7.07087891 9.14455078 7.07925781 9.85160156 7.08789062 10.58007812 C7.09653588 12.38693559 7.05220011 14.19387603 7 16 C6 17 6 17 3.0625 17.1875 C0 17 0 17 -2 15 C-2.265625 12.03125 -2.265625 12.03125 -2.25 8.5 C-2.25515625 7.3346875 -2.2603125 6.169375 -2.265625 4.96875 C-2 2 -2 2 0 0 Z " fill="#FFFFFF" transform="translate(43,83)"/>
<path d="M0 0 C1.74796875 -0.02126953 1.74796875 -0.02126953 3.53125 -0.04296875 C6.5 0.1875 6.5 0.1875 8.5 2.1875 C8.75 4.6875 8.75 4.6875 8.5 7.1875 C6.5 9.1875 6.5 9.1875 3.53125 9.41796875 C2.3659375 9.40378906 1.200625 9.38960937 0 9.375 C-1.1653125 9.36855469 -2.330625 9.36210938 -3.53125 9.35546875 C-6.5 9.1875 -6.5 9.1875 -8.5 8.1875 C-8.5 5.8775 -8.5 3.5675 -8.5 1.1875 C-5.65161879 -0.2366906 -3.17212092 0.01754492 0 0 Z " fill="#FFFFFF" transform="translate(83.5,107.8125)"/>
<path d="M0 0 C1.1653125 0.01417969 2.330625 0.02835938 3.53125 0.04296875 C5.27921875 0.05263672 5.27921875 0.05263672 7.0625 0.0625 C10.03125 0.23046875 10.03125 0.23046875 12.03125 1.23046875 C12.03125 3.54046875 12.03125 5.85046875 12.03125 8.23046875 C9.18286879 9.65465935 6.70337092 9.40042383 3.53125 9.41796875 C2.3659375 9.43214844 1.200625 9.44632813 0 9.4609375 C-2.96875 9.23046875 -2.96875 9.23046875 -4.96875 7.23046875 C-5.21875 4.73046875 -5.21875 4.73046875 -4.96875 2.23046875 C-2.96875 0.23046875 -2.96875 0.23046875 0 0 Z " fill="#FFFFFF" transform="translate(87.96875,57.76953125)"/>
</svg>
