<?xml version="1.0" encoding="UTF-8"?>
<svg version="1.1" xmlns="http://www.w3.org/2000/svg" width="64" height="64">
<path d="M0 0 C2.475 0.99 2.475 0.99 5 2 C5 2.66 5 3.32 5 4 C5.99 4.33 6.98 4.66 8 5 C8 5.66 8 6.32 8 7 C8.99 7.33 9.98 7.66 11 8 C11 8.66 11 9.32 11 10 C11.66 10 12.32 10 13 10 C17.48286185 14.2308134 21.51391525 18.78107954 21.9375 25.125 C21.45036661 30.97060068 18.10395133 34.13588998 14 38 C13.29875 38.845625 12.5975 39.69125 11.875 40.5625 C10 42 10 42 7.25 41.75 C6.5075 41.5025 5.765 41.255 5 41 C5.25 38.625 5.25 38.625 6 36 C7.9375 34.9375 7.9375 34.9375 10 34 C11.1500831 32.03327085 11.1500831 32.03327085 12 30 C12.66 29.34 13.32 28.68 14 28 C14.32954432 24.90228335 14.45334601 22.82668977 12.9375 20.0625 C10.90103747 18.76574254 10.90103747 18.76574254 7.8125 18.8125 C3.06405503 20.29152384 1.12214492 22.62946107 -2.0078125 26.3828125 C-4 28 -4 28 -6.7421875 27.7421875 C-7.48726562 27.49726562 -8.23234375 27.25234375 -9 27 C-8.50008693 22.71716268 -7.29833005 20.818457 -4.1875 17.875 C-3.15689453 16.88113281 -3.15689453 16.88113281 -2.10546875 15.8671875 C-0.14009199 14.12423743 1.87282519 12.53921413 4 11 C3.55527344 10.61328125 3.11054687 10.2265625 2.65234375 9.828125 C2.08644531 9.30734375 1.52054688 8.7865625 0.9375 8.25 C0.36902344 7.73953125 -0.19945312 7.2290625 -0.78515625 6.703125 C-2 5 -2 5 -1.74609375 2.859375 C-1 1 -1 1 0 0 Z " fill="#FB886A" transform="translate(31,7)"/>
<path d="M0 0 C0.7425 0.2475 1.485 0.495 2.25 0.75 C1.56048471 5.58755174 -1.70354991 8.02189674 -5.03515625 11.3359375 C-7.18639688 14.36433547 -7.15167542 16.10981649 -6.75 19.75 C-5.83333333 21.83333333 -5.83333333 21.83333333 -3.75 22.75 C-0.40621408 23.13483922 -0.40621408 23.13483922 3.25 21.75 C5.43452311 19.73957551 7.35673189 17.64690657 9.2578125 15.3671875 C11.25 13.75 11.25 13.75 13.9921875 14.0078125 C14.73726562 14.25273437 15.48234375 14.49765625 16.25 14.75 C15.75008693 19.03283732 14.54833005 20.931543 11.4375 23.875 C10.75042969 24.53757812 10.06335938 25.20015625 9.35546875 25.8828125 C7.39009199 27.62576257 5.37717481 29.21078587 3.25 30.75 C4.054375 31.4925 4.85875 32.235 5.6875 33 C8.01988591 35.50304829 8.88534394 36.4680955 9.25 39.75 C7.93 40.41 6.61 41.07 5.25 41.75 C2.26679077 38.7957194 -0.71086803 35.83590637 -3.6875 32.875 C-4.53763672 32.03324219 -5.38777344 31.19148438 -6.26367188 30.32421875 C-7.07255859 29.51855469 -7.88144531 28.71289062 -8.71484375 27.8828125 C-9.4637085 27.13918457 -10.21257324 26.39555664 -10.98413086 25.62939453 C-14.23850339 22.1658027 -14.26101607 19.03078083 -14.234375 14.421875 C-13.36809639 9.64337042 -10.1719232 6.97194068 -6.75 3.75 C-6.04875 2.904375 -5.3475 2.05875 -4.625 1.1875 C-2.75 -0.25 -2.75 -0.25 0 0 Z " fill="#48DEC1" transform="translate(25.75,15.25)"/>
<path d="M0 0 C2.96220393 2.22165295 4.65472374 3.63989147 5.578125 7.27734375 C5.92848506 12.44515469 5.16754501 15.43451168 1.75 19.375 C0.51446998 20.5981251 -0.73422644 21.80820022 -2 23 C-2.70125 23.845625 -3.4025 24.69125 -4.125 25.5625 C-6 27 -6 27 -8.75 26.75 C-9.4925 26.5025 -10.235 26.255 -11 26 C-10.75 23.625 -10.75 23.625 -10 21 C-8.0625 19.9375 -8.0625 19.9375 -6 19 C-5.29848848 17.6846659 -4.63474075 16.34882408 -4 15 C-3.29875 14.484375 -2.5975 13.96875 -1.875 13.4375 C1.19819329 9.44234872 0.30193236 4.86446576 0 0 Z " fill="#FCA08D" transform="translate(47,22)"/>
<path d="M0 0 C0.7425 0.2475 1.485 0.495 2.25 0.75 C1.67473475 4.60870232 -0.10772398 6.64498568 -2.6875 9.5 C-3.39777344 10.29921875 -4.10804687 11.0984375 -4.83984375 11.921875 C-6.75 13.75 -6.75 13.75 -8.75 13.75 C-9.08 17.71 -9.41 21.67 -9.75 25.75 C-14.35162602 21.14837398 -14.35162602 21.14837398 -14.4375 17 C-14.20934845 10.81252998 -11.07643188 7.82358846 -6.75 3.75 C-6.04875 2.904375 -5.3475 2.05875 -4.625 1.1875 C-2.75 -0.25 -2.75 -0.25 0 0 Z " fill="#6BEDCF" transform="translate(25.75,15.25)"/>
<path d="M0 0 C3.6875 0.625 3.6875 0.625 6.6875 2.625 C6.6875 3.285 6.6875 3.945 6.6875 4.625 C5.6975 4.79 4.7075 4.955 3.6875 5.125 C-0.92214088 6.36605716 -3.32145839 9.49038432 -6.3203125 13.04296875 C-8.3125 14.625 -8.3125 14.625 -11.0546875 14.36328125 C-11.79976562 14.11964844 -12.54484375 13.87601563 -13.3125 13.625 C-12.65042959 8.30046191 -10.36580939 5.85565609 -6.578125 2.23828125 C-4.16452319 0.51963031 -2.92655318 0.05961497 0 0 Z " fill="#FA7361" transform="translate(35.3125,20.375)"/>
<path d="M0 0 C0.74507812 0.24363281 1.49015625 0.48726562 2.2578125 0.73828125 C1.60220134 6.08619517 -0.73546773 8.50386412 -4.546875 12.1171875 C-6.7421875 13.73828125 -6.7421875 13.73828125 -10.4921875 14.48828125 C-14.13406597 13.64784776 -15.46795597 12.64929761 -17.7421875 9.73828125 C-16.7521875 9.57328125 -15.7621875 9.40828125 -14.7421875 9.23828125 C-10.13254662 7.99722409 -7.73322911 4.87289693 -4.734375 1.3203125 C-2.7421875 -0.26171875 -2.7421875 -0.26171875 0 0 Z " fill="#33C7AF" transform="translate(39.7421875,29.26171875)"/>
</svg>
