<?xml version="1.0" encoding="UTF-8"?>
<svg version="1.1" xmlns="http://www.w3.org/2000/svg" width="55" height="55">
<path d="M0 0 C1.39456452 0.00667256 2.78911118 0.01863093 4.18359375 0.03515625 C4.89451172 0.03966797 5.60542969 0.04417969 6.33789062 0.04882812 C8.09899388 0.06064761 9.86005411 0.07858362 11.62109375 0.09765625 C11.60046875 0.90203125 11.57984375 1.70640625 11.55859375 2.53515625 C11.32475754 5.0312051 11.32475754 5.0312051 12.62109375 6.09765625 C12.62109375 4.77765625 12.62109375 3.45765625 12.62109375 2.09765625 C18.17832788 -0.30547202 23.66450913 -0.33868641 29.62109375 0.09765625 C30.62109375 1.09765625 30.62109375 1.09765625 30.71875 3.6015625 C30.70714844 4.61089844 30.69554687 5.62023437 30.68359375 6.66015625 C30.67457031 7.67207031 30.66554687 8.68398438 30.65625 9.7265625 C30.64464844 10.50902344 30.63304687 11.29148437 30.62109375 12.09765625 C28.64109375 13.08765625 28.64109375 13.08765625 26.62109375 14.09765625 C26.62109375 14.75765625 26.62109375 15.41765625 26.62109375 16.09765625 C25.96109375 16.09765625 25.30109375 16.09765625 24.62109375 16.09765625 C24.95109375 17.08765625 25.28109375 18.07765625 25.62109375 19.09765625 C26.28109375 19.09765625 26.94109375 19.09765625 27.62109375 19.09765625 C27.62109375 17.77765625 27.62109375 16.45765625 27.62109375 15.09765625 C28.61109375 15.09765625 29.60109375 15.09765625 30.62109375 15.09765625 C30.62109375 19.71765625 30.62109375 24.33765625 30.62109375 29.09765625 C29.63109375 29.09765625 28.64109375 29.09765625 27.62109375 29.09765625 C27.62109375 28.10765625 27.62109375 27.11765625 27.62109375 26.09765625 C26.83734375 26.09765625 26.05359375 26.09765625 25.24609375 26.09765625 C23.70442708 26.09765625 22.16276042 26.09765625 20.62109375 26.09765625 C20.84796875 26.65453125 21.07484375 27.21140625 21.30859375 27.78515625 C21.62109375 30.09765625 21.62109375 30.09765625 20.68359375 32.84765625 C18.62109375 35.09765625 18.62109375 35.09765625 16.63671875 35.4140625 C14.6287418 35.41050226 12.62236223 35.26169465 10.62109375 35.09765625 C10.62109375 34.10765625 10.62109375 33.11765625 10.62109375 32.09765625 C12.27109375 32.09765625 13.92109375 32.09765625 15.62109375 32.09765625 C15.62109375 31.10765625 15.62109375 30.11765625 15.62109375 29.09765625 C13.31109375 29.09765625 11.00109375 29.09765625 8.62109375 29.09765625 C8.64171875 29.90203125 8.66234375 30.70640625 8.68359375 31.53515625 C8.62109375 34.09765625 8.62109375 34.09765625 7.62109375 35.09765625 C5.78993492 35.19616796 3.95489442 35.22738254 2.12109375 35.22265625 C1.12078125 35.22523437 0.12046875 35.2278125 -0.91015625 35.23046875 C-3.37890625 35.09765625 -3.37890625 35.09765625 -4.37890625 34.09765625 C-4.47973389 31.66105179 -4.51863228 29.25340924 -4.51171875 26.81640625 C-4.51267548 26.08772339 -4.5136322 25.35904053 -4.51461792 24.60827637 C-4.5152996 23.06485915 -4.51344613 21.52143908 -4.50927734 19.97802734 C-4.50392887 17.60768225 -4.50922267 15.23752666 -4.515625 12.8671875 C-4.51496422 11.37109333 -4.51368305 9.87499928 -4.51171875 8.37890625 C-4.51374298 7.66536987 -4.51576721 6.9518335 -4.51785278 6.2166748 C-4.48866574 0.12973022 -4.48866574 0.12973022 0 0 Z M-1.37890625 3.09765625 C-1.37890625 5.07765625 -1.37890625 7.05765625 -1.37890625 9.09765625 C-1.04890625 9.09765625 -0.71890625 9.09765625 -0.37890625 9.09765625 C-0.37890625 7.44765625 -0.37890625 5.79765625 -0.37890625 4.09765625 C1.27109375 4.09765625 2.92109375 4.09765625 4.62109375 4.09765625 C4.62109375 3.76765625 4.62109375 3.43765625 4.62109375 3.09765625 C2.64109375 3.09765625 0.66109375 3.09765625 -1.37890625 3.09765625 Z M21.62109375 3.09765625 C21.62109375 3.42765625 21.62109375 3.75765625 21.62109375 4.09765625 C23.27109375 4.09765625 24.92109375 4.09765625 26.62109375 4.09765625 C26.62109375 5.74765625 26.62109375 7.39765625 26.62109375 9.09765625 C26.95109375 9.09765625 27.28109375 9.09765625 27.62109375 9.09765625 C27.62109375 7.11765625 27.62109375 5.13765625 27.62109375 3.09765625 C25.64109375 3.09765625 23.66109375 3.09765625 21.62109375 3.09765625 Z M15.62109375 5.09765625 C15.95109375 6.74765625 16.28109375 8.39765625 16.62109375 10.09765625 C16.95109375 10.09765625 17.28109375 10.09765625 17.62109375 10.09765625 C17.62109375 8.44765625 17.62109375 6.79765625 17.62109375 5.09765625 C16.96109375 5.09765625 16.30109375 5.09765625 15.62109375 5.09765625 Z M8.62109375 8.09765625 C8.29109375 9.41765625 7.96109375 10.73765625 7.62109375 12.09765625 C3.16609375 12.59265625 3.16609375 12.59265625 -1.37890625 13.09765625 C-1.37890625 13.75765625 -1.37890625 14.41765625 -1.37890625 15.09765625 C-0.05890625 15.09765625 1.26109375 15.09765625 2.62109375 15.09765625 C2.62109375 16.08765625 2.62109375 17.07765625 2.62109375 18.09765625 C1.30109375 18.09765625 -0.01890625 18.09765625 -1.37890625 18.09765625 C-1.37890625 19.41765625 -1.37890625 20.73765625 -1.37890625 22.09765625 C-0.38890625 22.09765625 0.60109375 22.09765625 1.62109375 22.09765625 C1.62109375 21.10765625 1.62109375 20.11765625 1.62109375 19.09765625 C2.61109375 19.09765625 3.60109375 19.09765625 4.62109375 19.09765625 C4.95109375 18.10765625 5.28109375 17.11765625 5.62109375 16.09765625 C7.27109375 15.76765625 8.92109375 15.43765625 10.62109375 15.09765625 C10.95109375 13.11765625 11.28109375 11.13765625 11.62109375 9.09765625 C10.63109375 8.76765625 9.64109375 8.43765625 8.62109375 8.09765625 Z M13.62109375 13.09765625 C13.62109375 13.75765625 13.62109375 14.41765625 13.62109375 15.09765625 C14.61109375 14.76765625 15.60109375 14.43765625 16.62109375 14.09765625 C15.63109375 13.76765625 14.64109375 13.43765625 13.62109375 13.09765625 Z M18.62109375 13.09765625 C18.95109375 14.74765625 19.28109375 16.39765625 19.62109375 18.09765625 C19.10546875 17.91203125 18.58984375 17.72640625 18.05859375 17.53515625 C14.76200636 16.94346108 11.8986364 17.53038925 8.62109375 18.09765625 C9.61109375 18.42765625 10.60109375 18.75765625 11.62109375 19.09765625 C11.62109375 20.08765625 11.62109375 21.07765625 11.62109375 22.09765625 C10.30109375 22.42765625 8.98109375 22.75765625 7.62109375 23.09765625 C8.28109375 23.75765625 8.94109375 24.41765625 9.62109375 25.09765625 C12.89882879 24.34615602 12.89882879 24.34615602 14.62109375 21.09765625 C15.28109375 21.75765625 15.94109375 22.41765625 16.62109375 23.09765625 C16.95109375 21.77765625 17.28109375 20.45765625 17.62109375 19.09765625 C18.94109375 19.09765625 20.26109375 19.09765625 21.62109375 19.09765625 C21.95109375 17.11765625 22.28109375 15.13765625 22.62109375 13.09765625 C21.30109375 13.09765625 19.98109375 13.09765625 18.62109375 13.09765625 Z M15.62109375 25.09765625 C15.62109375 26.08765625 15.62109375 27.07765625 15.62109375 28.09765625 C16.61109375 27.76765625 17.60109375 27.43765625 18.62109375 27.09765625 C18.29109375 26.43765625 17.96109375 25.77765625 17.62109375 25.09765625 C16.96109375 25.09765625 16.30109375 25.09765625 15.62109375 25.09765625 Z M-1.37890625 26.09765625 C-1.37890625 28.07765625 -1.37890625 30.05765625 -1.37890625 32.09765625 C0.60109375 32.09765625 2.58109375 32.09765625 4.62109375 32.09765625 C4.62109375 31.76765625 4.62109375 31.43765625 4.62109375 31.09765625 C2.97109375 31.09765625 1.32109375 31.09765625 -0.37890625 31.09765625 C-0.37890625 29.44765625 -0.37890625 27.79765625 -0.37890625 26.09765625 C-0.70890625 26.09765625 -1.03890625 26.09765625 -1.37890625 26.09765625 Z " fill="#000000" transform="translate(14.37890625,9.90234375)"/>
<path d="M0 0 C0.99 0 1.98 0 3 0 C3 4.62 3 9.24 3 14 C-1.62 14 -6.24 14 -11 14 C-11 13.01 -11 12.02 -11 11 C-7.37 11 -3.74 11 0 11 C0 7.37 0 3.74 0 0 Z " fill="#000000" transform="translate(47,36)"/>
<path d="M0 0 C0.99 0 1.98 0 3 0 C3 3.63 3 7.26 3 11 C6.63 11 10.26 11 14 11 C14 11.99 14 12.98 14 14 C9.38 14 4.76 14 0 14 C0 9.38 0 4.76 0 0 Z " fill="#000000" transform="translate(5,36)"/>
<path d="M0 0 C4.62 0 9.24 0 14 0 C14 4.62 14 9.24 14 14 C13.01 14 12.02 14 11 14 C11 10.37 11 6.74 11 3 C7.37 3 3.74 3 0 3 C0 2.01 0 1.02 0 0 Z " fill="#000000" transform="translate(36,5)"/>
<path d="M0 0 C4.62 0 9.24 0 14 0 C14 0.99 14 1.98 14 3 C10.37 3 6.74 3 3 3 C3 6.63 3 10.26 3 14 C2.01 14 1.02 14 0 14 C0 9.38 0 4.76 0 0 Z " fill="#000000" transform="translate(5,5)"/>
<path d="M0 0 C0.99 0 1.98 0 3 0 C3 1.32 3 2.64 3 4 C4.32 4 5.64 4 7 4 C6.67 4.99 6.34 5.98 6 7 C3.69 7 1.38 7 -1 7 C-1.33 6.01 -1.66 5.02 -2 4 C-1.34 4 -0.68 4 0 4 C0 2.68 0 1.36 0 0 Z " fill="#000000" transform="translate(38,38)"/>
</svg>
