<?xml version="1.0" encoding="UTF-8"?>
<svg version="1.1" xmlns="http://www.w3.org/2000/svg" width="33" height="33">
<path d="M0 0 C3.24822366 -0.13014586 4.69210893 -0.18022892 7.5625 1.5 C11.32028347 5.35413689 13.62398611 9.52905156 14.4375 14.875 C14 17 14 17 11 19 C8.95703125 19.1953125 8.95703125 19.1953125 6.8125 19.125 C5.554375 19.08375 4.29625 19.0425 3 19 C3.495 19.721875 3.99 20.44375 4.5 21.1875 C6.07919285 24.14848659 6.28178312 25.71253029 6 29 C3.75 29.3125 3.75 29.3125 1 29 C-3 24.89189189 -3 24.89189189 -3 22 C-3.763125 22.103125 -4.52625 22.20625 -5.3125 22.3125 C-8 22 -8 22 -9.9375 19.75 C-11 17 -11 17 -10.4375 14.9375 C-9 13 -9 13 -7.1875 11.3125 C-4.02861744 7.97310986 -2.11453123 4.05574024 0 0 Z M1 2 C1.33 3.65 1.66 5.3 2 7 C3.65 6.67 5.3 6.34 7 6 C5.70532323 3.94009522 5.70532323 3.94009522 4 2 C3.01 2 2.02 2 1 2 Z M-2 8 C-2.68493373 10.85778033 -2.68493373 10.85778033 -3 14 C-2.01 15.485 -2.01 15.485 -1 17 C2.58357241 17.25015873 2.58357241 17.25015873 6 17 C5.34 16.67 4.68 16.34 4 16 C3 14.1875 3 14.1875 2 12 C1.443125 10.88625 1.443125 10.88625 0.875 9.75 C0.58625 9.1725 0.2975 8.595 0 8 C-0.66 8 -1.32 8 -2 8 Z M5 8 C4.01 8.495 4.01 8.495 3 9 C3.66 10.32 4.32 11.64 5 13 C5.66 11.68 6.32 10.36 7 9 C6.34 8.67 5.68 8.34 5 8 Z M9 9 C8.67 9.99 8.34 10.98 8 12 C7.34 12.66 6.68 13.32 6 14 C6.66 14.66 7.32 15.32 8 16 C10.10820797 15.6814823 10.10820797 15.6814823 12 15 C11.34 13.02 10.68 11.04 10 9 C9.67 9 9.34 9 9 9 Z M-6 14 C-6.66 14.66 -7.32 15.32 -8 16 C-7.6814823 18.10820797 -7.6814823 18.10820797 -7 20 C-5.68 19.67 -4.36 19.34 -3 19 C-3.66 17.35 -4.32 15.7 -5 14 C-5.33 14 -5.66 14 -6 14 Z M-2 20 C0.475 23.465 0.475 23.465 3 27 C3 23.47967572 2.29648649 22.5614657 0 20 C-0.66 20 -1.32 20 -2 20 Z " fill="#000000" transform="translate(11,4)"/>
<path d="M0 0 C0.66 0.66 1.32 1.32 2 2 C-1.625 5 -1.625 5 -5 5 C-5 4.34 -5 3.68 -5 3 C-2.5 1.375 -2.5 1.375 0 0 Z " fill="#000000" transform="translate(29,4)"/>
<path d="M0 0 C0.99 0 1.98 0 3 0 C2.67 2.31 2.34 4.62 2 7 C1.34 6.67 0.68 6.34 0 6 C0 4.02 0 2.04 0 0 Z " fill="#000000" transform="translate(21,0)"/>
<path d="M0 0 C2.31 0.66 4.62 1.32 7 2 C6.34 2.66 5.68 3.32 5 4 C3.02 3.34 1.04 2.68 -1 2 C-0.67 1.34 -0.34 0.68 0 0 Z " fill="#000000" transform="translate(26,11)"/>
</svg>
