<?xml version="1.0" encoding="UTF-8"?>
<svg version="1.1" xmlns="http://www.w3.org/2000/svg" width="299" height="275">
<path d="M0 0 C1.55761437 -0.00649579 3.11521984 -0.01555866 4.67280579 -0.0269928 C8.90076396 -0.05007251 13.12781921 -0.03535124 17.35574841 -0.01252341 C21.78909388 0.00641444 26.22237953 -0.00477043 30.65574646 -0.01142883 C38.10820813 -0.01777102 45.56030931 0.00049899 53.01269531 0.03320312 C61.60547686 0.07060218 70.19757229 0.06896171 78.7903896 0.04616195 C87.074461 0.02513481 95.35828104 0.03253747 103.64234734 0.0524807 C107.15764566 0.06042842 110.67272916 0.05852112 114.18802071 0.04845619 C118.34073362 0.03782435 122.49265797 0.05226021 126.64524651 0.08519936 C128.16083002 0.09333847 129.67648667 0.0932037 131.19206238 0.08372116 C144.00366718 0.01243152 155.41897413 2.68033451 164.93530273 11.76049805 C173.86779111 21.38262707 177.63375118 29.55905744 177.43530273 42.69799805 C177.45850586 44.2284375 177.45850586 44.2284375 177.48217773 45.78979492 C177.43965385 54.1191604 175.56819493 60.81115975 170.93530273 67.76049805 C170.27530273 67.76049805 169.61530273 67.76049805 168.93530273 67.76049805 C168.59499023 68.84331055 168.59499023 68.84331055 168.24780273 69.94799805 C165.55496071 75.71837382 160.91304434 78.64321134 155.37280273 81.44799805 C154.25776367 82.02936523 153.14272461 82.61073242 151.99389648 83.2097168 C142.69653155 87.20490952 132.22835503 87.0423526 122.29467773 86.95581055 C120.42238495 86.9515657 120.42238495 86.9515657 118.51226807 86.94723511 C114.56984405 86.93614127 110.62765677 86.91105704 106.68530273 86.88549805 C103.99390227 86.87431124 101.30249546 86.86619322 98.61108398 86.8581543 C92.05241101 86.83623739 85.49387379 86.80286906 78.93530273 86.76049805 C78.94640579 87.85186569 78.95750885 88.94323334 78.96894836 90.06767273 C79.07030526 100.35260785 79.14525903 110.63744164 79.19436359 120.92276287 C79.22045762 126.21060183 79.25585254 131.49803762 79.3125 136.78564453 C79.36682609 141.88850174 79.39672474 146.99097116 79.40968895 152.09409523 C79.41892772 154.04099444 79.43696907 155.98787242 79.46395302 157.93460655 C79.50025149 160.66178625 79.50524779 163.3873637 79.50292969 166.11474609 C79.52090607 166.9196347 79.53888245 167.72452332 79.55740356 168.55380249 C79.51960494 172.66355168 79.13309388 174.51366701 76.5287323 177.76374817 C73.26499318 180.27658707 71.80878478 180.38091088 67.86889648 180.12768555 C65.07824873 179.59774436 63.15187382 178.50688739 60.93530273 176.76049805 C59.78981797 174.46952852 59.80492854 173.18351347 59.79486084 170.6366272 C59.7891507 169.77300064 59.78344055 168.90937408 59.77755737 168.01957703 C59.77588058 166.59510002 59.77588058 166.59510002 59.77416992 165.1418457 C59.76672256 163.64411873 59.76672256 163.64411873 59.75912476 162.11613464 C59.74448054 158.80226969 59.73769756 155.48845259 59.73217773 152.17456055 C59.72642839 149.87771604 59.72067063 147.58087156 59.71490479 145.2840271 C59.70438853 140.4636818 59.69854987 135.64335321 59.69506836 130.82299805 C59.68958067 124.63990118 59.66554925 118.4570242 59.63709641 112.27399635 C59.61849304 107.52828318 59.61326566 102.78262324 59.61173248 98.03687668 C59.6087005 95.75706148 59.60065371 93.47724734 59.5875473 91.1974678 C59.57053423 88.01078706 59.57235554 84.82464691 59.57885742 81.63793945 C59.56964264 80.69233658 59.56042786 79.7467337 59.55093384 78.7724762 C59.59143372 72.45101573 59.59143372 72.45101573 61.20758057 69.20565796 C64.94416678 66.08017592 69.17139559 66.62279507 73.87182617 66.58691406 C74.56181702 66.58022705 75.25180786 66.57354004 75.96270752 66.56665039 C77.45772306 66.55262969 78.95275963 66.54072622 80.44780731 66.53070259 C82.81955061 66.51423156 85.19113933 66.49098951 87.56280518 66.46580505 C94.30505602 66.39521131 101.04737077 66.33506903 107.78979492 66.28369141 C111.9182822 66.25175739 116.0465919 66.2104442 120.17493439 66.16349602 C121.74246249 66.14755993 123.31003143 66.1352 124.87761688 66.12658882 C136.06099464 66.11339863 136.06099464 66.11339863 146.93530273 63.76049805 C146.93530273 63.10049805 146.93530273 62.44049805 146.93530273 61.76049805 C151.40589097 57.76049805 151.40589097 57.76049805 153.93530273 57.76049805 C157.05055031 50.0762207 158.50727353 42.49145443 156.25170898 34.26831055 C154.07719903 29.48619321 151.39179811 27.39388168 146.93530273 24.76049805 C146.93530273 24.10049805 146.93530273 23.44049805 146.93530273 22.76049805 C139.36166721 20.33564444 131.95056604 20.4739445 124.06152344 20.48925781 C122.56108316 20.48486514 121.06064532 20.47956102 119.56021118 20.47341919 C116.34256311 20.46196374 113.12498051 20.45646309 109.90731239 20.4555378 C104.81829004 20.45359014 99.72940254 20.43550104 94.64042664 20.41477966 C82.00609033 20.36569607 69.37171775 20.33468194 56.73730469 20.31347656 C46.9056131 20.29695455 37.0740381 20.2741628 27.24242467 20.23045582 C22.18420298 20.208683 17.12620282 20.2006211 12.06793749 20.20284855 C8.92319767 20.20118204 5.77860275 20.18713597 2.63391495 20.16963577 C1.17665472 20.16403662 -0.28063555 20.16355074 -1.73789787 20.16857338 C-3.72819896 20.17471401 -5.71853175 20.16073717 -7.70878601 20.14576721 C-9.37869866 20.14275022 -9.37869866 20.14275022 -11.08234692 20.13967228 C-14.45587668 19.71076373 -16.3455675 18.7709356 -19.06469727 16.76049805 C-20.65504845 13.57979567 -20.85407174 10.17719354 -20.06469727 6.76049805 C-15.82478895 -1.4841047 -8.19606634 -0.08023058 0 0 Z " fill="#449BFF" transform="translate(65.064697265625,70.239501953125)"/>
<path d="M0 0 C0.86406464 -0.0087616 1.72812927 -0.01752319 2.61837769 -0.02655029 C5.47941163 -0.04857738 8.33890097 -0.03396592 11.19995117 -0.01708984 C13.19854528 -0.0204604 15.19713738 -0.02531502 17.19572449 -0.03158569 C21.39321325 -0.0389643 25.59017066 -0.02823208 29.78759766 -0.00488281 C35.12914286 0.02340285 40.46942067 0.00733646 45.81091785 -0.02274513 C49.94552338 -0.04096529 54.07983758 -0.03498981 58.21445274 -0.02210617 C60.18093711 -0.01880202 62.14744911 -0.0227522 64.11390114 -0.03450394 C79.3860824 -0.10565652 92.44735405 1.67433431 105.55541992 10.20947266 C106.1612793 10.58265625 106.76713867 10.95583984 107.39135742 11.34033203 C110.92867921 13.55115815 114.31619121 15.86767043 117.43041992 18.64697266 C117.43041992 19.30697266 117.43041992 19.96697266 117.43041992 20.64697266 C118.01307617 20.88802734 118.59573242 21.12908203 119.19604492 21.37744141 C123.69790443 23.93531613 126.42125695 28.53463197 129.43041992 32.64697266 C130.13038086 33.58669922 130.8303418 34.52642578 131.55151367 35.49462891 C143.1547805 52.49374383 144.89999601 74.06442425 141.64916992 93.98681641 C138.13125802 111.76498586 127.87056753 127.65837252 113.43041992 138.64697266 C109.18513737 141.47361886 104.8419813 144.08938391 100.43041992 146.64697266 C99.39788086 147.28505859 99.39788086 147.28505859 98.34448242 147.93603516 C87.08684227 154.37599524 73.05150753 154.0629151 60.49291992 153.83447266 C59.01962662 153.81936779 57.54631799 153.80568984 56.07299805 153.79345703 C52.52514372 153.76098128 48.97788685 153.70953538 45.43041992 153.64697266 C45.43708176 154.31238571 45.44374359 154.97779877 45.4506073 155.66337585 C45.51698671 162.59006925 45.56223155 169.51667225 45.59521484 176.44360352 C45.61029954 179.02860179 45.63076994 181.61357448 45.65673828 184.19848633 C45.69313434 187.91445226 45.71014977 191.63007973 45.72338867 195.34619141 C45.73887253 196.50156906 45.75435638 197.65694672 45.77030945 198.84733582 C45.77053604 199.92807877 45.77076263 201.00882172 45.77099609 202.12231445 C45.77765793 203.07051559 45.78431976 204.01871674 45.79118347 204.99565125 C45.35471747 208.20332468 44.36768791 210.06907583 42.43041992 212.64697266 C39.71149429 213.5532812 37.81698005 213.86898844 34.99291992 213.95947266 C34.23108398 213.99685547 33.46924805 214.03423828 32.68432617 214.07275391 C29.44987958 213.4617406 28.43903132 212.23507738 26.43041992 209.64697266 C26.05578463 207.05475881 25.92218399 204.89387463 25.97631836 202.30810547 C25.97573425 201.57600357 25.97515015 200.84390167 25.97454834 200.08961487 C25.9773294 197.6759558 26.00842032 195.26354027 26.03979492 192.85009766 C26.04725728 191.17430292 26.05295024 189.49849945 26.0569458 187.82269287 C26.07220263 183.41660376 26.11148452 179.01104389 26.15576172 174.60516357 C26.19671357 170.10745401 26.21495661 165.60965875 26.23510742 161.11181641 C26.277979 152.28996957 26.34623069 143.46851516 26.43041992 134.64697266 C26.97562286 134.64110641 27.52082581 134.63524017 28.08255005 134.62919617 C33.82691847 134.56458686 39.57076102 134.48000669 45.31469727 134.38452148 C47.45004279 134.3515438 49.58546981 134.32343017 51.72094727 134.30053711 C73.35185271 134.06244518 90.81033197 132.05899254 107.43041992 116.64697266 C109.31223912 113.90805355 109.31223912 113.90805355 110.43041992 111.64697266 C111.09041992 111.64697266 111.75041992 111.64697266 112.43041992 111.64697266 C112.69854492 110.92509766 112.96666992 110.20322266 113.24291992 109.45947266 C114.43041992 106.64697266 114.43041992 106.64697266 115.87182617 104.37353516 C117.58781253 101.37163422 118.56517823 98.519375 119.55541992 95.20947266 C120.05428711 93.57171875 120.05428711 93.57171875 120.56323242 91.90087891 C123.55532223 80.6738032 122.96841717 70.62811504 119.43041992 59.64697266 C119.26026367 58.92251953 119.09010742 58.19806641 118.91479492 57.45166016 C115.72164069 45.08959165 106.1410103 34.96460484 95.43041992 28.64697266 C94.45975586 28.07205078 93.4890918 27.49712891 92.48901367 26.90478516 C80.89690847 20.58731452 68.95523364 20.35730926 56.05439949 20.34201241 C53.53574258 20.33829804 51.01746194 20.32144206 48.49888611 20.30125427 C41.34812395 20.24627959 34.19731221 20.2150447 27.04638672 20.19067383 C22.64930267 20.1747961 18.25249776 20.14459712 13.8555584 20.10590935 C12.18786007 20.09428482 10.52011196 20.08832922 8.85237312 20.08822823 C6.5266096 20.08803602 4.20161973 20.06976615 1.87597656 20.04760742 C1.19279861 20.0521846 0.50962067 20.05676178 -0.19425964 20.06147766 C-4.47880519 19.996628 -7.13577356 19.21717259 -10.56958008 16.64697266 C-13.13528597 13.22603147 -13.00666062 9.79923782 -12.56958008 5.64697266 C-9.46461767 0.04946168 -5.92604003 -0.07377681 0 0 Z " fill="#449AFF" transform="translate(134.569580078125,36.35302734375)"/>
<path d="M0 0 C1.07109009 -0.0071553 2.14218018 -0.01431061 3.24572754 -0.02168274 C4.42600525 -0.02437164 5.60628296 -0.02706055 6.82232666 -0.02983093 C8.68099365 -0.03968773 8.68099365 -0.03968773 10.57720947 -0.04974365 C14.69309731 -0.06951476 18.80894613 -0.08114778 22.92486572 -0.09111023 C24.341881 -0.0951577 25.75889608 -0.09927462 27.17591095 -0.10346031 C33.83409446 -0.12251494 40.49226687 -0.13674453 47.1504724 -0.14507228 C54.83435125 -0.1548416 62.51794178 -0.18115167 70.20171905 -0.22157317 C76.14150923 -0.25174683 82.08121683 -0.26654239 88.02108216 -0.26985329 C91.56823909 -0.27220271 95.11508812 -0.28114807 98.66216278 -0.30631447 C102.62189426 -0.33395408 106.58124749 -0.32976017 110.54107666 -0.32279968 C111.71325745 -0.33560974 112.88543823 -0.3484198 114.09313965 -0.36161804 C120.30562889 -0.32176253 124.27871608 -0.15332014 128.94049072 4.14717102 C130.23347053 7.13384752 130.29146604 9.92510255 129.94049072 13.14717102 C127.84696616 16.79145452 125.78487448 18.5827382 121.94049072 20.14717102 C119.51288795 20.3988533 119.51288795 20.3988533 116.75436401 20.40113831 C115.70576706 20.40677795 114.6571701 20.4124176 113.57679749 20.41822815 C112.43176254 20.41417969 111.2867276 20.41013123 110.10699463 20.40596008 C108.29178062 20.41121704 108.29178062 20.41121704 106.43989563 20.4165802 C103.12363185 20.42387483 99.80761762 20.42216384 96.49136782 20.41582203 C93.01748605 20.41075433 89.54361486 20.41545584 86.06973267 20.41859436 C80.23398935 20.42223273 74.39829666 20.41743932 68.56256104 20.40791321 C61.82336188 20.39703908 55.08428384 20.40054714 48.34508765 20.41156602 C42.55386783 20.42065476 36.76268439 20.42191611 30.97145975 20.41668868 C27.51498645 20.41357638 24.05856998 20.41313903 20.60210037 20.41976166 C16.74561137 20.42663445 12.8892569 20.41709641 9.03277588 20.40596008 C7.32129616 20.41203278 7.32129616 20.41203278 5.57524109 20.41822815 C-4.36017373 20.36507856 -4.36017373 20.36507856 -9.05950928 18.14717102 C-11.536514 14.76813568 -11.46777493 11.33263074 -11.38763428 7.27217102 C-11.05950928 5.14717102 -11.05950928 5.14717102 -9.18450928 2.64717102 C-5.86566106 0.30445463 -4.03085904 0.01843752 0 0 Z " fill="#449AFF" transform="translate(80.05950927734375,103.85282897949219)"/>
<path d="M0 0 C1.03705078 -0.020625 2.07410156 -0.04125 3.14257812 -0.0625 C12.73727614 -0.11179838 12.73727614 -0.11179838 16.5625 3.25 C19.0540904 6.9873856 19.02043285 8.82331583 18.5625 13.25 C16.13428425 17.29702625 14.01999376 18.89779384 9.5625 20.25 C6.59970174 20.55677376 3.66415486 20.57471944 0.6875 20.5625 C-0.08980469 20.57861328 -0.86710937 20.59472656 -1.66796875 20.61132812 C-7.70930282 20.61640488 -12.73485707 19.69109684 -17.375 15.5 C-18.91504625 12.23872559 -18.81264231 9.81385197 -18.4375 6.25 C-17.1875 3.375 -17.1875 3.375 -15.4375 1.25 C-10.52711261 -0.45924818 -5.13042916 0.02541389 0 0 Z " fill="#449BFF" transform="translate(99.4375,136.75)"/>
<path d="M0 0 C2.0625 1.5 2.0625 1.5 3 4 C3.65698346 8.50623269 3.51071608 11.9119527 1.5625 16.0625 C-1.69413418 18.52483316 -3.80080475 18.67035471 -7.80859375 18.40625 C-11.30831838 17.75745969 -12.8054124 16.81181536 -15 14 C-15.96509321 10.93911267 -16.30213722 8.19809393 -16 5 C-12.07564899 -1.72745887 -6.9742252 -1.623423 0 0 Z " fill="#449AFF" transform="translate(69,138)"/>
<path d="M0 0 C8.5397165 -0.89542658 8.5397165 -0.89542658 11.77734375 1.08984375 C14.20643967 3.74424712 15.01029427 6.05867736 15.625 9.5625 C14.84686049 13.84226729 13.29670019 15.26615106 10 18 C9.67 18.33 9.34 18.66 9 19 C4.01448365 19.38350126 1.01220165 19.0681542 -3 16 C-4.16983345 13.6603331 -4.1661241 12.16608473 -4.1875 9.5625 C-4.20167969 8.78003906 -4.21585938 7.99757813 -4.23046875 7.19140625 C-4 5 -4 5 -2 2 C-1.34 2 -0.68 2 0 2 C0 1.34 0 0.68 0 0 Z " fill="#449BFF" transform="translate(20,71)"/>
</svg>
