<?xml version="1.0" encoding="UTF-8"?>
<svg version="1.1" xmlns="http://www.w3.org/2000/svg" width="60" height="47">
<path d="M0 0 C0.33 0.99 0.66 1.98 1 3 C0.67 3.66 0.34 4.32 0 5 C1.32 4.67 2.64 4.34 4 4 C5.00926479 8.15626368 5.10239579 12.04365094 5.0625 16.3125 C5.05347656 17.56675781 5.04445313 18.82101563 5.03515625 20.11328125 C5.02355469 21.06589844 5.01195312 22.01851562 5 23 C3.80375 22.814375 2.6075 22.62875 1.375 22.4375 C-2.28283707 21.9688803 -5.37862166 22.18518987 -9 23 C-9.97623048 19.46116453 -10.15112804 16.77243222 -9.4375 13.125 C-9.00675853 10.04827522 -9.21234837 7.97557282 -10 5 C-3.87096774 0 -3.87096774 0 0 0 Z M-3 13 C-2.67 13.66 -2.34 14.32 -2 15 C-1.67 14.34 -1.34 13.68 -1 13 C-1.66 13 -2.32 13 -3 13 Z " fill="#06559C" transform="translate(55,12)"/>
<path d="M0 0 C1.134375 0.020625 2.26875 0.04125 3.4375 0.0625 C3.4375 0.7225 3.4375 1.3825 3.4375 2.0625 C7.3975 2.0625 11.3575 2.0625 15.4375 2.0625 C15.4375 1.4025 15.4375 0.7425 15.4375 0.0625 C16.0975 0.0625 16.7575 0.0625 17.4375 0.0625 C17.4375 0.7225 17.4375 1.3825 17.4375 2.0625 C23.3775 2.0625 29.3175 2.0625 35.4375 2.0625 C35.4375 1.4025 35.4375 0.7425 35.4375 0.0625 C36.0975 0.0625 36.7575 0.0625 37.4375 0.0625 C37.4375 2.7025 37.4375 5.3425 37.4375 8.0625 C26.77083333 8.0625 16.10416667 8.0625 5.4375 8.0625 C5.4375 6.7425 5.4375 5.4225 5.4375 4.0625 C4.7775 4.0625 4.1175 4.0625 3.4375 4.0625 C3.4375 5.3825 3.4375 6.7025 3.4375 8.0625 C1.10455225 8.10491723 -1.22952567 8.10342937 -3.5625 8.0625 C-4.5625 7.0625 -4.5625 7.0625 -4.6875 4.0625 C-4.50687014 -0.27261656 -4.44520527 0.07798606 0 0 Z M-2.5625 2.0625 C-2.8925 2.7225 -3.2225 3.3825 -3.5625 4.0625 C-3.2325 4.7225 -2.9025 5.3825 -2.5625 6.0625 C-1.2425 5.4025 0.0775 4.7425 1.4375 4.0625 C0.1175 3.4025 -1.2025 2.7425 -2.5625 2.0625 Z M17.4375 4.0625 C18.4375 6.0625 18.4375 6.0625 18.4375 6.0625 Z M33.4375 4.0625 C33.4375 4.7225 33.4375 5.3825 33.4375 6.0625 C34.0975 6.0625 34.7575 6.0625 35.4375 6.0625 C35.4375 5.4025 35.4375 4.7425 35.4375 4.0625 C34.7775 4.0625 34.1175 4.0625 33.4375 4.0625 Z " fill="#0A9431" transform="translate(4.5625,24.9375)"/>
<path d="M0 0 C3.22957051 0.37264275 6.38678679 0.86539222 9.5625 1.5625 C12.41399505 2.0743068 15.10822386 2.06426169 18 2 C18.66 2 19.32 2 20 2 C20.8971875 1.7215625 20.8971875 1.7215625 21.8125 1.4375 C24 1 24 1 26.1875 1.5 C30.21835677 2.21659676 33.97273948 1.57030922 38 1 C38 3.31 38 5.62 38 8 C31 8 24 8 17 8 C17 6.68 17 5.36 17 4 C16.34 4 15.68 4 15 4 C15 5.32 15 6.64 15 8 C9.72 8 4.44 8 -1 8 C-1 1 -1 1 0 0 Z M7 4 C8 6 8 6 8 6 Z M20 4 C20 4.66 20 5.32 20 6 C20.66 6 21.32 6 22 6 C22 5.34 22 4.68 22 4 C21.34 4 20.68 4 20 4 Z M34 4 C34 4.66 34 5.32 34 6 C34.66 6 35.32 6 36 6 C36 5.34 36 4.68 36 4 C35.34 4 34.68 4 34 4 Z " fill="#0072A9" transform="translate(4,15)"/>
<path d="M0 0 C2.9375 0.375 2.9375 0.375 6 1 C6.33 1.66 6.66 2.32 7 3 C9.52733235 3.65555119 9.52733235 3.65555119 12 4 C12 4.99 12 5.98 12 7 C12.66 7 13.32 7 14 7 C14 8.65 14 10.3 14 12 C12.80375 11.814375 11.6075 11.62875 10.375 11.4375 C6.71716293 10.9688803 3.62137834 11.18518987 0 12 C-1.1898968 7.68662408 -0.94128806 4.35345729 0 0 Z " fill="#0C9635" transform="translate(46,23)"/>
<path d="M0 0 C0.33 0.99 0.66 1.98 1 3 C0.67 3.66 0.34 4.32 0 5 C1.32 4.67 2.64 4.34 4 4 C4.33 5.65 4.66 7.3 5 9 C4.01 9.33 3.02 9.66 2 10 C0.30712215 9.04504326 -1.35857037 8.0409066 -3 7 C-5.19130534 6.30420546 -5.19130534 6.30420546 -7 6 C-7 4.68 -7 3.36 -7 2 C-4.35261084 0.5393715 -3.10551666 0 0 0 Z " fill="#9DC8B1" transform="translate(55,12)"/>
<path d="M0 0 C2.9375 0.375 2.9375 0.375 6 1 C6.33 1.66 6.66 2.32 7 3 C9.52733235 3.65555119 9.52733235 3.65555119 12 4 C12 4.99 12 5.98 12 7 C12.66 7 13.32 7 14 7 C14 7.66 14 8.32 14 9 C3.63882619 5.81715576 3.63882619 5.81715576 0 3 C0 2.01 0 1.02 0 0 Z " fill="#4CB475" transform="translate(46,23)"/>
<path d="M0 0 C1.98440482 0.75724648 3.96243005 1.53122962 5.9375 2.3125 C7.03964844 2.74175781 8.14179687 3.17101562 9.27734375 3.61328125 C12 5 12 5 13 8 C2.98165138 4.98165138 2.98165138 4.98165138 0 2 C0 1.34 0 0.68 0 0 Z " fill="#0469A7" transform="translate(47,17)"/>
<path d="M0 0 C2.00720923 0.28674418 4.0085944 0.61866701 6 1 C6 1.99 6 2.98 6 4 C4.02 4.33 2.04 4.66 0 5 C-0.5625 3.0625 -0.5625 3.0625 -1 1 C-0.67 0.67 -0.34 0.34 0 0 Z " fill="#84BEDE" transform="translate(46,30)"/>
<path d="M0 0 C1.04449911 3.13349732 0.93423645 3.98968256 0 7 C-1.32 6.67 -2.64 6.34 -4 6 C-4 4.68 -4 3.36 -4 2 C-2.68 1.34 -1.36 0.68 0 0 Z " fill="#62A1D1" transform="translate(52,12)"/>
</svg>
