<?xml version="1.0" encoding="UTF-8"?>
<svg version="1.1" xmlns="http://www.w3.org/2000/svg" width="80" height="80">
<path d="M0 0 C0 0.99 0 1.98 0 3 C-0.5772583 2.83846436 -1.1545166 2.67692871 -1.74926758 2.51049805 C-5.37731067 1.6876064 -8.98082896 1.80871498 -12.6875 1.8125 C-13.49388916 1.81330566 -14.30027832 1.81411133 -15.13110352 1.81494141 C-21.94089982 1.8851384 -28.16484326 2.10989551 -34 6 C-34.36362818 8.20725073 -34.36362818 8.20725073 -34.1875 10.625 C-34.16042969 11.44226562 -34.13335937 12.25953125 -34.10546875 13.1015625 C-34.07066406 13.72804688 -34.03585938 14.35453125 -34 15 C-31.36 15 -28.72 15 -26 15 C-26 12.03 -26 9.06 -26 6 C-25.01 6 -24.02 6 -23 6 C-22.94604522 7.62463842 -22.90722805 9.24978541 -22.875 10.875 C-22.85179688 11.77992187 -22.82859375 12.68484375 -22.8046875 13.6171875 C-23 16 -23 16 -25 18 C-27.625 18.625 -27.625 18.625 -30 19 C-19.0722203 21.70776842 -8.9277797 21.70776842 2 19 C-0.64 18.34 -3.28 17.68 -6 17 C-6 13.37 -6 9.74 -6 6 C-5.34 6 -4.68 6 -4 6 C-4 8.97 -4 11.94 -4 15 C-0.7 15 2.6 15 6 15 C6.495 16.98 6.495 16.98 7 19 C-4.86955491 25.58615547 -20.57352902 25.0770727 -33.4375 21.8125 C-38.05807483 20.22895863 -42.16974934 18.0976693 -45 14 C-45.25 10.375 -45.25 10.375 -44 7 C-34.09476353 -4.14339103 -13.17304883 -1.81697225 0 0 Z M-38 7 C-40.30075262 9.76745084 -40.30075262 9.76745084 -39.75 12.625 C-39.5025 13.40875 -39.255 14.1925 -39 15 C-38.34 15.33 -37.68 15.66 -37 16 C-37 13.03 -37 10.06 -37 7 C-37.33 7 -37.66 7 -38 7 Z " fill="#25385F" transform="translate(59,25)"/>
<path d="M0 0 C5.43248928 0.69199433 10.79939169 0.71744388 16.26953125 0.6953125 C17.73229492 0.70111328 17.73229492 0.70111328 19.22460938 0.70703125 C20.63323242 0.70509766 20.63323242 0.70509766 22.0703125 0.703125 C22.91376221 0.70199707 23.75721191 0.70086914 24.6262207 0.69970703 C26.87615741 0.5748022 28.78312002 0.12885443 30.95703125 -0.4296875 C33.29004058 -0.46857099 35.62412926 -0.474551 37.95703125 -0.4296875 C37.62703125 1.2203125 37.29703125 2.8703125 36.95703125 4.5703125 C21.95703125 4.5703125 6.95703125 4.5703125 -8.04296875 4.5703125 C-8.04296875 3.2503125 -8.04296875 1.9303125 -8.04296875 0.5703125 C-5.13147525 -0.30756971 -2.99741343 -0.45075472 0 0 Z " fill="#354669" transform="translate(25.04296875,50.4296875)"/>
<path d="M0 0 C0.66 0 1.32 0 2 0 C2 2.97 2 5.94 2 9 C5.3 9 8.6 9 12 9 C12.495 10.98 12.495 10.98 13 13 C1.28368158 19.5011279 -14.14021239 19.04845866 -26.875 15.9375 C-27.90625 15.628125 -28.9375 15.31875 -30 15 C-29.67 13.68 -29.34 12.36 -29 11 C-25.7 11 -22.4 11 -19 11 C-19 11.33 -19 11.66 -19 12 C-20.65 12.33 -22.3 12.66 -24 13 C-13.0722203 15.70776842 -2.9277797 15.70776842 8 13 C5.36 12.34 2.72 11.68 0 11 C0 7.37 0 3.74 0 0 Z " fill="#4E5C7E" transform="translate(53,31)"/>
<path d="M0 0 C1.93875 -0.020625 3.8775 -0.04125 5.875 -0.0625 C6.96554688 -0.07410156 8.05609375 -0.08570312 9.1796875 -0.09765625 C12 0 12 0 14 1 C14.02688151 2.64574566 14.04634123 4.29161413 14.0625 5.9375 C14.07410156 6.85402344 14.08570313 7.77054688 14.09765625 8.71484375 C14 11 14 11 13 12 C10.81360547 12.07258946 8.62499611 12.08373783 6.4375 12.0625 C4.64119141 12.04896484 4.64119141 12.04896484 2.80859375 12.03515625 C1.88175781 12.02355469 0.95492187 12.01195312 0 12 C0 8.04 0 4.08 0 0 Z M3 3 C3 3.66 3 4.32 3 5 C5.64 5 8.28 5 11 5 C11 4.34 11 3.68 11 3 C8.36 3 5.72 3 3 3 Z M3 7 C3 7.66 3 8.32 3 9 C5.64 9 8.28 9 11 9 C11 8.34 11 7.68 11 7 C8.36 7 5.72 7 3 7 Z " fill="#2D3E65" transform="translate(37,31)"/>
<path d="M0 0 C0 0.99 0 1.98 0 3 C-0.5772583 2.83846436 -1.1545166 2.67692871 -1.74926758 2.51049805 C-5.37740937 1.68758401 -8.98075533 1.80909411 -12.6875 1.8125 C-13.49533936 1.81258057 -14.30317871 1.81266113 -15.13549805 1.81274414 C-20.70893133 1.866178 -25.62270989 2.45061133 -31 4 C-32.66534667 4.33986667 -34.33129513 4.67702486 -36 5 C-36 4.01 -36 3.02 -36 2 C-24.43093375 -2.23258521 -12.06539475 -1.66419238 0 0 Z " fill="#2E4065" transform="translate(59,25)"/>
<path d="M0 0 C0.99 0 1.98 0 3 0 C3.02688151 1.64574566 3.04634123 3.29161413 3.0625 4.9375 C3.07410156 5.85402344 3.08570313 6.77054688 3.09765625 7.71484375 C3 10 3 10 2 11 C-0.01594582 11.23427778 -2.038474 11.41336124 -4.0625 11.5625 C-5.71958984 11.68818359 -5.71958984 11.68818359 -7.41015625 11.81640625 C-8.26480469 11.87699219 -9.11945312 11.93757813 -10 12 C-10 8.37 -10 4.74 -10 1 C-9.67 1 -9.34 1 -9 1 C-9 3.64 -9 6.28 -9 9 C-6.03 9 -3.06 9 0 9 C0 6.03 0 3.06 0 0 Z " fill="#142953" transform="translate(33,31)"/>
<path d="M0 0 C4.29 0 8.58 0 13 0 C13.09765625 7.71484375 13.09765625 7.71484375 13 10 C12 11 12 11 9.05859375 11.09765625 C7.26615234 11.08025391 7.26615234 11.08025391 5.4375 11.0625 C3.64119141 11.04896484 3.64119141 11.04896484 1.80859375 11.03515625 C0.88175781 11.02355469 -0.04507813 11.01195312 -1 11 C-0.67 10.34 -0.34 9.68 0 9 C3.63 9 7.26 9 11 9 C11 6.36 11 3.72 11 1 C7.37 1 3.74 1 0 1 C0 0.67 0 0.34 0 0 Z " fill="#0E224E" transform="translate(38,32)"/>
<path d="M0 0 C0.66 0 1.32 0 2 0 C2 2.97 2 5.94 2 9 C5.3 9 8.6 9 12 9 C12 9.66 12 10.32 12 11 C8.04 11 4.08 11 0 11 C0 7.37 0 3.74 0 0 Z " fill="#162A54" transform="translate(53,31)"/>
<path d="M0 0 C1.37478516 0.01740234 1.37478516 0.01740234 2.77734375 0.03515625 C3.69644531 0.04417969 4.61554687 0.05320313 5.5625 0.0625 C6.27277344 0.07410156 6.98304687 0.08570313 7.71484375 0.09765625 C7.38484375 1.74765625 7.05484375 3.39765625 6.71484375 5.09765625 C3.74484375 4.76765625 0.77484375 4.43765625 -2.28515625 4.09765625 C-2.61515625 3.10765625 -2.94515625 2.11765625 -3.28515625 1.09765625 C-2.28515625 0.09765625 -2.28515625 0.09765625 0 0 Z " fill="#36476C" transform="translate(55.28515625,49.90234375)"/>
<path d="M0 0 C-0.33 0.99 -0.66 1.98 -1 3 C-3.64 3.33 -6.28 3.66 -9 4 C-9 2.68 -9 1.36 -9 0 C-5.67465243 -1.10844919 -3.37817425 -0.84454356 0 0 Z " fill="#4A597A" transform="translate(26,51)"/>
<path d="M0 0 C3.3 0 6.6 0 10 0 C10 0.33 10 0.66 10 1 C9.21625 1.144375 8.4325 1.28875 7.625 1.4375 C5.03578982 1.87798925 5.03578982 1.87798925 3 3 C2.67 3.66 2.34 4.32 2 5 C1.01 4.67 0.02 4.34 -1 4 C-0.67 2.68 -0.34 1.36 0 0 Z " fill="#626D8D" transform="translate(24,42)"/>
<path d="M0 0 C2.0625 0.4375 2.0625 0.4375 4 1 C3.67 2.32 3.34 3.64 3 5 C2.01 4.67 1.02 4.34 0 4 C-0.33 3.01 -0.66 2.02 -1 1 C-0.67 0.67 -0.34 0.34 0 0 Z " fill="#1D3059" transform="translate(53,50)"/>
</svg>
